<svg width="580" height="278" viewBox="0 0 580 278" fill="none" xmlns="http://www.w3.org/2000/svg">
<g clip-path="url(#clip0)">
<rect width="580" height="278" fill="white"/>
<g clip-path="url(#clip1)">
<rect x="290" width="278" height="278" fill="white"/>
<path d="M401.169 135.841C402.169 107.793 411.821 78.3847 418.59 70.4374C418.59 70.4374 412.067 63.0581 422.82 53.6067C433.837 43.9232 450.74 50.2159 450.74 50.2159C450.74 50.2159 457.531 28.2779 472.814 30.3524C488.545 32.4862 484.48 59.9093 484.48 59.9093C484.48 59.9093 497.322 45.2519 500.891 62.858C504.462 80.5061 489.597 103.664 489.597 103.664C489.597 103.664 510.518 98.6309 499.74 124.777C489.239 150.249 446.509 198.02 446.509 198.02L401.169 135.841Z" fill="#844535"/>
<path d="M489.597 103.664C489.597 103.664 504.462 80.5061 500.891 62.858C500.644 61.6528 500.355 60.6106 500.029 59.6919C498.821 76.9325 483.804 82.6942 463.617 94.5658C440.548 108.127 417.592 121.149 404.587 108.448C402.784 117.183 401.5 126.58 401.167 135.841L446.509 198.02C446.509 198.02 489.239 150.249 499.74 124.777C510.518 98.6309 489.597 103.664 489.597 103.664Z" fill="#702C1E"/>
<path d="M315.803 447.124C315.381 331.625 348.264 234.126 348.264 234.126C348.264 234.126 405.13 209.884 414.031 208.303C422.929 206.723 479.897 230.385 480.551 236.235C483.332 261.003 448.863 270.492 444.771 427.542C388.164 421.296 357.595 428.053 315.803 447.124Z" fill="#F2EEDD"/>
<path d="M380.33 220.783L386.685 229.394L390.325 227.275L399.425 228.732L401.974 232.18L452.963 220.573L444.687 216.668L384.864 219.318L380.33 220.783Z" fill="#DDD5B6"/>
<path d="M314 508.206C314.003 509.863 358.607 413.576 371.289 403.564C371.289 403.564 441.343 473.762 469.24 498.426C469.24 498.426 426.969 391.142 463.372 320.078C476.72 294.023 490.978 248.67 482.549 235.71C478.78 229.913 456.516 219.899 456.516 219.899C456.516 219.899 398.875 265.748 374.917 333.206C374.917 333.206 365.833 247.302 374.435 220.427C374.435 220.427 332.977 227.315 330.868 233.638C328.756 239.965 313.958 386.467 314 508.206Z" fill="#5E4E51"/>
<path d="M383.77 219.39L399.532 174.84L468.198 143.522L446.573 217.918L395.726 225.221L383.77 219.39Z" fill="#FFB882"/>
<path d="M469.247 226.238C455.049 260.744 453.244 287.27 460.218 327.77C510.965 329.877 624.514 367.806 624.514 367.806L643.353 328.788C620.605 317.585 515.674 249.806 469.247 226.238Z" fill="#5E4E51"/>
<path d="M397.847 217.994L401.974 232.049L450.268 219.053L448.934 212.825L397.847 217.994Z" fill="#F2EEDD"/>
<path d="M387.05 229.13L396.393 217.861L385.351 213.885L381.226 219.318L387.05 229.13Z" fill="#F2EEDD"/>
<path d="M396.392 218.92C393.844 216.006 388.988 210.303 388.262 211.232C387.534 212.161 378.068 227.141 379.769 229.925C381.466 232.708 396.029 225.684 396.029 225.684L396.392 218.92Z" fill="#5E4E51"/>
<path d="M418.476 216.668C417.034 213.754 395.178 219.187 395.178 219.187L394.936 225.949C394.936 225.949 404.202 238.576 410.954 237.616C417.706 236.655 413.584 227.288 413.744 226.907C413.905 226.522 420.405 220.56 418.476 216.668Z" fill="#5E4E51"/>
<path d="M373.576 223.544C373.84 222.435 374.126 221.39 374.435 220.427C374.129 221.383 373.847 222.438 373.585 223.539C373.583 223.542 373.576 223.544 373.576 223.544ZM452.997 220.588C452.985 220.583 452.975 220.58 452.963 220.573C452.975 220.578 452.985 220.583 452.997 220.588ZM381.75 220.205L381.227 219.318L381.753 220.205H381.75ZM449.937 219.146L449.932 219.143L450.268 219.054L449.937 219.146Z" fill="#B58383"/>
<path d="M385.341 270.917C384.099 270.917 382.889 270.865 381.711 270.759C377.616 270.391 373.988 269.551 370.815 268.319C370.494 250.962 371.059 234.112 373.576 223.544C373.576 223.544 373.583 223.542 373.586 223.539C375.798 222.63 378.058 221.707 380.33 220.783L381.703 222.643C380.145 225.888 379.105 228.839 379.77 229.926C380.049 230.388 380.683 230.578 381.543 230.578C384.074 230.58 388.579 228.916 391.893 227.528L396.835 228.318C399.744 231.741 405.461 237.666 410.201 237.668C410.455 237.668 410.704 237.651 410.954 237.616C415.602 236.954 415.098 232.311 414.384 229.355L452.963 220.573C452.975 220.581 452.985 220.583 452.997 220.588C453.587 220.842 454.173 221.097 454.758 221.351C449.236 226.006 431.524 241.627 413.253 265.126C403.219 268.642 393.607 270.917 385.341 270.917ZM380.33 220.783L380.333 220.781C380.807 220.59 381.278 220.398 381.75 220.208V220.205H381.753L381.812 220.306L380.33 220.783Z" fill="#AC7B72"/>
<path d="M414.384 229.355C414.332 229.145 414.28 228.943 414.229 228.75L449.932 219.143L449.937 219.145H449.935L452.963 220.573L414.384 229.355ZM396.835 228.318L391.893 227.527C393.204 226.979 394.328 226.473 395.074 226.132C395.333 226.475 395.956 227.283 396.835 228.318ZM381.703 222.642L380.33 220.783L381.812 220.306L382.382 221.269C382.148 221.731 381.921 222.188 381.703 222.642Z" fill="#9D6E5E"/>
<path d="M469.929 226.586C469.699 226.468 469.474 226.354 469.247 226.238C469.474 226.354 469.702 226.468 469.929 226.586ZM359.442 223.312C366.754 221.746 372.933 220.681 374.198 220.467C372.931 220.681 366.757 221.746 359.442 223.312ZM374.2 220.467C374.22 220.462 374.24 220.459 374.257 220.457C374.24 220.459 374.22 220.462 374.2 220.467ZM374.262 220.454C374.267 220.454 374.269 220.454 374.274 220.454C374.269 220.454 374.267 220.454 374.262 220.454ZM374.277 220.454C374.297 220.449 374.316 220.447 374.334 220.444C374.316 220.447 374.297 220.449 374.277 220.454ZM374.339 220.442C374.341 220.442 374.344 220.442 374.346 220.442C374.344 220.442 374.341 220.442 374.339 220.442ZM374.361 220.439C374.366 220.439 374.368 220.437 374.373 220.437C374.368 220.437 374.366 220.439 374.361 220.439ZM374.376 220.437C374.378 220.437 374.378 220.437 374.381 220.435C374.378 220.437 374.378 220.437 374.376 220.437ZM374.386 220.435H374.388H374.386ZM374.393 220.435C374.4 220.432 374.408 220.432 374.413 220.43C374.408 220.432 374.4 220.432 374.393 220.435ZM374.415 220.43C374.418 220.43 374.418 220.43 374.42 220.43C374.418 220.43 374.418 220.43 374.415 220.43ZM374.42 220.43H374.423H374.42ZM374.425 220.427H374.428H374.425ZM385.677 214.004L385.351 213.885L385.677 214.001L398.353 178.161L385.677 214.004ZM448.026 212.917L455.314 187.852L448.028 212.917H448.026Z" fill="#B58383"/>
<path d="M455.314 187.852L457.904 178.932L455.314 187.852Z" fill="#501610"/>
<path d="M370.815 268.318C352.868 261.337 349.563 241.728 359.442 223.311C366.757 221.746 372.931 220.681 374.198 220.466H374.2C374.22 220.461 374.24 220.459 374.257 220.457C374.26 220.457 374.26 220.457 374.262 220.454C374.267 220.454 374.27 220.454 374.274 220.454C374.274 220.454 374.275 220.454 374.277 220.454C374.297 220.449 374.316 220.447 374.334 220.444C374.336 220.442 374.336 220.442 374.339 220.442C374.341 220.442 374.344 220.442 374.346 220.442C374.351 220.439 374.356 220.439 374.361 220.439C374.366 220.439 374.368 220.437 374.373 220.437H374.376C374.378 220.437 374.378 220.437 374.381 220.434C374.381 220.434 374.383 220.434 374.386 220.434H374.388C374.391 220.434 374.393 220.434 374.393 220.434C374.4 220.432 374.408 220.432 374.413 220.429C374.415 220.429 374.415 220.429 374.415 220.429C374.418 220.429 374.418 220.429 374.42 220.429H374.423C374.423 220.427 374.423 220.427 374.425 220.427H374.428C374.43 220.427 374.43 220.427 374.433 220.427C374.435 220.427 374.435 220.427 374.435 220.427C374.126 221.39 373.84 222.435 373.576 223.544C371.059 234.111 370.493 250.962 370.815 268.318ZM413.253 265.125C431.523 241.626 449.236 226.006 454.758 221.351C454.758 221.353 454.758 221.353 454.758 221.353C455.877 220.41 456.516 219.898 456.516 219.898C456.581 219.926 462.826 222.746 469.245 226.243L469.247 226.238C467.106 231.442 465.246 236.467 463.656 241.384C448.695 249.507 430.36 259.124 413.253 265.125Z" fill="#43282A"/>
<path d="M396.373 218.898C396.237 218.743 396.094 218.577 395.943 218.405L396.393 217.861L395.047 217.377C392.651 214.641 389.49 211.131 388.49 211.131C388.394 211.131 388.317 211.163 388.263 211.233C388.077 211.47 387.327 212.616 386.336 214.241L385.677 214.004L398.356 178.162L459.974 158.202C459.974 158.202 461.009 159.77 462.71 162.403L457.904 178.932L455.314 187.852L448.026 212.917L417.409 216.016C416.849 215.873 416.1 215.809 415.221 215.809C411.998 215.809 407 216.651 402.799 217.493L397.847 217.995L398.003 218.523C397.366 218.666 396.815 218.795 396.373 218.898Z" fill="#B55F43"/>
<path d="M463.656 241.384C465.246 236.467 467.106 231.442 469.247 226.238C469.475 226.354 469.699 226.468 469.929 226.586C473.204 228.258 476.78 230.162 480.563 232.222C475.775 234.743 470.02 237.929 463.656 241.384Z" fill="#43282A"/>
<path d="M414.228 228.75C413.954 227.727 413.702 227.006 413.744 226.907C413.905 226.522 420.405 220.56 418.476 216.668C418.325 216.367 417.955 216.152 417.409 216.016L448.025 212.917H448.028L448.934 212.825L450.268 219.054L449.932 219.143L414.228 228.75ZM398.003 218.523L397.847 217.994L402.799 217.493C400.981 217.858 399.312 218.224 398.003 218.523Z" fill="#AC7B72"/>
<path d="M382.382 221.269L381.812 220.306L381.752 220.205L381.226 219.318L385.351 213.885L385.677 214.003L386.336 214.24C385.17 216.157 383.674 218.735 382.382 221.269ZM395.943 218.404C395.662 218.083 395.36 217.737 395.047 217.377L396.393 217.861L395.943 218.404Z" fill="#AC7B72"/>
<path d="M381.543 230.577C380.683 230.577 380.049 230.387 379.769 229.925C379.105 228.838 380.145 225.887 381.703 222.642C381.921 222.188 382.148 221.731 382.382 221.269C383.674 218.735 385.171 216.157 386.336 214.24C387.327 212.615 388.077 211.469 388.263 211.232C388.317 211.163 388.394 211.131 388.49 211.131C389.49 211.131 392.651 214.64 395.047 217.377C395.36 217.737 395.662 218.083 395.943 218.404C396.094 218.577 396.237 218.743 396.373 218.898C395.617 219.078 395.178 219.187 395.178 219.187L394.936 225.949C394.936 225.949 394.985 226.013 395.074 226.132C394.328 226.473 393.204 226.979 391.893 227.527C388.579 228.915 384.074 230.58 381.543 230.577Z" fill="#43282A"/>
<path d="M410.2 237.668C405.461 237.665 399.744 231.741 396.835 228.318C395.955 227.283 395.333 226.476 395.074 226.132C394.985 226.014 394.936 225.949 394.936 225.949L395.178 219.188C395.178 219.188 395.617 219.079 396.373 218.899C396.815 218.795 397.366 218.666 398.003 218.523C399.312 218.224 400.981 217.859 402.799 217.493C407 216.651 411.998 215.809 415.221 215.809C416.1 215.809 416.849 215.873 417.409 216.016C417.955 216.152 418.326 216.367 418.476 216.669C420.405 220.561 413.905 226.522 413.744 226.908C413.702 227.006 413.954 227.728 414.228 228.75C414.28 228.943 414.332 229.145 414.384 229.355C415.098 232.311 415.602 236.954 410.954 237.616C410.704 237.651 410.455 237.668 410.2 237.668Z" fill="#43282A"/>
<path d="M376.492 190.685C379.812 161.81 419.165 54.3231 450.599 72.8332C462.987 80.131 477.271 87.4659 473.535 122.137C469.793 156.809 448.907 200.781 448.907 200.781C448.907 200.781 396.919 204.179 376.492 190.685Z" fill="#FFB882"/>
<path d="M451.71 171.814L444.245 167.196C444.245 167.196 462.063 91.0421 473.28 90.516C484.497 89.9875 481.924 131.359 471.282 149.805C460.638 168.251 451.71 171.814 451.71 171.814Z" fill="#702C1E"/>
<path d="M454.514 156.574C461.132 147.799 474.13 142.129 474.945 151.494C475.76 160.859 451.753 176.642 448.307 179.053C444.86 181.458 450.476 161.926 454.514 156.574Z" fill="#FFB882"/>
<path d="M418.422 164.146L400.883 153.297L386.154 152.462C378.606 166.028 373.899 184.358 372.973 192.406C380.762 197.553 400.48 200.517 412.473 200.228L418.422 164.146Z" fill="#844535"/>
<path d="M412.317 164.598L388.808 156.71C382.963 167.221 377.898 180.989 377.179 187.222C383.212 191.211 396.444 193.327 405.738 193.102L412.317 164.598Z" fill="#FFB882"/>
<path d="M389.85 188.413L389.651 177.694L395.997 180.078L389.85 188.413Z" fill="#844535"/>
<path d="M390.947 183.505L392.162 194.693L384.891 192.132L390.947 183.505Z" fill="#844535"/>
<path d="M456.921 157.061C461.078 151.554 469.235 147.992 469.746 153.87C470.26 159.748 455.19 169.661 453.027 171.17C450.863 172.684 454.387 160.422 456.921 157.061Z" fill="#EA7B59"/>
<path d="M453.899 163.275C456.329 159.106 461.656 155.903 462.463 159.894C463.271 163.885 453.691 172.089 452.32 173.329C450.952 174.566 452.419 165.816 453.899 163.275Z" fill="#FFB882"/>
<path d="M405.701 113.17C407.407 109.058 410.497 106.623 412.591 107.737C414.678 108.841 414.977 113.086 413.258 117.198C411.544 121.3 408.462 123.74 406.38 122.631C404.278 121.523 403.974 117.287 405.701 113.17Z" fill="#4F3131"/>
<path d="M423.317 114.114C421.625 111.086 396.252 141.984 394.992 146.649C394.36 148.966 407.533 153.389 407.533 153.389C407.533 153.389 423.635 114.66 423.317 114.114Z" fill="#FFB882"/>
<path d="M421.637 114.748C415.066 120.89 396.825 142.443 395.805 146.355C395.341 148.123 403.236 151.22 406.75 152.396C406.405 153.198 406.219 153.665 406.219 153.665C406.219 153.665 392.105 149.635 392.762 147.372C394.032 143.006 418.313 114.894 421.637 114.748Z" fill="#EA7B59"/>
<path d="M430.736 121.219C432.465 117.102 435.547 114.676 437.636 115.785C439.743 116.882 440.036 121.125 438.32 125.229C436.609 129.346 433.517 131.784 431.415 130.682C429.323 129.568 429.024 125.328 430.736 121.219Z" fill="#4F3131"/>
<path d="M429.987 111.55C432.931 117.21 449.885 121.463 451.785 119.43C453.691 117.398 454.901 115.054 451.656 112.503C448.413 109.952 433.457 101.271 430.795 102.486C428.13 103.699 428.634 108.939 429.987 111.55Z" fill="#7C4431"/>
<path d="M419.235 107.038C415.352 110.273 403.592 103.805 403.211 100.871C402.839 97.9223 402.994 95.1118 405.889 94.8155C408.798 94.5191 421.015 95.8651 422.159 98.5447C423.295 101.219 421.03 105.554 419.235 107.038Z" fill="#7C4431"/>
<path d="M392.041 172.02C392.258 171.293 393.856 171.202 395.612 171.82C397.368 172.434 398.615 173.521 398.4 174.25C398.183 174.976 396.583 175.065 394.829 174.45C393.073 173.835 391.826 172.746 392.041 172.02Z" fill="#EA7B59"/>
<path d="M390.026 164.324C394.987 165.349 404.543 169.323 408.447 172.758C408.338 172.474 408.247 172.168 408.116 171.916C406.291 168.374 393.53 163.134 388.265 162.353C387.998 162.314 387.722 162.328 387.44 162.361L390.026 164.324Z" fill="#EA7B59"/>
<path d="M419.933 70.502C413.379 69.1091 408.104 53.202 415.745 47.0353C423.391 40.8711 429.943 41.2687 429.943 41.2687C429.943 41.2687 419.388 48.0306 426.12 53.7973C432.855 59.5639 419.933 70.502 419.933 70.502Z" fill="#844535"/>
<path d="M445.232 63.3423C431.644 60.4948 435.344 35.3019 450.026 32.6495C450.026 32.6495 440.35 40.2609 448.198 46.1832C456.045 52.1054 445.232 63.3423 445.232 63.3423Z" fill="#844535"/>
<path d="M453.392 55.9214C447.181 53.4073 449.621 34.8281 458.408 29.2813C467.193 23.732 473.604 25.1668 473.604 25.1668C473.604 25.1668 460.337 34.4823 464.249 42.9483C468.158 51.4167 453.392 55.9214 453.392 55.9214Z" fill="#844535"/>
<path d="M477.464 64.019C471.213 61.6185 466.58 45.2916 474.698 38.9619C485.142 30.8244 495.312 33.4422 495.312 33.4422C495.312 33.4422 477.084 41.2685 488.674 59.4427C493.339 66.7652 477.464 64.019 477.464 64.019Z" fill="#844535"/>
<path d="M487.031 65.7354C482.346 64.2166 478.753 53.5601 484.762 49.3493C492.487 43.9309 500.101 45.5584 500.101 45.5584C500.101 45.5584 486.562 50.8409 495.361 62.6434C498.903 67.3999 487.031 65.7354 487.031 65.7354Z" fill="#844535"/>
</g>
<g clip-path="url(#clip2)">
<rect width="278" height="278" fill="white"/>
<path d="M37.8274 331.839C41.3019 288.477 39.3959 211.54 1.75835 183.295C-8.689 175.452 -25.9571 237.542 -23.8039 291.514C-21.6507 345.485 37.8274 331.839 37.8274 331.839Z" fill="#F2EEDD"/>
<path d="M5.5347 324.163C25.5691 323.921 41.9436 265.764 14.6678 196.599C39.788 230.973 43.2768 306.567 38.4952 333.18C38.4952 333.18 -21.81 349.766 -23.9608 295.794C-24.1485 291.112 -24.1295 286.34 -23.956 281.532C-22.5586 299.92 -3.31322 324.27 5.5347 324.163Z" fill="#E0D4B8"/>
<path d="M-10.885 198.193C-7.29403 188.513 -3.46779 182.619 -0.121596 182.619C-0.0598059 182.619 0.00199215 182.622 0.0637821 182.626C0.0827946 182.643 0.101803 182.66 0.118439 182.676C0.679306 182.726 1.23067 182.897 1.75827 183.294C3.40998 184.535 4.96901 185.897 6.48763 187.315C0.924103 190.267 -4.79151 194.157 -10.885 198.193Z" fill="#AC7B72"/>
<path d="M273.67 180.098C273.632 179.986 273.594 179.875 273.556 179.765C274.402 179.026 275.262 178.294 276.156 177.572C276.163 177.593 276.17 177.615 276.18 177.636C275.811 177.935 275.445 178.235 275.086 178.534C275.438 178.774 275.792 179.01 276.149 179.245C275.414 179.397 274.668 179.642 273.912 179.984C273.832 180.022 273.751 180.06 273.67 180.098Z" fill="#F35983"/>
<path d="M273.912 179.984C297.771 169.18 310.766 255.533 307.828 269.626C304.204 287.027 275.089 324.158 271.564 331.794C268.04 339.428 229.868 362.331 224.582 347.061C219.297 331.794 242.789 194.08 273.912 179.984Z" fill="#F2EEDD"/>
<path d="M301.647 218.322C298.643 260.894 252.136 346.393 226.564 310.031C223.905 328.495 223.082 342.723 224.584 347.06C229.867 362.33 270.58 342.146 274.105 334.512C277.627 326.876 306.497 290.562 310.121 273.164C311.526 266.419 306.982 239.597 301.647 218.322Z" fill="#E0D4B8"/>
<path d="M276.149 179.245C275.792 179.009 275.438 178.774 275.086 178.534C275.445 178.235 275.811 177.935 276.18 177.636C276.346 178.135 276.515 178.639 276.686 179.15C276.507 179.176 276.329 179.207 276.149 179.245Z" fill="#AD2E43"/>
<path d="M288.939 186.365C284.447 184.276 280.165 181.89 276.148 179.245C276.329 179.207 276.507 179.176 276.686 179.15C277.128 179.083 277.562 179.053 277.995 179.053C282.007 179.053 285.662 181.807 288.939 186.365Z" fill="#AC7B72"/>
<path d="M318.435 333.876C322.487 275.636 302.046 187.556 257.44 162.659L240.241 267.822C240.241 267.822 259.995 358.191 272.035 365.273C283.366 371.934 316.835 356.879 318.435 333.876Z" fill="#EDE6C5"/>
<path d="M299.631 340.251C274.319 340.251 265.428 239.473 249.959 203.744L240.241 267.821C240.241 267.821 257.013 362.6 269.055 369.683C280.386 376.346 316.835 356.878 318.435 333.875C318.691 330.213 318.848 326.439 318.91 322.567C314.06 333.721 307.469 340.251 299.631 340.251Z" fill="#E2D7AA"/>
<path d="M-39.7697 341.45C-45.9797 286.801 -28.8185 202.637 14.8436 176.633L35.9403 274.754C35.9403 274.754 22.6934 365.025 10.9199 372.383C-0.157217 379.306 -37.3171 363.036 -39.7697 341.45Z" fill="#EDE6C5"/>
<path d="M14.8436 176.633C13.8359 177.234 12.8567 177.899 11.8776 178.558C13.767 208.486 25.0057 345.77 -17.1711 345.77C-26.0903 345.77 -34.7362 343.949 -40.7133 329.628C-40.5089 333.687 -40.1999 337.644 -39.7698 341.449C-37.3172 363.036 0.327516 381.271 11.4047 374.348C23.1781 366.988 38.6329 279.664 38.6329 279.664L14.8436 176.633Z" fill="#E2D7AA"/>
<path d="M11.8777 178.558C10.4494 232.111 37.295 325.938 37.295 325.938L141.947 321.952L147.244 317.886L156.163 323.668L250.898 318.609C250.898 318.609 259.731 175.034 259.731 163.64C259.731 163.64 184.663 122.371 137.032 126.963C65.3146 133.874 11.8777 178.558 11.8777 178.558Z" fill="#EDE6C5"/>
<path d="M244.003 313.587L172.621 317.361L147.524 262.362L128.122 316.999L39.4671 320.327C39.4671 320.327 19.466 255.815 12.0464 202.542C13.4747 258.505 37.2474 327.943 37.2474 327.943L142.398 325.476L148.687 322.271L154.383 326.351L250.898 320.574C250.898 320.574 257.949 263.173 256.979 217.191C251.87 264.591 244.003 313.587 244.003 313.587Z" fill="#D8C9A3"/>
<path d="M88.0653 138.613L96.9061 100.079L182.339 118.745L184.449 134.772L142.771 154.065L88.0653 138.613Z" fill="#FFB882"/>
<path d="M61.5573 236.705L62.1443 246.475L69.0933 245.536L68.7178 234.552L61.5573 236.705Z" fill="#EFE8C7"/>
<path d="M135.404 167.193L144.155 151.916L88.0606 134.75L84.3817 138.249L135.404 167.193Z" fill="#EDE6C5"/>
<path d="M155.213 165.843L144.155 151.917L184.834 131.074L187.408 132.914L155.213 165.843Z" fill="#EDE6C5"/>
<path d="M52.6548 152.675C52.6191 152.611 52.5811 152.545 52.5454 152.48C60.899 148.291 70.334 144.07 80.6649 140.265L80.691 140.277C70.3981 144.12 60.9893 148.402 52.6548 152.675ZM80.6649 140.265L80.6791 140.26C81.6107 139.916 82.5542 139.58 83.5025 139.245C82.7182 139.528 81.9435 139.811 81.1687 140.099L80.6649 140.265Z" fill="#B58383"/>
<path d="M139.268 194.748C100.172 193.695 64.421 173.08 52.6547 152.675C60.9893 148.402 70.398 144.12 80.6909 140.277L135.159 167.869L139.758 164.004L139.268 194.748ZM81.1686 140.099C81.9434 139.811 82.7181 139.528 83.5024 139.245C84.0442 139.055 84.5885 138.865 85.1327 138.675L85.2634 138.749L81.1686 140.099Z" fill="#A97666"/>
<path d="M140.39 194.773C140.017 194.766 139.641 194.757 139.268 194.747L139.758 164.004L135.159 167.868L80.6909 140.277L80.6648 140.265L81.1686 140.098L85.2634 138.748L135.404 167.193L139.874 159.389L141.315 160.872L140.39 194.773Z" fill="#9A6854"/>
<path d="M221.426 145.664C217.664 144.122 213.728 142.572 209.674 141.061C213.731 142.567 217.664 144.112 221.426 145.65C221.426 145.655 221.426 145.659 221.426 145.664ZM188.028 133.848C188.019 133.843 188.009 133.841 188 133.838L186.895 133.439L188.028 133.848Z" fill="#B58383"/>
<path d="M150.802 194.479L147.852 162.718L149.877 161.43L155.03 166.58L192.558 135.49L188 133.838C188.009 133.841 188.019 133.843 188.028 133.848L188.24 133.924C195.569 136.056 202.796 138.506 209.674 141.061C213.728 142.572 217.664 144.122 221.426 145.664C219.822 167.148 191.232 191.47 150.802 194.479Z" fill="#A97666"/>
<path d="M149.307 194.581L146.65 161.102L149.041 158.072L155.213 165.843L186.895 133.439L188 133.838L192.558 135.49L155.03 166.58L149.877 161.43L147.852 162.718L150.802 194.478C150.305 194.516 149.806 194.55 149.307 194.581Z" fill="#9A6854"/>
<path d="M88.8926 135.008V135.005L96.5261 101.729L88.8926 135.008ZM184.019 131.491L182.339 118.745L184.019 131.491ZM182.339 118.745L100.585 100.885L100.588 100.883L182.339 118.745Z" fill="#B58383"/>
<path d="M144.15 151.917L88.8926 135.008L96.5261 101.729C97.8593 101.429 99.2116 101.149 100.585 100.885L182.339 118.745L184.019 131.49L144.157 151.915L144.15 151.917Z" fill="#B55F43"/>
<path d="M135.404 167.193L85.2634 138.748L85.1327 138.674L84.3817 138.249L88.0606 134.75L88.8924 135.007L144.15 151.916H144.155L139.874 159.388L135.404 167.193Z" fill="#A97666"/>
<path d="M155.213 165.843L149.041 158.072L144.155 151.917L144.157 151.914L184.019 131.49L184.834 131.074L187.408 132.914L186.895 133.439L155.213 165.843Z" fill="#A97666"/>
<path d="M85.0899 62.2709C83.3265 42.7427 99.373 32.1718 114.167 26.449C129.679 20.4458 163.875 22.6132 170.879 30.3656C182.001 42.6714 179.532 59.2954 177.971 74.5054C176.412 89.7154 88.0178 94.6919 85.0899 62.2709Z" fill="#7F4A4C"/>
<path d="M144.048 75.2257C119.933 66.8222 104.856 46.5168 108.808 28.7354C95.7701 34.8479 83.538 45.0909 85.0899 62.2711C87.792 92.211 163.326 90.2502 176.11 77.7971C166.466 79.8053 155.22 79.1209 144.048 75.2257Z" fill="#6B393D"/>
<path d="M102.203 46.7616C94.356 63.1124 93.6383 127.441 97.5002 132.116C101.362 136.79 133.524 150.727 151.234 147.124C168.947 143.523 189.06 124.012 190.26 120.107C191.46 116.207 179.753 82.5835 180.354 72.9774C180.953 63.3714 173.747 39.9575 164.141 34.8527C154.538 29.7502 109.409 31.7537 102.203 46.7616Z" fill="#FFB882"/>
<path d="M106.769 130.801C102.817 125.844 102.303 57.615 109.839 40.2756C109.972 39.969 110.146 39.6743 110.308 39.3772C106.517 41.3664 103.62 43.8095 102.203 46.7612C94.356 63.112 93.6383 127.441 97.5002 132.115C101.338 136.759 133.096 150.529 150.875 147.173C133.075 145.833 110.06 134.932 106.769 130.801Z" fill="#FF9566"/>
<path d="M103.147 105.686C107.95 81.3686 109.141 41.6539 105.54 38.3505C101.937 35.0471 73.7846 42.3574 93.598 100.894L103.147 105.686Z" fill="#6B393D"/>
<path d="M122.316 76.6803H187.558L188.359 81.2837H120.717L122.316 76.6803Z" fill="#4F3032"/>
<path d="M85.8932 88.489L122.316 76.6799L120.75 81.4212L87.3144 90.4497L85.8932 88.489Z" fill="#4F3032"/>
<path d="M187.914 78.7238C190.11 90.6874 188.61 98.1331 182.441 99.9797C175.932 101.933 160.363 99.8941 159.662 79.8811L187.914 78.7238Z" fill="#4F3032"/>
<path d="M156.938 108.25C162.967 107.178 168.947 103.896 169.695 102.396C170.446 100.894 159.94 85.1355 159.94 85.1355C159.94 85.1355 150.184 109.45 156.938 108.25Z" fill="#EA7B59"/>
<path d="M96.7018 94.6917C94.5011 88.7242 83.4905 80.8816 81.4918 87.688C79.4883 94.4921 90.3302 111.385 95.6988 108.699C97.6999 107.701 98.1016 98.4942 96.7018 94.6917Z" fill="#FF9566"/>
<path d="M153.837 107.749C159.866 106.679 165.843 103.397 166.594 101.895C167.345 100.393 156.838 84.6344 156.838 84.6344C156.838 84.6344 147.082 108.951 153.837 107.749Z" fill="#FFB882"/>
<path d="M122.316 76.6799C116.712 89.8864 124.441 99.7087 130.107 101.03C141.414 103.661 159.491 97.7433 162.944 79.8811L122.316 76.6799Z" fill="#4F3032"/>
<path d="M93.8856 95.921C92.588 92.4037 86.0952 87.7789 84.9141 91.7905C83.7329 95.8045 90.1283 105.769 93.2938 104.187C94.475 103.595 94.7126 98.1668 93.8856 95.921Z" fill="#DB6449"/>
<path d="M94.6935 100.172C93.819 97.7935 89.4295 94.666 88.6333 97.3776C87.8348 100.089 92.1554 106.822 94.2967 105.753C95.0928 105.356 95.2544 101.684 94.6935 100.172Z" fill="#FF9566"/>
<path d="M164.041 116.723L142.334 118.379V115.896L164.041 115.435V116.723Z" fill="#EA7B59"/>
<path d="M161.099 123.253C161.099 122.695 159.158 120.494 156.593 120.494C154.027 120.494 151.809 122.695 151.809 123.253C151.809 123.814 154.027 122.519 156.593 122.519C159.158 122.519 161.099 123.814 161.099 123.253Z" fill="#EA7B59"/>
<path d="M169.603 80.6017C172.654 89.7514 181.008 91.3247 185.787 90.4763C186.22 87.7029 186.053 84.2069 185.274 79.96L169.603 80.6017Z" fill="#774F53"/>
<path d="M166.993 80.4638L164.728 80.5707C166.287 86.0654 170.235 88.3136 173.793 88.9434C170.924 87.256 168.431 84.5847 166.993 80.4638Z" fill="#774F53"/>
<path d="M153.468 90.7634C155.662 87.9495 157.287 84.4798 157.922 80.2614L133.422 79.3488C133.933 86.2455 143.622 93.7269 153.468 90.7634Z" fill="#774F53"/>
</g>
<path d="M219.5 304.5L287.5 169L315 209.5L279.5 304.5H219.5Z" fill="white"/>
<path d="M333.155 101.149L383.345 -74.812L404.757 -81.0798L347.779 151.109L325.409 127.631L227.869 287.427L312.221 82.5785L333.155 101.149Z" fill="#2DA9D0"/>
</g>
<defs>
<clipPath id="clip0">
<rect width="580" height="278" fill="white"/>
</clipPath>
<clipPath id="clip1">
<rect x="290" width="278" height="278" fill="white"/>
</clipPath>
<clipPath id="clip2">
<rect width="278" height="278" fill="white"/>
</clipPath>
</defs>
</svg>
