<svg width="278" height="278" viewBox="0 0 278 278" fill="none" xmlns="http://www.w3.org/2000/svg">
<g clip-path="url(#clip0)">
<rect width="278" height="278" fill="white"/>
<path d="M37.8273 331.839C41.3019 288.477 39.3958 211.54 1.75829 183.295C-8.68906 175.452 -25.9571 237.542 -23.804 291.514C-21.6508 345.485 37.8273 331.839 37.8273 331.839Z" fill="#F2EEDD"/>
<path d="M5.5347 324.163C25.5691 323.921 41.9436 265.764 14.6678 196.599C39.788 230.973 43.2768 306.567 38.4952 333.18C38.4952 333.18 -21.81 349.766 -23.9608 295.794C-24.1485 291.112 -24.1295 286.34 -23.956 281.532C-22.5586 299.92 -3.31322 324.27 5.5347 324.163" fill="#E0D4B8"/>
<path d="M-10.885 198.193C-7.29403 188.513 -3.46779 182.619 -0.121596 182.619C-0.0598056 182.619 0.00199187 182.622 0.0637824 182.626C0.0827949 182.643 0.101803 182.66 0.118439 182.676C0.679306 182.726 1.23067 182.897 1.75827 183.294C3.40998 184.535 4.96901 185.897 6.48763 187.315C0.924104 190.267 -4.79151 194.157 -10.885 198.193" fill="#AC7B72"/>
<path d="M273.67 180.098C273.632 179.986 273.594 179.875 273.556 179.765C274.402 179.026 275.262 178.294 276.156 177.572C276.163 177.593 276.17 177.615 276.18 177.636C275.811 177.935 275.445 178.235 275.086 178.534C275.438 178.774 275.792 179.01 276.149 179.245C275.414 179.397 274.668 179.642 273.912 179.984C273.832 180.022 273.751 180.06 273.67 180.098Z" fill="#F35983"/>
<path d="M273.912 179.984C297.771 169.18 310.766 255.533 307.828 269.626C304.204 287.027 275.089 324.158 271.564 331.794C268.04 339.428 229.868 362.331 224.582 347.061C219.297 331.794 242.789 194.08 273.912 179.984Z" fill="#F2EEDD"/>
<path d="M301.647 218.322C298.643 260.894 252.136 346.393 226.564 310.031C223.905 328.495 223.082 342.723 224.584 347.06C229.867 362.33 270.58 342.146 274.105 334.512C277.627 326.876 306.497 290.562 310.121 273.164C311.526 266.419 306.982 239.597 301.647 218.322" fill="#E0D4B8"/>
<path d="M276.149 179.245C275.792 179.009 275.438 178.774 275.086 178.534C275.445 178.235 275.811 177.935 276.18 177.636C276.346 178.135 276.515 178.639 276.686 179.15C276.507 179.176 276.329 179.207 276.149 179.245Z" fill="#AD2E43"/>
<path d="M288.939 186.365C284.447 184.276 280.165 181.89 276.148 179.245C276.329 179.207 276.507 179.176 276.686 179.15C277.128 179.083 277.563 179.053 277.995 179.053C282.007 179.053 285.662 181.807 288.939 186.365" fill="#AC7B72"/>
<path d="M318.435 333.876C322.487 275.636 302.046 187.556 257.44 162.659L240.241 267.822C240.241 267.822 259.995 358.191 272.035 365.273C283.366 371.934 316.835 356.879 318.435 333.876" fill="#EDE6C5"/>
<path d="M299.631 340.251C274.319 340.251 265.428 239.473 249.959 203.744L240.241 267.821C240.241 267.821 257.013 362.6 269.055 369.683C280.386 376.346 316.835 356.878 318.435 333.875C318.691 330.213 318.848 326.439 318.91 322.567C314.059 333.721 307.469 340.251 299.631 340.251Z" fill="#E2D7AA"/>
<path d="M-39.7697 341.45C-45.9797 286.801 -28.8185 202.637 14.8436 176.633L35.9403 274.754C35.9403 274.754 22.6934 365.025 10.9199 372.383C-0.157217 379.306 -37.3171 363.036 -39.7697 341.45" fill="#EDE6C5"/>
<path d="M14.8436 176.633C13.8359 177.234 12.8568 177.899 11.8776 178.558C13.767 208.486 25.0057 345.77 -17.1711 345.77C-26.0903 345.77 -34.7362 343.949 -40.7132 329.628C-40.5088 333.687 -40.1999 337.644 -39.7697 341.449C-37.3171 363.036 0.327547 381.271 11.4047 374.348C23.1782 366.988 38.6329 279.664 38.6329 279.664L14.8436 176.633Z" fill="#E2D7AA"/>
<path d="M11.8777 178.558C10.4494 232.111 37.295 325.938 37.295 325.938L141.947 321.952L147.244 317.886L156.163 323.668L250.898 318.609C250.898 318.609 259.731 175.034 259.731 163.64C259.731 163.64 184.663 122.371 137.032 126.963C65.3146 133.874 11.8777 178.558 11.8777 178.558" fill="#EDE6C5"/>
<path d="M244.003 313.587L172.621 317.361L147.525 262.362L128.122 316.999L39.4672 320.327C39.4672 320.327 19.4661 255.815 12.0464 202.542C13.4748 258.505 37.2475 327.943 37.2475 327.943L142.398 325.476L148.687 322.271L154.383 326.351L250.898 320.574C250.898 320.574 257.949 263.173 256.979 217.191C251.87 264.591 244.003 313.587 244.003 313.587Z" fill="#D8C9A3"/>
<path d="M88.0653 138.613L96.9061 100.079L182.339 118.745L184.449 134.772L142.771 154.065L88.0653 138.613" fill="#FFB882"/>
<path d="M61.5573 236.705L62.1443 246.475L69.0933 245.536L68.7178 234.552L61.5573 236.705Z" fill="#EFE8C7"/>
<path d="M135.404 167.193L144.155 151.916L88.0606 134.75L84.3817 138.249L135.404 167.193" fill="#EDE6C5"/>
<path d="M155.213 165.843L144.155 151.917L184.834 131.074L187.408 132.914L155.213 165.843Z" fill="#EDE6C5"/>
<path d="M52.6547 152.675C52.619 152.611 52.581 152.545 52.5453 152.48C60.899 148.291 70.3339 144.07 80.6648 140.265L80.6909 140.277C70.3981 144.12 60.9893 148.402 52.6547 152.675V152.675ZM80.6648 140.265L80.679 140.26C81.6107 139.916 82.5542 139.58 83.5024 139.245C82.7181 139.528 81.9434 139.811 81.1686 140.099L80.6648 140.265" fill="#B58383"/>
<path d="M139.268 194.748C100.172 193.695 64.421 173.08 52.6547 152.675C60.9893 148.402 70.398 144.12 80.6909 140.277L135.159 167.869L139.758 164.004L139.268 194.748V194.748ZM81.1686 140.099C81.9434 139.811 82.7181 139.528 83.5024 139.245C84.0442 139.055 84.5885 138.865 85.1327 138.675L85.2634 138.749L81.1686 140.099" fill="#A97666"/>
<path d="M140.39 194.773C140.017 194.766 139.641 194.757 139.268 194.747L139.758 164.004L135.159 167.868L80.6909 140.277L80.6648 140.265L81.1686 140.098L85.2634 138.748L135.404 167.193L139.874 159.389L141.315 160.872L140.39 194.773Z" fill="#9A6854"/>
<path d="M221.426 145.664C217.664 144.121 213.728 142.572 209.674 141.06C213.731 142.567 217.664 144.112 221.426 145.65C221.426 145.654 221.426 145.659 221.426 145.664ZM188.028 133.848C188.019 133.843 188.009 133.84 188 133.838L186.895 133.439L188.028 133.848Z" fill="#B58383"/>
<path d="M150.802 194.479L147.852 162.718L149.877 161.43L155.03 166.58L192.558 135.49L188 133.838C188.009 133.841 188.019 133.843 188.028 133.848L188.24 133.924C195.569 136.056 202.796 138.506 209.674 141.061C213.728 142.572 217.664 144.122 221.426 145.664C219.822 167.148 191.232 191.47 150.802 194.479" fill="#A97666"/>
<path d="M149.307 194.581L146.65 161.102L149.041 158.072L155.213 165.843L186.895 133.439L188 133.838L192.558 135.49L155.03 166.58L149.877 161.43L147.853 162.718L150.802 194.478C150.305 194.516 149.806 194.55 149.307 194.581" fill="#9A6854"/>
<path d="M88.8925 135.008V135.005L96.526 101.729L88.8925 135.008V135.008ZM184.019 131.491L182.339 118.745L184.019 131.491ZM182.339 118.745L100.585 100.885L100.588 100.883L182.339 118.745" fill="#B58383"/>
<path d="M144.15 151.917L88.8925 135.008L96.526 101.729C97.8592 101.429 99.2115 101.149 100.585 100.885L182.339 118.745L184.019 131.49L144.157 151.915L144.15 151.917Z" fill="#B55F43"/>
<path d="M135.404 167.193L85.2634 138.748L85.1327 138.674L84.3817 138.249L88.0606 134.75L88.8924 135.007L144.15 151.916H144.155L139.874 159.388L135.404 167.193" fill="#A97666"/>
<path d="M155.213 165.843L149.041 158.072L144.155 151.917L144.157 151.914L184.019 131.49L184.834 131.074L187.408 132.914L186.895 133.439L155.213 165.843" fill="#A97666"/>
<path d="M85.0899 62.2709C83.3265 42.7427 99.373 32.1718 114.167 26.449C129.679 20.4458 163.875 22.6132 170.879 30.3656C182.001 42.6714 179.532 59.2954 177.971 74.5054C176.412 89.7154 88.0178 94.6919 85.0899 62.2709" fill="#7F4A4C"/>
<path d="M144.048 75.2259C119.933 66.8224 104.856 46.5171 108.808 28.7357C95.7701 34.8482 83.538 45.0912 85.0899 62.2713C87.792 92.2112 163.326 90.2505 176.11 77.7973C166.466 79.8055 155.22 79.1211 144.048 75.2259Z" fill="#6B393D"/>
<path d="M102.203 46.7614C94.3561 63.1121 93.6384 127.441 97.5003 132.115C101.362 136.79 133.524 150.726 151.234 147.123C168.947 143.523 189.06 124.011 190.26 120.107C191.46 116.207 179.753 82.5832 180.354 72.9772C180.953 63.3711 173.747 39.9573 164.141 34.8524C154.538 29.75 109.409 31.7534 102.203 46.7614" fill="#FFB882"/>
<path d="M106.769 130.801C102.817 125.844 102.303 57.615 109.839 40.2756C109.972 39.969 110.146 39.6743 110.308 39.3772C106.517 41.3664 103.62 43.8095 102.203 46.7612C94.3561 63.112 93.6384 127.441 97.5003 132.115C101.338 136.759 133.096 150.529 150.875 147.173C133.075 145.833 110.06 134.932 106.769 130.801" fill="#FF9566"/>
<path d="M103.147 105.686C107.95 81.3688 109.141 41.6542 105.54 38.3507C101.937 35.0473 73.7847 42.3577 93.598 100.895L103.147 105.686Z" fill="#6B393D"/>
<path d="M122.316 76.6803H187.558L188.359 81.2837H120.717L122.316 76.6803Z" fill="#4F3032"/>
<path d="M85.8932 88.4893L122.316 76.6802L120.75 81.4214L87.3144 90.45L85.8932 88.4893" fill="#4F3032"/>
<path d="M187.914 78.724C190.11 90.6876 188.61 98.1333 182.441 99.9799C175.932 101.933 160.363 99.8944 159.662 79.8814L187.914 78.724Z" fill="#4F3032"/>
<path d="M156.938 108.25C162.967 107.178 168.947 103.896 169.695 102.397C170.446 100.895 159.94 85.1358 159.94 85.1358C159.94 85.1358 150.184 109.45 156.938 108.25" fill="#EA7B59"/>
<path d="M96.7018 94.6917C94.5012 88.7242 83.4905 80.8816 81.4918 87.688C79.4884 94.4921 90.3302 111.385 95.6989 108.699C97.7 107.701 98.1016 98.4942 96.7018 94.6917Z" fill="#FF9566"/>
<path d="M153.837 107.749C159.866 106.679 165.843 103.397 166.594 101.895C167.345 100.393 156.838 84.6342 156.838 84.6342C156.838 84.6342 147.082 108.951 153.837 107.749" fill="#FFB882"/>
<path d="M122.316 76.6801C116.712 89.8867 124.441 99.709 130.107 101.03C141.414 103.661 159.491 97.7435 162.944 79.8813L122.316 76.6801" fill="#4F3032"/>
<path d="M93.8857 95.921C92.5881 92.4037 86.0953 87.7789 84.9141 91.7905C83.733 95.8045 90.1283 105.769 93.2939 104.187C94.475 103.595 94.7127 98.1668 93.8857 95.921" fill="#DB6449"/>
<path d="M94.6935 100.172C93.819 97.7935 89.4295 94.666 88.6333 97.3776C87.8348 100.089 92.1554 106.822 94.2967 105.753C95.0928 105.356 95.2544 101.684 94.6935 100.172" fill="#FF9566"/>
<path d="M164.042 116.723L142.334 118.379V115.896L164.042 115.435V116.723Z" fill="#EA7B59"/>
<path d="M161.099 123.253C161.099 122.695 159.158 120.494 156.593 120.494C154.027 120.494 151.809 122.695 151.809 123.253C151.809 123.814 154.027 122.519 156.593 122.519C159.158 122.519 161.099 123.814 161.099 123.253Z" fill="#EA7B59"/>
<path d="M169.603 80.6015C172.654 89.7512 181.008 91.3245 185.787 90.4761C186.22 87.7026 186.053 84.2067 185.274 79.9598L169.603 80.6015Z" fill="#774F53"/>
<path d="M166.993 80.4638L164.728 80.5707C166.287 86.0654 170.235 88.3136 173.793 88.9434C170.924 87.256 168.431 84.5847 166.993 80.4638" fill="#774F53"/>
<path d="M153.468 90.7634C155.662 87.9495 157.287 84.4798 157.922 80.2614L133.422 79.3488C133.933 86.2455 143.622 93.7269 153.468 90.7634" fill="#774F53"/>
</g>
<defs>
<clipPath id="clip0">
<rect width="278" height="278" fill="white"/>
</clipPath>
</defs>
</svg>
