<svg width="580" height="278" viewBox="0 0 580 278" fill="none" xmlns="http://www.w3.org/2000/svg">
<rect width="580" height="278" fill="white"/>
<g clip-path="url(#clip0)">
<rect x="151" width="278" height="278" fill="white"/>
<path d="M350.752 194.212H357.578V190.094H350.752V194.212Z" fill="#FFE69E"/>
<path d="M278.859 6.57422L277.638 4.00654L284.407 0.163251L285.628 2.73092L278.859 6.57422Z" fill="#FFE69E"/>
<path d="M360.182 156.654L354.089 153.506L355.821 150.778L361.914 153.927L360.182 156.654Z" fill="#D5ADE7"/>
<path d="M230.806 198.846L228.606 197.078L233.758 191.187L235.959 192.955L230.806 198.846Z" fill="#DCE9A4"/>
<path d="M247.885 17.1001L247.94 15.0823L255.311 14.1938L255.256 16.2124L247.885 17.1001Z" fill="#FFA8C9"/>
<path d="M397.7 101.588L396.014 98.7547L399.293 96.5734L400.979 99.4065L397.7 101.588Z" fill="#DCE9A4"/>
<path d="M415.243 176.033L413.556 173.199L416.835 171.018L418.521 173.851L415.243 176.033Z" fill="#ADD2F1"/>
<path d="M412.5 146.159L409.591 145.595L410.574 142.717L413.484 143.282L412.5 146.159Z" fill="#D5ADE7"/>
<path d="M353.804 34.4897L350.85 32.6026L353.393 28.9221L356.127 23.5862L358.38 26.0848L354.452 29.1941L353.804 34.4897Z" fill="#FFB6C8"/>
<path d="M220.917 173.767L222.1 170.204L226.436 171.36L231.251 168.31L230.891 172.041L226.655 172.423L220.917 173.767Z" fill="#FFB6C8"/>
<path d="M383.299 63.3892C383.328 62.4711 383.338 61.562 383.327 60.6653L384.245 60.33L388.361 58.0204L389.11 61.1083L384.943 61.1281L383.299 63.3892Z" fill="#FFF3B7"/>
<path d="M359.03 142.67L355.315 138.6L351.45 138.752L352.849 136.897L356.032 137.974L360.031 138.777L359.03 142.67Z" fill="#ADD2F1"/>
<path d="M278.751 42.4229L272.169 40.1503L273.101 38.2204L279.681 40.4922L278.751 42.4229Z" fill="#FFE69E"/>
<path d="M257.87 85.9111L256.184 83.078L259.463 80.8958L261.15 83.7306L257.87 85.9111Z" fill="#DCE9A4"/>
<path d="M282.915 65.3706L280.006 64.806L280.989 61.9284L283.899 62.4931L282.915 65.3706Z" fill="#D5ADE7"/>
<path d="M324.232 35.397C324.124 34.2118 323.869 32.9559 323.339 31.9153L325.576 30.5131L329.514 27.1392L330.657 30.2024L326.389 31.1879L324.232 35.397Z" fill="#DBB0D7"/>
<path d="M301.585 40.6392L298.961 40.1764L294.427 39.9644L294.969 35.5474L299.662 39.3742L302.264 38.8794C301.845 39.5222 301.649 40.1156 301.585 40.6392Z" fill="#ADD2F1"/>
<path d="M154.931 156.463L148.838 153.314L150.57 150.586L156.663 153.735L154.931 156.463Z" fill="#D5ADE7"/>
<path d="M177.813 85.6235L176.126 82.7896L179.405 80.609L181.091 83.4422L177.813 85.6235Z" fill="#DCE9A4"/>
<path d="M214.365 33.3364L212.678 30.5033L215.957 28.3211L217.644 31.1551L214.365 33.3364Z" fill="#ADD2F1"/>
<path d="M202.108 7.82227L199.199 7.25844L200.182 4.38008L203.092 4.94473L202.108 7.82227Z" fill="#D5ADE7"/>
<path d="M208.407 127.058L215.29 139.241C217.098 137.129 220.79 134.502 222.165 134.165L218.977 124.211C218.977 124.211 212.781 127.796 208.407 127.058Z" fill="#FFB882"/>
<path d="M212.036 128.144C211.103 127.926 209.492 126.599 207.596 125.573C203.081 123.128 197.906 121.785 197.271 122.441C196.348 123.392 196.437 124.624 196.902 125.305C197.366 125.985 204.713 127.498 204.172 131.115C203.893 132.989 200.146 134.071 199.89 134.96C199.333 136.901 205.776 142.312 207.655 143.504C209.534 144.696 214.881 142.056 216.854 137.51C217.578 135.843 212.036 128.144 212.036 128.144Z" fill="#FFB882"/>
<path d="M202.917 132.747C201 134.022 198.454 135.9 197.697 136.051C196.94 136.202 192.541 136.979 192.275 137.521C192.008 138.063 191.608 140.263 192.647 140.449C193.685 140.634 198.52 139.699 199.552 139.1C200.582 138.499 204.036 136.849 204.21 136.442C204.384 136.032 203.989 132.036 202.917 132.747Z" fill="#FFB882"/>
<path d="M204.065 136.861C202.306 138.414 199.988 140.662 199.262 140.919C198.534 141.175 194.304 142.57 194.093 143.154C193.88 143.737 193.691 146.013 194.724 146.058C195.756 146.101 200.4 144.489 201.353 143.739C202.307 142.991 205.534 140.847 205.667 140.411C205.8 139.975 205.048 135.994 204.065 136.861Z" fill="#FFB882"/>
<path d="M208.664 139.661C206.942 141.267 204.674 143.587 203.954 143.865C203.235 144.143 199.045 145.658 198.845 146.251C198.645 146.843 198.499 149.131 199.529 149.146C200.559 149.161 205.156 147.412 206.091 146.635C207.028 145.858 210.203 143.617 210.328 143.176C210.452 142.735 209.628 138.762 208.664 139.661Z" fill="#FFB882"/>
<path d="M268.981 168.396L267.685 188.279L280.39 177.502L268.981 168.396Z" fill="#3A2D30"/>
<path d="M296.294 190.661L336.385 274.231H337.111C337.111 274.231 314.866 187.755 311.07 161.183C293.592 159.687 285.667 152.868 271.646 169.19C271.646 169.19 274.191 232.596 281.706 274.231H282.755C282.57 243.186 287.031 188.288 287.031 188.288L296.294 190.661Z" fill="#47383B"/>
<path d="M312.225 167.988C311.827 165.753 310.745 159.122 310.494 157.369C293.017 155.873 284.091 155.494 268.966 157.392C268.966 157.392 268.696 164.58 268.982 168.397C284.2 166.552 294.753 166.532 312.225 167.988Z" fill="#3A2D30"/>
<path d="M312.113 159.7C311.361 159.636 309.982 160.106 308.617 160.576C307.265 161.042 305.928 161.507 305.228 161.454C309.929 186.635 327.497 246.12 333.443 268.099L336.385 274.231H337.111C337.111 274.231 315.91 186.272 312.113 159.7Z" fill="#3A2D30"/>
<path d="M296.479 190.961L304.532 184.803L290.892 188.421L282.951 186.036L284.853 190.591C284.853 190.591 280.541 244.646 281.205 272.193C281.37 272.884 281.537 273.566 281.705 274.231H282.755C282.57 243.186 289.656 190.293 289.656 190.293L296.479 190.961Z" fill="#3A2D30"/>
<path d="M277.891 94.9617L271.567 122.332C256.415 123.798 219.36 139.351 219.36 139.351L214.938 123.558C223.008 119.831 262.424 98.7565 277.891 94.9617Z" fill="#5E4E51"/>
<path d="M218.046 134.658L219.36 139.351C219.36 139.351 256.254 124.99 271.404 123.524L272.925 116.45C256.954 118.969 226.089 131.358 218.046 134.658Z" fill="#4F3D41"/>
<path d="M381.479 132L374.596 144.182C372.788 142.071 369.096 139.444 367.72 139.107L370.909 129.153C370.909 129.153 377.105 132.739 381.479 132Z" fill="#FFB882"/>
<path d="M377.85 133.087C378.783 132.869 380.394 131.541 382.289 130.515C386.805 128.071 391.979 126.727 392.616 127.382C393.539 128.334 393.449 129.565 392.984 130.246C392.52 130.928 385.173 132.44 385.713 136.058C385.993 137.932 389.74 139.013 389.995 139.902C390.553 141.843 384.11 147.254 382.231 148.446C380.353 149.638 375.005 146.998 373.033 142.452C372.308 140.785 377.85 133.087 377.85 133.087Z" fill="#FFB882"/>
<path d="M386.969 137.69C388.886 138.965 391.431 140.843 392.188 140.993C392.945 141.143 397.345 141.922 397.611 142.464C397.878 143.006 398.278 145.205 397.239 145.39C396.2 145.577 391.365 144.642 390.335 144.042C389.304 143.442 385.85 141.791 385.676 141.383C385.502 140.975 385.897 136.977 386.969 137.69Z" fill="#FFB882"/>
<path d="M385.822 141.803C387.58 143.355 389.898 145.604 390.625 145.86C391.352 146.117 395.583 147.511 395.794 148.095C396.006 148.68 396.195 150.956 395.163 150.999C394.13 151.043 389.486 149.429 388.533 148.681C387.58 147.933 384.353 145.789 384.22 145.353C384.087 144.917 384.839 140.936 385.822 141.803Z" fill="#FFB882"/>
<path d="M381.222 144.602C382.945 146.209 385.212 148.529 385.932 148.806C386.652 149.084 390.842 150.601 391.041 151.193C391.241 151.785 391.387 154.073 390.358 154.088C389.328 154.103 384.731 152.355 383.794 151.578C382.858 150.8 379.683 148.559 379.558 148.118C379.434 147.676 380.258 143.704 381.222 144.602Z" fill="#FFB882"/>
<path d="M296.417 64.723C296.749 55.3885 299.961 45.6011 302.214 42.9562C302.214 42.9562 300.044 40.5003 303.622 37.3548C307.289 34.132 312.914 36.2263 312.914 36.2263C312.914 36.2263 315.174 28.9252 320.26 29.6156C325.496 30.3257 324.143 39.4523 324.143 39.4523C324.143 39.4523 328.417 34.5742 329.605 40.4337C330.793 46.3071 325.846 54.0143 325.846 54.0143C325.846 54.0143 332.809 52.3392 329.222 61.0408C325.727 69.5181 311.506 85.4165 311.506 85.4165L296.417 64.723Z" fill="#844535"/>
<path d="M325.846 54.0143C325.846 54.0143 330.793 46.3071 329.605 40.4337C329.523 40.0326 329.427 39.6857 329.318 39.38C328.916 45.1178 323.918 47.0353 317.2 50.9863C309.522 55.4995 301.882 59.8335 297.554 55.6063C296.954 58.5135 296.527 61.6409 296.416 64.723L311.506 85.4165C311.506 85.4165 325.727 69.5181 329.222 61.0408C332.809 52.3392 325.846 54.0143 325.846 54.0143Z" fill="#702C1E"/>
<path d="M268.006 168.32C267.865 129.882 278.809 97.4331 278.809 97.4331C278.809 97.4331 297.735 89.3651 300.697 88.8391C303.658 88.3131 322.618 96.1879 322.835 98.135C323.761 106.378 312.289 109.536 310.927 161.803C292.088 159.725 281.914 161.973 268.006 168.32Z" fill="#F2EEDD"/>
<path d="M289.481 92.992L291.596 95.858L292.807 95.1528L295.836 95.6377L296.684 96.7852L313.654 92.9221L310.899 91.6227L290.99 92.5046L289.481 92.992Z" fill="#DDD5B6"/>
<path d="M269.641 188.096C269.6 187.638 269.564 187.177 269.531 186.714L271.181 185.314C270.611 186.343 270.091 187.281 269.641 188.096Z" fill="#B58383"/>
<path d="M269.532 186.714C269.485 186.039 269.447 185.357 269.417 184.674C270.17 183.134 271.097 181.239 272.129 179.148C272.196 180.401 272.27 181.754 272.352 183.2C271.944 183.937 271.551 184.646 271.181 185.314L269.532 186.714Z" fill="#291719"/>
<path d="M272.352 183.201C272.27 181.755 272.196 180.401 272.129 179.149C273.903 175.556 275.99 171.389 278.046 167.474C279.113 167.389 280.167 167.315 281.213 167.251C278.428 172.259 275.031 178.372 272.352 183.201Z" fill="#331D1E"/>
<path d="M278.046 167.474C278.736 166.159 279.422 164.875 280.092 163.648C281.311 163.284 282.53 162.958 283.76 162.671C283.014 164.012 282.148 165.57 281.213 167.251C280.167 167.314 279.113 167.389 278.046 167.474Z" fill="#291719"/>
<path d="M309.519 180.602L295.683 167.01C297.07 167.045 298.483 167.097 299.935 167.164C302.633 169.812 305.481 172.589 308.216 175.225C308.628 176.959 309.063 178.757 309.519 180.602Z" fill="#331D1E"/>
<path d="M299.935 167.164C298.483 167.097 297.07 167.045 295.683 167.01L290.119 161.542C291.343 161.393 292.595 161.277 293.881 161.196C295.715 163.011 297.777 165.046 299.935 167.164Z" fill="#291719"/>
<path d="M316.081 187.048L309.519 180.602C309.063 178.757 308.628 176.959 308.216 175.225C310.587 177.511 312.874 179.69 314.906 181.588C315.281 183.359 315.673 185.183 316.081 187.048Z" fill="#291719"/>
<path d="M280.092 163.648C282.744 158.796 285.138 154.876 286.472 153.824C286.472 153.824 289.534 156.893 293.882 161.196C292.595 161.278 291.344 161.393 290.119 161.543L286.413 157.903C286.413 157.903 285.362 159.791 283.76 162.672C282.53 162.958 281.31 163.285 280.092 163.648Z" fill="#AC7B72"/>
<path d="M267.406 188.649C267.407 189.2 282.251 157.155 286.472 153.823C286.472 153.823 309.786 177.185 319.071 185.394C319.071 185.394 305.003 149.689 317.118 126.038C321.56 117.367 326.305 102.273 323.5 97.9598C322.246 96.0308 314.836 92.6979 314.836 92.6979C314.836 92.6979 295.653 107.957 287.679 130.408C287.679 130.408 284.656 101.818 287.519 92.8738C287.519 92.8738 273.721 95.1661 273.02 97.2702C272.317 99.376 267.392 148.133 267.406 188.649Z" fill="#5E4E51"/>
<path d="M271.762 128.341C271.683 123.23 271.464 118.658 270.677 115.184C269.344 126.347 268.654 141.834 268.166 157.85C270.351 149.838 271.916 138.482 271.762 128.341Z" fill="#4F3D41"/>
<path d="M322.772 119.554C319.942 120.877 317.581 118.677 315.062 121.253C310.719 125.692 306.942 136.439 306.942 147.042C306.942 162.687 312.07 177.333 318.95 185.076C304.348 146.385 320.594 125.478 322.772 119.554Z" fill="#4F3D41"/>
<path d="M290.626 92.5287L295.871 77.7021L318.724 67.2793L311.527 92.0388L294.605 94.4692L290.626 92.5287Z" fill="#FFB882"/>
<path d="M319.073 94.808C314.348 106.292 313.747 115.12 316.068 128.599C332.957 129.3 370.747 141.923 370.747 141.923L377.017 128.937C369.446 125.209 334.525 102.652 319.073 94.808Z" fill="#5E4E51"/>
<path d="M315.062 121.252C315.284 123.563 315.781 128.463 316.23 131.068C333.119 131.77 370.142 143.379 370.142 143.379L372.42 138.46C360.883 134.207 330.133 123.227 315.062 121.252Z" fill="#4F3D41"/>
<path d="M286.669 163.962L283.338 164.624L285.336 181.699L286.972 181.766L286.669 163.962Z" fill="#3A2D30"/>
<path d="M288.728 163.168L285.639 163.565V165.881L289.335 165.551L288.728 163.168Z" fill="#847276"/>
<path d="M336.341 276.056H345.952C345.952 276.056 337.068 271.82 336.422 272.174C335.776 272.526 336.341 276.056 336.341 276.056Z" fill="#847276"/>
<path d="M283.641 276.056H275.688C275.688 276.056 281.915 271.82 282.49 272.174C283.065 272.526 283.641 276.056 283.641 276.056Z" fill="#847276"/>
<path d="M295.311 92.0641L296.684 96.7417L312.757 92.4168L312.313 90.3439L295.311 92.0641Z" fill="#F2EEDD"/>
<path d="M291.717 95.7705L294.827 92.0201L291.152 90.6968L289.779 92.505L291.717 95.7705Z" fill="#F2EEDD"/>
<path d="M289.415 136.937C289.415 135.987 289.018 135.217 288.527 135.217C288.037 135.217 287.638 135.987 287.638 136.937C287.638 137.887 288.037 138.658 288.527 138.658C289.018 138.658 289.415 137.887 289.415 136.937Z" fill="#DDD5B6"/>
<path d="M289.415 145.1C289.415 144.149 289.018 143.379 288.527 143.379C288.037 143.379 287.638 144.149 287.638 145.1C287.638 146.05 288.037 146.82 288.527 146.82C289.018 146.82 289.415 146.05 289.415 145.1Z" fill="#DDD5B6"/>
<path d="M307.221 123.385L297.815 121.141C297.815 121.141 303.51 117.302 305.205 116.905C306.902 116.509 307.221 123.385 307.221 123.385Z" fill="#DDD5B6"/>
<path d="M294.827 92.3724C293.978 91.4025 292.363 89.5047 292.121 89.8137C291.878 90.1228 288.728 95.1085 289.294 96.0348C289.859 96.9611 294.706 94.6236 294.706 94.6236L294.827 92.3724Z" fill="#5E4E51"/>
<path d="M302.176 91.6229C301.696 90.6531 294.422 92.4613 294.422 92.4613L294.342 94.7117C294.342 94.7117 297.426 98.9142 299.673 98.5945C301.92 98.2747 300.548 95.1572 300.602 95.0306C300.655 94.9024 302.818 92.9183 302.176 91.6229Z" fill="#5E4E51"/>
<path d="M287.233 93.9111C287.321 93.5421 287.416 93.1944 287.519 92.8739C287.417 93.192 287.324 93.5429 287.236 93.9095C287.236 93.9103 287.233 93.9111 287.233 93.9111ZM313.665 92.9273C313.661 92.9257 313.658 92.9248 313.654 92.9224C313.658 92.924 313.661 92.9257 313.665 92.9273ZM289.954 92.7999L289.779 92.5048L289.955 92.7999H289.954ZM312.647 92.4473L312.645 92.4465L312.757 92.4169L312.647 92.4473Z" fill="#B58383"/>
<path d="M291.149 109.677C290.735 109.677 290.333 109.66 289.941 109.625C288.578 109.502 287.37 109.223 286.314 108.813C286.207 103.036 286.396 97.4282 287.233 93.9112C287.233 93.9112 287.236 93.9104 287.236 93.9096C287.973 93.6071 288.725 93.2997 289.481 92.9923L289.938 93.6112C289.42 94.6912 289.073 95.6734 289.295 96.035C289.387 96.1887 289.599 96.252 289.885 96.252C290.727 96.2529 292.226 95.6989 293.329 95.237L294.974 95.5C295.942 96.6391 297.845 98.6109 299.422 98.6118C299.507 98.6118 299.59 98.606 299.673 98.5945C301.22 98.3742 301.052 96.829 300.815 95.8452L313.654 92.9224C313.658 92.9249 313.661 92.9257 313.665 92.9274C313.862 93.012 314.057 93.0967 314.251 93.1813C312.414 94.7307 306.519 99.9293 300.438 107.75C297.099 108.92 293.9 109.677 291.149 109.677ZM289.481 92.9923L289.482 92.9915C289.64 92.9282 289.797 92.8641 289.954 92.8008V92.8H289.955L289.974 92.8337L289.481 92.9923Z" fill="#AC7B72"/>
<path d="M300.814 95.8452C300.797 95.7754 300.78 95.708 300.763 95.6438L312.645 92.4466L312.647 92.4474H312.646L313.654 92.9225L300.814 95.8452ZM294.974 95.5L293.329 95.237C293.766 95.0545 294.14 94.8861 294.388 94.7726C294.474 94.8869 294.681 95.1556 294.974 95.5ZM289.938 93.6112L289.481 92.9923L289.974 92.8337L290.164 93.1543C290.086 93.308 290.01 93.46 289.938 93.6112Z" fill="#9D6E5E"/>
<path d="M319.3 94.9238C319.224 94.8844 319.149 94.8466 319.073 94.8079C319.149 94.8466 319.225 94.8844 319.3 94.9238ZM282.529 93.834C284.963 93.3129 287.019 92.9586 287.44 92.8871C287.019 92.9586 284.964 93.3129 282.529 93.834ZM287.441 92.8871C287.448 92.8855 287.454 92.8846 287.46 92.8838C287.454 92.8846 287.448 92.8855 287.441 92.8871ZM287.462 92.883C287.463 92.883 287.464 92.883 287.466 92.883C287.464 92.883 287.463 92.883 287.462 92.883ZM287.467 92.883C287.473 92.8814 287.48 92.8805 287.485 92.8797C287.48 92.8805 287.473 92.8814 287.467 92.883ZM287.487 92.8789C287.488 92.8789 287.489 92.8789 287.49 92.8789C287.489 92.8789 287.488 92.8789 287.487 92.8789ZM287.495 92.8781C287.496 92.8781 287.497 92.8773 287.499 92.8773C287.497 92.8773 287.496 92.8781 287.495 92.8781ZM287.499 92.8773C287.5 92.8773 287.5 92.8773 287.501 92.8764C287.5 92.8773 287.5 92.8773 287.499 92.8773ZM287.503 92.8764H287.504H287.503ZM287.505 92.8764C287.508 92.8756 287.51 92.8756 287.512 92.8748C287.51 92.8756 287.508 92.8756 287.505 92.8764ZM287.513 92.8748C287.513 92.8748 287.513 92.8748 287.514 92.8748C287.513 92.8748 287.513 92.8748 287.513 92.8748ZM287.514 92.8748H287.515H287.514ZM287.516 92.874H287.517H287.516ZM291.261 90.7362L291.152 90.6967L291.261 90.7353L295.479 78.8076L291.261 90.7362ZM312.011 90.3745L314.436 82.0329L312.012 90.3745H312.011Z" fill="#B58383"/>
<path d="M314.436 82.0327L315.298 79.0639L314.436 82.0327Z" fill="#501610"/>
<path d="M286.314 108.812C280.341 106.489 279.242 99.9629 282.529 93.8338C284.964 93.3128 287.019 92.9585 287.44 92.887H287.441C287.448 92.8854 287.454 92.8845 287.46 92.8837C287.461 92.8837 287.461 92.8837 287.462 92.8829C287.463 92.8829 287.464 92.8829 287.466 92.8829C287.466 92.8829 287.466 92.8829 287.467 92.8829C287.473 92.8812 287.48 92.8804 287.485 92.8796C287.486 92.8788 287.486 92.8788 287.487 92.8788C287.488 92.8788 287.489 92.8788 287.489 92.8788C287.491 92.878 287.493 92.878 287.494 92.878C287.496 92.878 287.497 92.8771 287.499 92.8771H287.499C287.5 92.8771 287.5 92.8771 287.501 92.8763C287.501 92.8763 287.502 92.8763 287.503 92.8763H287.503C287.504 92.8763 287.505 92.8763 287.505 92.8763C287.508 92.8755 287.51 92.8755 287.512 92.8747C287.513 92.8747 287.512 92.8747 287.512 92.8747C287.513 92.8747 287.513 92.8747 287.514 92.8747H287.515C287.515 92.8739 287.515 92.8739 287.516 92.8739H287.517C287.517 92.8739 287.517 92.8739 287.518 92.8739C287.519 92.8739 287.519 92.8739 287.519 92.8739C287.416 93.1944 287.321 93.5421 287.233 93.9111C286.396 97.4281 286.207 103.036 286.314 108.812ZM300.438 107.75C306.519 99.9292 312.413 94.7306 314.251 93.1812C314.251 93.1821 314.251 93.1821 314.251 93.1821C314.624 92.8681 314.836 92.698 314.836 92.698C314.858 92.707 316.936 93.6456 319.073 94.8095L319.073 94.8078C318.361 96.5396 317.742 98.2122 317.213 99.8486C312.233 102.552 306.131 105.753 300.438 107.75Z" fill="#43282A"/>
<path d="M294.82 92.3652C294.775 92.3135 294.728 92.2584 294.677 92.2009L294.827 92.02L294.379 91.8589C293.582 90.9482 292.53 89.7803 292.197 89.7803C292.165 89.7803 292.139 89.791 292.121 89.814C292.06 89.8929 291.81 90.2743 291.48 90.8151L291.261 90.7362L295.481 78.8077L315.987 72.1649C315.987 72.1649 316.332 72.6868 316.898 73.563L315.299 79.0641L314.436 82.0329L312.011 90.3745L301.822 91.406C301.635 91.3584 301.386 91.337 301.093 91.337C300.021 91.337 298.357 91.6173 296.959 91.8975L295.311 92.0644L295.363 92.2403C295.151 92.288 294.968 92.3307 294.82 92.3652Z" fill="#B55F43"/>
<path d="M317.213 99.8486C317.742 98.2122 318.361 96.5396 319.073 94.8078C319.149 94.8464 319.224 94.8842 319.3 94.9237C320.39 95.4801 321.58 96.1138 322.84 96.7993C321.246 97.6385 319.331 98.6988 317.213 99.8486Z" fill="#43282A"/>
<path d="M300.763 95.6436C300.672 95.3033 300.588 95.0633 300.602 95.0304C300.655 94.9022 302.818 92.9181 302.177 91.6227C302.126 91.5225 302.003 91.4509 301.821 91.4057L312.011 90.3742H312.012L312.313 90.3438L312.757 92.4167L312.645 92.4463L300.763 95.6436ZM295.363 92.24L295.311 92.0641L296.959 91.8972C296.354 92.0189 295.798 92.1405 295.363 92.24Z" fill="#AC7B72"/>
<path d="M290.164 93.1543L289.974 92.8338L289.954 92.8001L289.779 92.505L291.152 90.6968L291.26 90.7362L291.48 90.8151C291.092 91.4529 290.594 92.311 290.164 93.1543ZM294.677 92.2009C294.583 92.094 294.483 91.979 294.379 91.859L294.827 92.02L294.677 92.2009Z" fill="#AC7B72"/>
<path d="M289.885 96.252C289.599 96.252 289.387 96.1887 289.294 96.035C289.073 95.6733 289.419 94.6911 289.938 93.6111C290.01 93.4599 290.086 93.3078 290.164 93.1541C290.594 92.3108 291.092 91.4528 291.48 90.8149C291.81 90.2741 292.059 89.8928 292.121 89.8139C292.139 89.7908 292.165 89.7801 292.197 89.7801C292.53 89.7801 293.582 90.9481 294.379 91.8588C294.483 91.9788 294.584 92.0939 294.677 92.2007C294.727 92.2582 294.775 92.3133 294.82 92.3651C294.569 92.4251 294.422 92.4613 294.422 92.4613L294.342 94.7117C294.342 94.7117 294.358 94.733 294.388 94.7725C294.14 94.8859 293.766 95.0544 293.329 95.2369C292.226 95.6988 290.727 96.2528 289.885 96.252Z" fill="#43282A"/>
<path d="M299.422 98.6118C297.845 98.611 295.942 96.6392 294.974 95.5C294.681 95.1556 294.474 94.8869 294.388 94.7726C294.358 94.7332 294.342 94.7118 294.342 94.7118L294.422 92.4614C294.422 92.4614 294.569 92.4252 294.82 92.3652C294.967 92.3307 295.151 92.288 295.363 92.2403C295.798 92.1408 296.354 92.0192 296.959 91.8975C298.357 91.6173 300.02 91.337 301.093 91.337C301.386 91.337 301.635 91.3584 301.821 91.406C302.003 91.4512 302.126 91.5228 302.176 91.623C302.818 92.9184 300.655 94.9025 300.602 95.0307C300.588 95.0636 300.671 95.3036 300.763 95.6439C300.78 95.708 300.797 95.7754 300.814 95.8452C301.052 96.8291 301.22 98.3743 299.673 98.5946C299.59 98.6061 299.507 98.6118 299.422 98.6118Z" fill="#43282A"/>
<path d="M288.204 82.9755C289.308 73.3656 302.406 37.5932 312.867 43.7535C316.99 46.1823 321.744 48.6234 320.5 60.1623C319.255 71.7012 312.304 86.3355 312.304 86.3355C312.304 86.3355 295.002 87.4665 288.204 82.9755Z" fill="#FFB882"/>
<path d="M313.237 76.6953L310.752 75.1583C310.752 75.1583 316.682 49.8136 320.416 49.6386C324.149 49.4627 323.292 63.2315 319.751 69.3704C316.208 75.5093 313.237 76.6953 313.237 76.6953Z" fill="#702C1E"/>
<path d="M314.17 71.6228C316.373 68.7025 320.698 66.8154 320.97 69.9321C321.241 73.0488 313.251 78.3017 312.104 79.1039C310.957 79.9045 312.826 73.4039 314.17 71.6228Z" fill="#FFB882"/>
<path d="M302.159 74.143L296.321 70.5323L291.419 70.2545C288.908 74.7693 287.341 80.8696 287.033 83.5483C289.625 85.2611 296.187 86.2474 300.178 86.1513L302.159 74.143Z" fill="#844535"/>
<path d="M300.126 74.2937L292.303 71.6685C290.357 75.1665 288.671 79.7487 288.432 81.8233C290.44 83.1507 294.844 83.855 297.937 83.7802L300.126 74.2937Z" fill="#FFB882"/>
<path d="M292.65 82.2192L292.583 78.6521L294.695 79.4453L292.65 82.2192Z" fill="#844535"/>
<path d="M293.014 80.5858L293.419 84.3091L290.999 83.4567L293.014 80.5858Z" fill="#844535"/>
<path d="M314.971 71.7849C316.354 69.9521 319.069 68.7669 319.239 70.723C319.41 72.6792 314.395 75.9784 313.675 76.4806C312.955 76.9844 314.128 72.9036 314.971 71.7849Z" fill="#EA7B59"/>
<path d="M313.965 73.8531C314.774 72.4657 316.547 71.3996 316.816 72.7279C317.084 74.0561 313.896 76.7865 313.44 77.1991C312.985 77.6109 313.473 74.6988 313.965 73.8531Z" fill="#FFB882"/>
<path d="M222.884 132.522C222.698 131.845 221.941 131.495 221.193 131.741C220.446 131.986 219.991 132.734 220.177 133.411C220.363 134.087 221.12 134.437 221.868 134.191C222.615 133.945 223.071 133.198 222.884 132.522Z" fill="#B2A887"/>
<path d="M227.73 130.933C227.544 130.256 226.787 129.906 226.04 130.152C225.293 130.398 224.837 131.146 225.024 131.822C225.21 132.499 225.966 132.848 226.714 132.604C227.461 132.358 227.916 131.61 227.73 130.933Z" fill="#B2A887"/>
<path d="M364.141 135.723C364.316 135.044 363.85 134.305 363.099 134.074C362.347 133.842 361.595 134.206 361.42 134.887C361.245 135.566 361.711 136.305 362.463 136.537C363.214 136.768 363.965 136.405 364.141 135.723Z" fill="#B2A887"/>
<path d="M369.01 137.226C369.186 136.545 368.719 135.806 367.968 135.575C367.216 135.344 366.465 135.708 366.289 136.388C366.114 137.068 366.581 137.808 367.332 138.038C368.084 138.269 368.835 137.905 369.01 137.226Z" fill="#B2A887"/>
<path d="M297.925 57.1777C298.493 55.8092 299.521 54.9988 300.218 55.3695C300.912 55.7369 301.012 57.1498 300.44 58.5183C299.869 59.8835 298.843 60.6955 298.151 60.3265C297.451 59.9574 297.35 58.5479 297.925 57.1777Z" fill="#4F3131"/>
<path d="M303.787 57.492C303.224 56.4843 294.78 66.7674 294.361 68.32C294.15 69.0909 298.535 70.563 298.535 70.563C298.535 70.563 303.893 57.6737 303.787 57.492Z" fill="#FFB882"/>
<path d="M303.228 57.703C301.041 59.7471 294.971 66.92 294.631 68.2219C294.477 68.8104 297.104 69.8411 298.274 70.2323C298.159 70.4995 298.097 70.6548 298.097 70.6548C298.097 70.6548 293.4 69.3134 293.618 68.5605C294.041 67.1074 302.122 57.7515 303.228 57.703Z" fill="#EA7B59"/>
<path d="M306.256 59.8561C306.832 58.486 307.858 57.6788 308.553 58.0479C309.254 58.4128 309.352 59.8249 308.781 61.1909C308.211 62.561 307.182 63.3723 306.482 63.0057C305.786 62.635 305.687 61.2238 306.256 59.8561Z" fill="#4F3131"/>
<path d="M306.007 56.6392C306.987 58.523 312.63 59.9384 313.262 59.2619C313.896 58.5855 314.299 57.8055 313.219 56.9564C312.14 56.1074 307.162 53.2184 306.276 53.6227C305.389 54.0263 305.557 55.7704 306.007 56.6392Z" fill="#7C4431"/>
<path d="M302.429 55.1369C301.137 56.2136 297.223 54.061 297.096 53.0846C296.972 52.1032 297.024 51.1679 297.987 51.0692C298.955 50.9706 303.021 51.4186 303.402 52.3103C303.78 53.2005 303.026 54.6429 302.429 55.1369Z" fill="#7C4431"/>
<path d="M293.379 76.7632C293.451 76.5216 293.983 76.4912 294.567 76.6966C295.151 76.9013 295.567 77.2629 295.495 77.5054C295.423 77.7471 294.89 77.7767 294.307 77.572C293.722 77.3673 293.307 77.0049 293.379 76.7632Z" fill="#EA7B59"/>
<path d="M292.708 74.2019C294.359 74.543 297.539 75.8655 298.839 77.0088C298.802 76.9143 298.772 76.8124 298.728 76.7285C298.121 75.5499 293.874 73.8058 292.122 73.5461C292.033 73.5329 291.941 73.5378 291.847 73.5485L292.708 74.2019Z" fill="#EA7B59"/>
<path d="M302.661 42.9775C300.48 42.514 298.724 37.22 301.267 35.1677C303.812 33.1162 305.993 33.2485 305.993 33.2485C305.993 33.2485 302.48 35.4989 304.72 37.4181C306.962 39.3373 302.661 42.9775 302.661 42.9775Z" fill="#844535"/>
<path d="M311.081 40.5947C306.559 39.6471 307.79 31.2627 312.676 30.3799C312.676 30.3799 309.456 32.9131 312.068 34.884C314.679 36.855 311.081 40.5947 311.081 40.5947Z" fill="#844535"/>
<path d="M313.797 38.125C311.73 37.2883 312.542 31.105 315.466 29.259C318.39 27.4121 320.523 27.8896 320.523 27.8896C320.523 27.8896 316.108 30.9899 317.41 33.8075C318.711 36.6258 313.797 38.125 313.797 38.125Z" fill="#844535"/>
<path d="M321.808 40.8199C319.728 40.021 318.186 34.5873 320.887 32.4807C324.363 29.7725 327.748 30.6437 327.748 30.6437C327.748 30.6437 321.681 33.2484 325.539 39.2969C327.091 41.7339 321.808 40.8199 321.808 40.8199Z" fill="#844535"/>
<path d="M324.992 41.3914C323.433 40.886 322.237 37.3394 324.237 35.938C326.808 34.1347 329.342 34.6764 329.342 34.6764C329.342 34.6764 324.836 36.4344 327.764 40.3624C328.943 41.9454 324.992 41.3914 324.992 41.3914Z" fill="#844535"/>
<path d="M194.107 87.8965L230.434 90.8916C230.434 90.8916 233.004 66.8472 224.991 52.9707C216.678 38.5798 200.905 38.5715 196.045 42.1806C178.854 54.9458 194.107 87.8965 194.107 87.8965Z" fill="#AF334B"/>
<path d="M208.914 60.7674C216.05 55.6494 217.903 52.148 219.112 46.4562C221.353 48.0499 223.377 50.1754 224.991 52.9707C233.005 66.8472 230.434 90.8916 230.434 90.8916L194.107 87.8965C194.107 87.8965 191.91 78.0401 191.117 67.3691C196.218 67.4406 202.736 65.1992 208.914 60.7674Z" fill="#992541"/>
<path d="M223.294 90.3022L194.303 87.9129C196.599 77.0093 199.419 67.7422 206.466 68.5773C213.273 69.3852 222.161 79.4874 223.294 90.3022Z" fill="#7C1E39"/>
<path d="M194.263 92.0821C186.978 97.6004 176.783 114.95 175.976 116.427C175.168 117.904 177.38 121.594 179.936 121.112C182.492 120.631 193.947 104.724 197.041 100.811C200.448 96.4991 199.168 88.3662 194.263 92.0821Z" fill="#F2EDB6"/>
<path d="M175.976 116.428C176.167 116.078 176.892 114.827 177.976 113.059C178.049 113.452 178.194 113.748 178.437 113.91C180.139 115.049 185.527 109.684 190.472 101.927C192.985 97.983 194.896 94.1841 195.948 91.249C199.635 90.4674 200.997 97.697 198.008 101.477C194.915 105.39 182.761 121.519 180.205 122C177.649 122.482 175.168 117.905 175.976 116.428Z" fill="#E5DC98"/>
<path d="M211.256 274.415H210.03L210.39 174.995L221.736 170.62L211.256 274.415Z" fill="#FFB882"/>
<path d="M210.718 245.453C210.519 245.453 210.325 245.506 210.135 245.6L210.39 174.994L221.736 170.619L213.789 249.322C212.866 246.885 211.805 245.453 210.718 245.453Z" fill="#FF9566"/>
<path d="M206.846 274.415H205.622L194.135 171.968L204.958 167.46L206.846 274.415Z" fill="#FFB882"/>
<path d="M201.906 241.27L194.135 171.968L204.958 167.46L206.429 250.735C205.02 246.542 203.45 243.243 201.906 241.27Z" fill="#FF9566"/>
<path d="M219.459 230.644L194.815 226.694C194.815 226.694 180.509 172.885 192.272 134.627L211.462 130.43C211.462 130.43 225.416 149.436 226.537 159.557C227.66 169.676 219.459 230.644 219.459 230.644Z" fill="#634B52"/>
<path d="M218.068 200.654C216.995 172.64 209.235 145.611 199.427 145.611C195.99 145.611 191.046 146.233 188.655 152.244C189.385 146.183 190.547 140.237 192.272 134.627L211.462 130.43C211.462 130.43 225.416 149.436 226.537 159.557C227.66 169.676 219.459 230.644 219.459 230.644L215.896 230.072C217.652 221.774 218.487 211.624 218.068 200.654Z" fill="#513A41"/>
<path d="M214.181 133.227C214.181 133.227 207.248 139.81 200.038 143.43L195.723 137.342L193.387 144.582L189.204 141.949C189.204 141.949 196.996 119.405 189.276 109.696L213.079 105.501C213.079 105.501 205.704 117.595 214.181 133.227Z" fill="#F2EDB6"/>
<path d="M205.522 140.147C203.758 133.038 200.612 124.854 197.359 125.014C194.373 125.162 191.391 134.983 190.23 142.595L189.204 141.95C189.204 141.95 196.996 119.405 189.276 109.697L213.079 105.501C213.079 105.501 205.704 117.595 214.181 133.227C214.181 133.227 210.4 136.813 205.522 140.147Z" fill="#E5DC98"/>
<path d="M220.401 91.1691C219.061 98.3272 211.533 113.112 206.752 116.197C201.972 119.282 188.233 117.637 187.06 115.786C185.886 113.935 186.782 97.0853 195.143 91.5316C203.503 85.9779 220.911 88.4535 220.401 91.1691Z" fill="#F2EDB6"/>
<path d="M200.35 105.687L209.047 105.748L205.011 112.289L196.749 112.412L200.35 105.687Z" fill="#E5DC98"/>
<path d="M204.518 103.039L207.772 103.062L206.262 105.51L203.171 105.555L204.518 103.039Z" fill="#E5DC98"/>
<path d="M204.524 102.982L206.647 102.998L205.662 104.594L203.646 104.625L204.524 102.982Z" fill="#FFF9D9"/>
<path d="M200.138 104.945L208.835 105.007L204.799 111.548L196.537 111.672L200.138 104.945Z" fill="#FFF9D9"/>
<path d="M204.72 105.498L207.732 105.519L205.589 109.119L202.728 109.162L204.72 105.498Z" fill="#E5DEBE"/>
<path d="M200.645 105.729L204.149 105.746L203.842 106.022L200.445 106.051L200.645 105.729Z" fill="#E5DEBE"/>
<path d="M200.146 106.551L203.65 106.568L203.343 106.845L199.946 106.874L200.146 106.551Z" fill="#E5DEBE"/>
<path d="M199.731 107.457L203.235 107.472L202.929 107.749L199.532 107.779L199.731 107.457Z" fill="#E5DEBE"/>
<path d="M203.905 114.304C208.686 111.219 217.821 88.5931 220.511 91.6778C219.17 98.8358 212.68 114.263 207.9 117.349C203.118 120.434 188.233 117.637 187.06 115.785C186.972 115.647 186.897 115.412 186.835 115.115C191.814 116.487 200.397 116.568 203.905 114.304Z" fill="#E5DC98"/>
<path d="M220.993 91.414C217.485 86.0666 212.452 93.6382 214.326 99.0061C216.026 103.876 222.463 123.734 224.766 125.133C227.069 126.531 229.986 122.017 229.69 120.31C229.394 118.604 226.205 99.3571 220.993 91.414Z" fill="#F2EDB6"/>
<path d="M214.397 97.9614C217.826 107.759 222.947 115.687 225.532 116.449C228.116 117.211 227.432 109.886 224.003 100.089C222.745 96.4951 221.293 93.0726 219.831 90.1359C220.229 90.4301 220.62 90.8452 220.993 91.414C226.205 99.357 230.357 119.661 230.652 121.368C230.949 123.074 227.069 126.531 224.766 125.133C222.463 123.734 215.78 104.509 214.08 99.6381C213.678 98.4866 213.595 97.2323 213.746 96.0266C213.952 96.6594 214.167 97.3038 214.397 97.9614Z" fill="#E5DC98"/>
<path d="M220.705 123.421C220.705 123.421 226.006 130.719 231.194 128.206C233.273 127.2 232.488 119.525 230.2 118.126C227.914 116.727 220.723 119.612 219.988 121.805C219.773 122.443 220.705 123.421 220.705 123.421Z" fill="#C19B81"/>
<path d="M220.331 121.223C221.607 122.796 223.831 123.849 226.332 123.849C228.736 123.849 230.815 122.879 232 121.407C232.679 124.132 232.536 127.557 231.194 128.206C226.006 130.719 220.705 123.421 220.705 123.421C220.705 123.421 219.773 122.443 219.988 121.805C220.051 121.616 220.178 121.42 220.331 121.223Z" fill="#A3795D"/>
<path d="M229.294 125.038C229.517 129.152 215.784 149.542 215.784 149.542L214.286 149.251C214.286 149.251 220.139 127.877 221.808 125.385C223.476 122.894 228.904 117.898 229.294 125.038Z" fill="#FFB882"/>
<path d="M226.095 124.504C225.919 123.331 225.618 122.525 225.233 121.996C227.401 120.534 229.722 120.234 229.958 124.552C230.183 128.666 215.784 149.542 215.784 149.542L215.417 149.47C217.984 144.823 226.62 128.002 226.095 124.504Z" fill="#FF9566"/>
<path d="M178.571 110.795C178.571 110.795 180.462 111.475 180.652 112.468C181.235 115.518 182.235 121.583 181.152 122.47C179.149 124.112 171.665 121.196 170.913 118.935C170.162 116.675 178.571 110.795 178.571 110.795Z" fill="#C19B81"/>
<path d="M171.276 117.943C173.096 119.458 176.586 118.197 179.07 115.126C179.752 114.285 180.28 113.395 180.661 112.514C181.245 115.58 182.229 121.588 181.152 122.47C179.149 124.112 171.665 121.196 170.914 118.935C170.807 118.615 170.899 118.218 171.11 117.778L171.276 117.943Z" fill="#A3795D"/>
<path d="M172.595 117.335C170.095 114.148 168.145 86.6177 168.145 86.6177L169.282 86.1542C169.282 86.1542 179.097 109.722 179.246 112.571C179.397 115.419 176.934 122.868 172.595 117.335Z" fill="#FFB882"/>
<path d="M172.096 113.736C175.706 119.343 177.453 111.967 177.252 109.124C177.142 107.558 174.274 99.729 172.047 92.9013C174.816 100.158 179.148 110.72 179.246 112.571C179.397 115.419 176.935 122.868 172.595 117.335C170.933 115.216 169.513 102.332 168.75 93.9378C169.622 102 170.9 111.879 172.096 113.736Z" fill="#FF9566"/>
<path d="M214.944 88.9805C213.097 91.3033 203.173 103.499 195.044 107.845C195.044 107.845 192.018 98.2247 199.627 89.5214C204.589 88.0633 210.635 88.189 214.944 88.9805Z" fill="#FFB882"/>
<path d="M211.717 89.0864C211.702 88.7165 212.019 71.4431 212.019 71.4431L204.376 73.2891L201.952 89.9502L211.717 89.0864Z" fill="#FFB882"/>
<path d="M209.167 275.32H217.495C217.495 275.32 211.201 270.017 210.381 270.63C209.56 271.244 208.748 272.729 209.167 275.32Z" fill="#F2EDB6"/>
<path d="M207.371 275.32H194.96C194.96 275.32 204.316 270.182 205.728 270.795C207.14 271.408 207.798 272.729 207.371 275.32Z" fill="#F2EDB6"/>
<path d="M197.24 92.8164C193.513 100.094 195.615 106.796 195.615 106.796C202.911 102.896 211.649 92.6759 214.699 88.9427C214.779 88.9567 214.865 88.9666 214.944 88.9805C213.097 91.3033 203.173 103.499 195.043 107.845C195.043 107.845 192.73 100.486 197.24 92.8164Z" fill="#FF9566"/>
<path d="M197.518 102.107L196.473 106.796L195.215 107.538L194.892 105.987L197.518 102.107Z" fill="#FF9566"/>
<path d="M214.538 148.34C213.883 149.884 212.595 151.22 212.486 151.869C212.289 153.031 213.667 152.823 214.027 153.268C214.19 153.471 214.419 153.617 214.68 153.679C215.924 153.981 217.391 154.003 217.678 153.46C217.678 153.46 215.333 150.62 215.861 149.184C216.39 147.749 215.297 146.551 214.538 148.34Z" fill="#FFB882"/>
<path d="M168.436 89.8013C168.291 88.2873 167.718 87.2961 167.3 87.1917C166.881 87.0873 165.09 87.2673 164.637 86.9278C164.183 86.5884 165.118 84.9996 166.274 84.7637C167.43 84.5287 167.822 84.9059 168.828 84.7752C169.833 84.6454 169.711 86.6615 169.865 87.6051C170.02 88.5487 168.436 89.8013 168.436 89.8013Z" fill="#FFB882"/>
<path d="M164.853 87.0293C163.631 86.7745 161.385 84.9211 161.288 84.4246C161.191 83.929 164.227 86.0964 164.85 86.1219C165.472 86.1482 164.853 87.0293 164.853 87.0293Z" fill="#FFB882"/>
<path d="M165.49 86.0479C164.287 85.7035 162.176 83.6931 162.116 83.1925C162.056 82.692 164.933 85.0722 165.554 85.1446C166.175 85.2169 165.49 86.0479 165.49 86.0479Z" fill="#FFB882"/>
<path d="M166.86 85.5708C165.683 85.1352 163.725 82.9735 163.704 82.4713C163.681 81.9692 166.377 84.5582 166.992 84.6782C167.608 84.7982 166.86 85.5708 166.86 85.5708Z" fill="#FFB882"/>
<path d="M169.706 86.7217C169.696 84.9381 169.113 83.7233 168.756 83.3198C168.399 82.9154 168.001 81.9784 167.69 82.137C167.379 82.2956 168.033 83.4628 168.144 83.7948C168.255 84.1261 167.714 85.0063 167.885 85.2299C168.328 85.8061 169.706 86.7217 169.706 86.7217Z" fill="#FFB882"/>
<path d="M191.6 94.4658C192.507 93.5461 193.394 92.7431 194.241 92.0987C193.394 92.7431 192.507 93.5469 191.6 94.4658ZM194.242 92.0979C194.249 92.093 194.256 92.0872 194.263 92.0823C194.256 92.0872 194.249 92.093 194.242 92.0979ZM194.263 92.0823C194.322 92.0379 194.379 91.996 194.436 91.9549C194.379 91.996 194.321 92.0379 194.263 92.0823ZM221.077 91.5431C221.075 91.5406 221.074 91.5373 221.071 91.5349C221.074 91.5373 221.075 91.5406 221.077 91.5431ZM221.066 91.5258C221.041 91.4888 221.018 91.451 220.993 91.414C221.018 91.451 221.041 91.4888 221.066 91.5258Z" fill="#B58383"/>
<path d="M211.725 88.2852C211.772 84.9597 212.001 72.4501 212.019 71.5007C212.001 72.4501 211.772 84.9695 211.725 88.2852ZM212.019 71.4966V71.4958C212.019 71.4966 212.019 71.4966 212.019 71.4966ZM212.019 71.4925C212.019 71.4851 212.018 71.4777 212.019 71.4712C212.018 71.4777 212.019 71.4851 212.019 71.4925ZM212.019 71.4712C212.019 71.4687 212.019 71.4662 212.019 71.4638C212.019 71.4662 212.019 71.4687 212.019 71.4712ZM212.019 71.4621C212.019 71.4605 212.019 71.4588 212.019 71.4572C212.019 71.4588 212.019 71.4605 212.019 71.4621ZM212.019 71.4555C212.019 71.4514 212.019 71.449 212.019 71.4473C212.019 71.449 212.019 71.4514 212.019 71.4555ZM212.019 71.4465C212.019 71.4457 212.019 71.4449 212.019 71.4449C212.019 71.4449 212.019 71.4457 212.019 71.4465Z" fill="#58101D"/>
<path d="M191.735 94.8823C191.688 94.7442 191.643 94.6062 191.6 94.4656C192.507 93.5467 193.394 92.7429 194.241 92.0985C194.241 92.0985 194.242 92.0985 194.242 92.0977C194.249 92.0927 194.256 92.087 194.263 92.082C194.321 92.0377 194.379 91.9958 194.436 91.9547C194.701 91.7664 194.955 91.6152 195.198 91.4944C195.18 91.5067 195.161 91.519 195.143 91.5314C193.83 92.4034 192.701 93.5541 191.735 94.8823Z" fill="#AC7A5E"/>
<path d="M203.301 102.785C202.883 102.785 202.475 102.77 202.076 102.738C208.096 97.4443 213.614 90.6528 214.944 88.9802C213.95 88.7977 212.864 88.6506 211.721 88.5503C211.723 88.4698 211.724 88.381 211.725 88.2848C211.725 88.2857 211.725 88.2873 211.725 88.2881C214.667 88.4813 217.213 88.9868 218.775 89.6353C218.62 89.6032 218.464 89.5876 218.31 89.5876C216.009 89.5876 213.898 93.0725 213.921 96.5599C213.862 96.3808 213.804 96.2032 213.746 96.0265C213.62 97.0383 213.658 98.0838 213.91 99.0742C213.73 99.3857 213.549 99.7013 213.367 100.02C210.086 101.777 206.626 102.785 203.301 102.785ZM194.74 99.6512C193.391 98.3764 192.375 96.7588 191.735 94.8824C192.701 93.5542 193.83 92.4035 195.143 91.5314C195.161 91.5191 195.18 91.5068 195.198 91.4944C195.206 91.4912 195.214 91.4871 195.222 91.4829C197.154 90.2188 199.559 89.3796 202.11 88.8659L202.1 88.9358C201.256 89.092 200.427 89.2859 199.627 89.521C198.674 90.6117 197.887 91.718 197.24 92.8177C197.24 92.8169 197.24 92.8169 197.241 92.8161C196.83 93.5155 196.475 94.2109 196.17 94.8996C196.17 94.8996 196.17 94.9005 196.17 94.9005C196.166 94.9087 196.162 94.9169 196.159 94.926C196.158 94.9268 196.157 94.9292 196.156 94.9309C196.151 94.9449 196.145 94.9572 196.139 94.9712C196.137 94.9769 196.134 94.9827 196.132 94.9876C196.127 94.9975 196.123 95.009 196.118 95.0188C196.116 95.0238 196.114 95.0287 196.112 95.0336C196.108 95.0427 196.103 95.0533 196.099 95.0632C196.096 95.0698 196.093 95.0755 196.091 95.0821C196.088 95.0879 196.086 95.0945 196.083 95.1002C196.078 95.1101 196.074 95.1199 196.07 95.1298C196.068 95.1355 196.066 95.1405 196.064 95.1454C196.059 95.1544 196.056 95.1635 196.052 95.1725C196.05 95.1783 196.047 95.1832 196.045 95.189C196.041 95.198 196.037 95.2062 196.034 95.2153C196.032 95.2194 196.03 95.2243 196.028 95.2284C196.024 95.2383 196.019 95.2506 196.015 95.2613C196.013 95.2654 196.011 95.2695 196.009 95.2736C196.004 95.286 195.999 95.2975 195.995 95.3098C195.994 95.3114 195.992 95.3139 195.991 95.3164C195.986 95.3295 195.981 95.3427 195.976 95.3558C195.975 95.3566 195.975 95.3575 195.974 95.3591C195.968 95.3723 195.962 95.3862 195.958 95.3994C195.957 95.4002 195.957 95.4002 195.957 95.401C195.951 95.415 195.945 95.4282 195.939 95.4421C195.939 95.4438 195.939 95.4446 195.938 95.4462C195.343 96.9076 194.965 98.3262 194.74 99.6512Z" fill="#AC7A5E"/>
<path d="M213.366 100.021C213.549 99.7016 213.73 99.386 213.91 99.0745C213.957 99.2611 214.013 99.4452 214.076 99.6268C213.841 99.7624 213.604 99.8939 213.366 100.021Z" fill="#A3714E"/>
<path d="M214.834 99.1772C214.686 98.7753 214.54 98.3701 214.397 97.9616C214.232 97.4882 214.073 97.0214 213.921 96.5603C213.898 93.0729 216.009 89.5879 218.31 89.5879C218.464 89.5879 218.619 89.6035 218.775 89.6356C218.785 89.6397 218.795 89.6438 218.805 89.6487C219.149 89.7252 219.492 89.8838 219.831 90.1361C220.391 91.2613 220.95 92.4581 221.497 93.7082C219.489 95.8509 217.225 97.7093 214.834 99.1772Z" fill="#AC7A5E"/>
<path d="M214.076 99.6265C214.013 99.4448 213.957 99.2607 213.91 99.0741C213.657 98.0837 213.62 97.0382 213.746 96.0265C213.804 96.2032 213.862 96.3807 213.921 96.5599C214.073 97.021 214.232 97.4878 214.397 97.9613C214.54 98.3697 214.686 98.775 214.834 99.1769C214.583 99.3314 214.331 99.481 214.076 99.6265ZM221.497 93.7078C220.95 92.4577 220.391 91.261 219.831 90.1358C219.924 90.2048 220.017 90.2813 220.109 90.3643L220.157 90.4087C220.236 90.4818 220.316 90.5599 220.396 90.6454L220.518 90.7867L220.69 90.9922C220.793 91.1229 220.894 91.2626 220.993 91.4139C221.018 91.4508 221.042 91.4887 221.066 91.5256C221.068 91.5289 221.07 91.5314 221.071 91.5347C221.074 91.5371 221.075 91.5404 221.077 91.5429C221.393 92.0344 221.705 92.5728 222.012 93.1465C221.842 93.3355 221.67 93.5229 221.497 93.7078Z" fill="#A3714E"/>
<path d="M201.493 102.681C198.954 102.38 196.807 101.438 195.127 99.9987C195.342 97.8527 195.933 95.3697 197.239 92.8176C197.886 91.7179 198.674 90.6116 199.627 89.5209C200.427 89.2858 201.255 89.0919 202.099 88.9357L201.952 89.9499L211.717 89.0861C211.715 89.0508 211.717 88.8625 211.721 88.5502C212.864 88.6505 213.95 88.7976 214.944 88.9801C214.866 88.9661 214.779 88.9562 214.7 88.9423C212.445 91.7023 207.083 98.0048 201.493 102.681ZM194.74 99.6511C194.965 98.3261 195.342 96.9075 195.938 95.4461C195.342 96.9075 194.965 98.327 194.74 99.6511ZM195.939 95.442C195.945 95.428 195.951 95.4149 195.956 95.4009C195.951 95.4141 195.945 95.4289 195.939 95.442ZM195.957 95.3993C195.962 95.3861 195.968 95.3722 195.974 95.359C195.968 95.3722 195.962 95.3861 195.957 95.3993ZM195.975 95.3557C195.98 95.3426 195.986 95.3294 195.991 95.3163C195.986 95.3294 195.98 95.3426 195.975 95.3557ZM195.994 95.3097C195.999 95.2974 196.004 95.2858 196.009 95.2735C196.004 95.2858 195.999 95.2974 195.994 95.3097ZM196.015 95.2612C196.019 95.2505 196.024 95.2382 196.028 95.2283C196.024 95.239 196.019 95.2497 196.015 95.2612ZM196.034 95.2152C196.037 95.2061 196.041 95.1979 196.044 95.1889C196.041 95.1979 196.037 95.2069 196.034 95.2152ZM196.052 95.1724C196.056 95.1634 196.059 95.1543 196.063 95.1453C196.06 95.1543 196.056 95.1634 196.052 95.1724ZM196.07 95.1297C196.074 95.1198 196.078 95.11 196.083 95.1001C196.078 95.11 196.074 95.1198 196.07 95.1297ZM196.09 95.082C196.093 95.0754 196.096 95.0697 196.099 95.0631C196.096 95.0697 196.093 95.0754 196.09 95.082ZM196.112 95.0335C196.113 95.0286 196.116 95.0237 196.118 95.0187C196.116 95.0237 196.113 95.0278 196.112 95.0335ZM196.132 94.9875C196.134 94.9826 196.136 94.9768 196.139 94.9711C196.136 94.9768 196.134 94.9817 196.132 94.9875ZM196.156 94.9308C196.157 94.9291 196.158 94.9267 196.159 94.9259C196.158 94.9267 196.157 94.9291 196.156 94.9308ZM196.169 94.9004C196.17 94.9004 196.17 94.8995 196.17 94.8995C196.17 94.8995 196.17 94.9004 196.169 94.9004Z" fill="#B55F43"/>
<path d="M201.952 89.9502L202.1 88.936L202.109 88.8661C202.109 88.8661 202.109 88.8661 202.11 88.8661L204.376 73.2891L212.019 71.4431V71.4439V71.4447C212.019 71.4447 212.019 71.4455 212.019 71.4463C212.019 71.4463 212.019 71.4463 212.019 71.4472C212.019 71.4488 212.019 71.4513 212.019 71.4554C212.019 71.4562 212.019 71.4562 212.019 71.457C212.019 71.4587 212.019 71.4603 212.019 71.462C212.019 71.4628 212.019 71.4628 212.019 71.4636C212.019 71.4661 212.019 71.4685 212.019 71.471C212.019 71.4776 212.019 71.485 212.019 71.4924C212.019 71.494 212.019 71.4948 212.019 71.4956V71.4965C212.019 71.4981 212.019 71.4989 212.019 71.5006C212.001 72.4499 211.772 84.9595 211.725 88.285C211.723 88.3812 211.723 88.4699 211.721 88.5505C211.717 88.8628 211.715 89.051 211.717 89.0864L201.952 89.9502Z" fill="#B55F43"/>
<path d="M202.076 102.738C201.879 102.723 201.685 102.704 201.493 102.681C207.083 98.0049 212.445 91.7024 214.7 88.9424C214.779 88.9563 214.866 88.9662 214.944 88.9802C213.614 90.6528 208.095 97.4443 202.076 102.738ZM195.127 99.9988C194.995 99.8862 194.867 99.7703 194.74 99.6511C194.965 98.327 195.342 96.9076 195.938 95.4462C195.938 95.4446 195.939 95.4437 195.939 95.4421C195.945 95.429 195.951 95.4142 195.956 95.401C195.956 95.4002 195.956 95.4002 195.957 95.3994C195.962 95.3862 195.968 95.3722 195.974 95.3591C195.975 95.3574 195.975 95.3566 195.975 95.3558C195.98 95.3426 195.986 95.3295 195.991 95.3163C195.992 95.3139 195.993 95.3114 195.994 95.3098C195.999 95.2974 196.004 95.2859 196.009 95.2736C196.011 95.2695 196.012 95.2654 196.015 95.2613C196.019 95.2498 196.024 95.2391 196.028 95.2284C196.03 95.2243 196.032 95.2194 196.034 95.2153C196.037 95.207 196.041 95.198 196.044 95.1889C196.047 95.1832 196.049 95.1783 196.052 95.1725C196.056 95.1635 196.06 95.1544 196.063 95.1454C196.066 95.1405 196.067 95.1355 196.07 95.1298C196.074 95.1199 196.078 95.1101 196.083 95.1002C196.085 95.0944 196.088 95.0878 196.09 95.0821C196.093 95.0755 196.096 95.0698 196.099 95.0632C196.103 95.0533 196.108 95.0427 196.112 95.0336C196.113 95.0279 196.116 95.0238 196.118 95.0188C196.122 95.009 196.127 94.9974 196.132 94.9876C196.134 94.9818 196.136 94.9769 196.139 94.9711C196.145 94.9572 196.15 94.9448 196.156 94.9309C196.157 94.9292 196.158 94.9268 196.159 94.9259C196.162 94.9169 196.166 94.9087 196.169 94.9005C196.17 94.9005 196.17 94.8996 196.17 94.8996C196.475 94.2109 196.829 93.5155 197.24 92.8161C197.239 92.8169 197.239 92.8169 197.239 92.8177C195.933 95.3698 195.342 97.8528 195.127 99.9988Z" fill="#B54D35"/>
<path d="M213.641 68.8125C213.3 74.1821 209.418 82.9339 198.039 85.9717C198.039 85.9717 190.873 78.0928 190.558 68.8092C190.294 61.0281 193.998 48.8867 199.113 47.833C204.273 46.7702 214.639 53.0916 213.641 68.8125Z" fill="#FFB882"/>
<path d="M210.242 75.9966C217.713 70.9903 222.288 61.1683 216.858 52.8596C211.428 44.55 203.753 47.2286 201.356 47.8459C200.962 48.6941 210.343 66.5486 210.242 75.9966Z" fill="#992541"/>
<path d="M210.468 72.4451C211.746 69.6974 215.034 65.2903 216.634 69.0909C218.231 72.8857 210.918 78.1944 210.198 77.1605C209.477 76.1265 209.938 73.5835 210.468 72.4451Z" fill="#FFB882"/>
<path d="M211.325 72.8752C212.136 71.1327 214.22 68.3472 215.232 70.7522C216.245 73.1546 211.609 76.5261 211.151 75.8694C210.694 75.2119 210.987 73.5976 211.325 72.8752Z" fill="#EA7B59"/>
<path d="M210.924 74.1462C211.497 72.9199 212.962 70.9621 213.675 72.6552C214.388 74.3467 211.126 76.7196 210.803 76.256C210.48 75.7925 210.687 74.6549 210.924 74.1462Z" fill="#FFB882"/>
<path d="M201.271 43.5366C202.557 41.6051 208.182 42.81 212.011 45.6892C215.85 48.5766 218.361 51.1533 217.037 53.0807C215.719 55.0007 209.36 57.4525 205.564 54.5791C201.777 51.7139 199.992 45.4615 201.271 43.5366Z" fill="#AF334B"/>
<path d="M201.924 76.2675L195.429 75.7144C195.429 75.7144 196.876 80.7684 198.854 80.7519C200.837 80.7355 201.924 76.2675 201.924 76.2675Z" fill="#562D34"/>
<path d="M201.669 76.4197L196.201 75.9537C196.201 75.9537 197.42 80.2088 199.086 80.1948C200.755 80.18 201.669 76.4197 201.669 76.4197Z" fill="#FFF7E1"/>
<path d="M198.015 69.5205L198.044 69.7506C197.429 70.4517 196.557 71.5178 196.617 71.8646C196.695 72.3142 197.297 73.0539 198.504 73.4509L198.514 73.5249C196.822 73.2307 195.995 72.4811 195.903 71.9517C195.812 71.4208 198.015 69.5205 198.015 69.5205Z" fill="#EA7B59"/>
<path d="M202.786 65.4129C202.061 65.3554 201.398 65.5872 200.914 66.0047C201.265 65.1072 202.086 64.5138 203.03 64.5877C204.263 64.6839 205.228 65.8765 205.184 67.2491L205.183 67.2598C204.852 66.2702 203.918 65.5025 202.786 65.4129Z" fill="#562D34"/>
<path d="M202.15 61.858C200.723 61.7413 199.418 62.1128 198.463 62.8032C199.159 61.3007 200.778 60.321 202.637 60.4714C205.068 60.6679 206.967 62.7103 206.869 65.029L206.867 65.0454C206.222 63.3638 204.383 62.0413 202.15 61.858Z" fill="#AF334B"/>
<path d="M192.678 62.6011C191.815 63.363 191.283 64.3534 191.116 65.3364C190.703 64.0074 191.088 62.4613 192.209 61.4676C193.676 60.1682 195.835 60.3088 197.027 61.7849L197.034 61.7972C195.768 61.1438 194.028 61.4077 192.678 62.6011Z" fill="#AF334B"/>
<path d="M193.487 64.7289C192.846 65.0322 192.389 65.5631 192.166 66.1738C192.061 65.1974 192.49 64.2645 193.322 63.8708C194.41 63.3555 195.767 63.953 196.349 65.2073L196.354 65.2163C195.626 64.4889 194.488 64.2563 193.487 64.7289Z" fill="#562D34"/>
<path d="M192.612 66.3727C192.647 65.0116 193.369 63.9612 194.226 64.0286C195.085 64.096 195.752 65.2573 195.715 66.6217C195.678 67.9836 194.954 69.0299 194.098 68.9601C193.243 68.8902 192.578 67.733 192.612 66.3727Z" fill="#562D34"/>
<path d="M201.235 67.3925C201.276 66.024 202.012 64.9678 202.88 65.0369C203.748 65.1051 204.418 66.273 204.375 67.644C204.333 69.0141 203.594 70.0654 202.728 69.9947C201.863 69.9232 201.195 68.7593 201.235 67.3925Z" fill="#562D34"/>
<path d="M226.078 92.4571C221.673 98.0618 214.072 121.443 214.072 121.443L219.412 123.133C219.412 123.133 229.687 98.947 233.618 87.9284C235.153 83.6248 229.454 88.1593 226.078 92.4571Z" fill="#EAE5D0"/>
<path d="M217.262 120.692C217.262 120.692 228.767 90.3181 233.618 87.928C229.687 98.9466 219.594 123.621 219.594 123.621L214.072 121.443C214.072 121.443 214.159 121.176 214.311 120.717L217.262 120.692Z" fill="#E2D8AF"/>
<path d="M221.103 121.318C221.596 125.094 216.917 127.488 214.341 125.238C212.085 123.265 212.806 117.673 214.485 116.414C214.584 116.339 220.765 118.733 221.103 121.318Z" fill="#BF5286"/>
<path d="M213.559 121.506C215.638 123.323 219.084 122.112 220.077 119.593C220.63 120.139 221.025 120.723 221.103 121.318C221.595 125.094 216.917 127.488 214.341 125.238C213.25 124.284 212.861 122.486 212.933 120.739C213.11 121.028 213.314 121.292 213.559 121.506Z" fill="#AA3C76"/>
<path d="M253.562 165.617C253.562 165.617 241.328 272.94 240.911 274.029H238.858L229.277 146.618L253.562 165.617Z" fill="#FFB882"/>
<path d="M231.956 182.229L229.278 146.618L253.563 165.617C253.563 165.617 252.118 178.291 250.204 194.972L231.956 182.229Z" fill="#FF9566"/>
<path d="M237.219 176.22L241.043 183.397L240.061 275.646L239.853 275.728L237.219 176.22Z" fill="#FF9566"/>
<path d="M244.304 128.537C244.78 137.384 261.707 135.341 257.299 189.382L228.17 176.371C225.044 134.086 233.404 123.528 233.308 109.881L247.431 107.298C247.431 107.298 243.743 118.135 244.304 128.537Z" fill="#BF5286"/>
<path d="M243.211 163.771C243.576 146.531 239.562 132.556 234.246 132.556C232.254 132.556 230.363 134.517 228.757 137.875C230.493 124.883 233.365 117.914 233.308 109.881L247.431 107.298C247.431 107.298 243.743 118.135 244.304 128.537C244.78 137.384 261.707 135.341 257.299 189.382L240.987 182.096C242.25 176.949 243.066 170.62 243.211 163.771Z" fill="#AA3C76"/>
<path d="M250.864 90.8362C252.938 104.409 245.602 120.215 243.269 121.937C240.935 123.659 221.958 121.552 220.85 119.64C219.742 117.726 230.421 87.9735 231.98 86.6346C233.54 85.2949 250.192 86.4357 250.864 90.8362Z" fill="#EAE5D0"/>
<path d="M245.91 87.544L238.405 93.9541L236.522 90.2711L232.162 92.7105L234.505 86.062L236.083 85.4357L244.447 86.4541L245.91 87.544Z" fill="#BF5286"/>
<path d="M239.358 120.038C241.673 118.223 247.294 87.5831 249.888 90.7483C251.961 104.32 245.602 120.214 243.269 121.937C240.935 123.659 221.958 121.552 220.85 119.64L220.821 119.525C228.614 120.685 237.698 121.341 239.358 120.038Z" fill="#E2D8AF"/>
<path d="M251.078 75.7803C259.956 74.7964 263.223 64.5652 262.295 57.2855C260.999 47.1265 248.315 48.1358 248.315 48.1358L251.078 75.7803Z" fill="#9B3A3A"/>
<path d="M251.001 56.5991C255.467 58.0687 259.937 56.8178 260.987 53.8038C261.021 53.7076 261.039 53.609 261.065 53.5112C261.667 54.5575 262.105 55.7986 262.294 57.2854C263.223 64.5652 259.957 74.7964 251.078 75.7803L249.079 55.7739C249.676 56.092 250.316 56.3723 251.001 56.5991Z" fill="#842C2C"/>
<path d="M228.143 60.8608C224.013 53.189 227.534 45.5099 236.761 43.497C243.157 42.103 254.243 44.1224 255.997 58.2406C257.032 66.5649 254.065 83.388 241.291 81.348C228.518 79.3088 228.143 60.8608 228.143 60.8608Z" fill="#9B3A3A"/>
<path d="M234.765 55.6392C244.211 55.6392 251.552 50.9263 249.385 45.8452C252.607 48.1055 255.22 51.9833 255.997 58.2406C257.032 66.5649 254.065 83.388 241.291 81.348C228.519 79.3088 228.143 60.8608 228.143 60.8608C226.934 58.6137 226.398 56.3691 226.452 54.2641C228.811 55.1312 231.671 55.6392 234.765 55.6392Z" fill="#842C2C"/>
<path d="M246.306 93.0669C250.734 103.794 261.491 123.721 261.491 123.721L266.229 119.646C266.229 119.646 256.494 96.4088 251.744 91.1864C248.103 87.182 244.576 88.8768 246.306 93.0669Z" fill="#EAE5D0"/>
<path d="M261.039 114.486C261.99 114.05 262.085 111.921 261.478 108.904C264.167 114.724 266.229 119.646 266.229 119.646L261.491 123.721C261.491 123.721 250.422 105.362 246.805 94.2513C246.537 93.6053 249.094 98.997 252.205 104.39C255.373 109.879 259.116 115.37 261.039 114.486Z" fill="#E2D8AF"/>
<path d="M214.239 123.3C212.343 121.363 208.239 104.803 206.269 92.8781L207.17 92.6849C207.17 92.6849 218.008 116.376 218.599 120.789C219.257 125.685 215.587 124.676 214.239 123.3Z" fill="#FFB882"/>
<path d="M215.793 119.249C215.434 115.449 207.17 92.6849 207.17 92.6849C207.17 92.6849 218.008 116.376 218.6 120.789C219.257 125.685 215.587 124.676 214.239 123.3L214.092 123.121C215.166 122.987 216.052 121.986 215.793 119.249Z" fill="#FF9566"/>
<path d="M232.686 106.439H241.443L239.718 113.327H230.96L232.686 106.439Z" fill="#E2D8AF"/>
<path d="M236.5 103.975H239.952L239.273 106.689H235.82L236.5 103.975Z" fill="#E2D8AF"/>
<path d="M236.686 103.746H239.258L238.671 106.165H236.098L236.686 103.746Z" fill="#F2EEDD"/>
<path d="M232.646 106.056H241.403L239.492 112.705H230.734L232.646 106.056Z" fill="#F2EEDD"/>
<path d="M246.465 145.985C246.049 145.503 245.938 143.538 246.305 143.143C246.672 142.749 247.295 145.547 247.295 145.547C247.295 145.547 246.75 146.314 246.465 145.985Z" fill="#FFB882"/>
<path d="M265.789 120.969C265.789 120.969 255.558 136.074 248.675 143.624L247.945 143.188C247.945 143.188 258.291 122.726 259.598 119.374C260.904 116.023 265.789 120.969 265.789 120.969Z" fill="#FFB882"/>
<path d="M261.154 123.762C261.154 123.762 261.323 121.644 258.93 121.394C259.408 120.374 259.416 119.839 259.598 119.374C260.904 116.023 265.789 120.969 265.789 120.969C265.789 120.969 255.934 136.215 249.051 143.765L249.395 143.078C255.552 134.933 261.154 123.762 261.154 123.762Z" fill="#FF9566"/>
<path d="M237.42 69.3188L245.478 66.3566C245.478 66.3566 246.465 78.618 244.3 87.0534L236.7 89.792L235.82 86.1065C238.541 79.6511 237.42 69.3188 237.42 69.3188Z" fill="#FFB882"/>
<path d="M229.624 276.056H239.96C239.96 276.056 239.728 273.009 239.217 272.51C238.706 272.012 229.624 276.056 229.624 276.056Z" fill="#EDE6C5"/>
<path d="M237.95 276.056H243.118C243.118 276.056 241.779 272.871 241.137 272.51C240.082 271.92 237.95 276.056 237.95 276.056Z" fill="#EDE6C5"/>
<path d="M258.624 121.293C258.624 121.293 258.109 119.657 258.542 118.679C259.706 116.044 264.573 114.287 266.197 117.302C267.621 119.942 265.631 123.551 263.63 124.163C263.63 124.163 262.514 120.369 258.624 121.293Z" fill="#BF5286"/>
<path d="M259.729 120.449C262.344 120.551 264.565 118.943 264.69 116.86C264.71 116.535 264.66 116.222 264.581 115.917C265.239 116.146 265.812 116.586 266.197 117.302C267.62 119.942 265.631 123.551 263.63 124.163C263.63 124.163 262.514 120.369 258.624 121.293C258.624 121.293 258.478 120.816 258.408 120.227C258.828 120.344 259.264 120.431 259.729 120.449Z" fill="#AA3C76"/>
<path d="M245.734 87.4121H245.733L244.447 86.4537L245.734 87.4121ZM231.975 86.6395H231.976H231.975ZM231.977 86.6378C231.978 86.637 231.98 86.6354 231.981 86.6346C231.98 86.6354 231.978 86.637 231.977 86.6378ZM231.981 86.6346C231.995 86.6222 232.01 86.6099 232.027 86.5984C232.01 86.6099 231.995 86.6222 231.981 86.6346ZM232.028 86.5976C232.029 86.5968 232.03 86.5968 232.031 86.5959C232.03 86.5968 232.029 86.5968 232.028 86.5976ZM234.505 86.0617L236.067 85.442C236.684 83.7727 237.072 81.8913 237.309 80.0198C237.312 80.0214 237.315 80.023 237.318 80.0247C237.083 81.8921 236.697 83.7694 236.084 85.4354H236.084L234.505 86.0617Z" fill="#B58383"/>
<path d="M229.445 92.0435C229.158 91.2207 228.924 90.3643 228.74 89.4898C229.802 88.4402 230.867 87.5245 231.75 86.9287C231.279 87.6651 230.447 89.5407 229.445 92.0435ZM232.927 86.2966C233.099 86.2366 233.252 86.2037 233.382 86.2037C233.422 86.2037 233.46 86.2062 233.495 86.2128C233.289 86.2366 233.099 86.2646 232.927 86.2966Z" fill="#A6766B"/>
<path d="M238.264 99.9819C237.838 99.9819 237.413 99.9351 236.988 99.8373C233.253 98.9767 230.781 95.874 229.445 92.0438C230.448 89.5411 231.279 87.6655 231.75 86.929C231.753 86.9274 231.755 86.9257 231.758 86.9241C231.841 86.7975 231.915 86.6931 231.975 86.6397H231.976C231.976 86.6389 231.976 86.6389 231.977 86.6381C231.978 86.6372 231.98 86.6356 231.98 86.6348C231.995 86.6225 232.01 86.6101 232.027 86.5986L232.028 86.5978C232.029 86.597 232.03 86.597 232.031 86.5962C232.203 86.4762 232.508 86.3792 232.91 86.3027C232.916 86.3011 232.922 86.2994 232.927 86.297C233.099 86.2649 233.289 86.237 233.495 86.2131C233.498 86.214 233.501 86.214 233.504 86.2148C233.798 86.1803 234.123 86.1548 234.477 86.1367L232.162 92.7104L236.522 90.271L238.405 93.954L245.91 87.5438L245.733 87.4123H245.734C248.001 88.0477 249.832 88.9271 250.545 90.0614C249.535 89.2707 248.58 88.9115 247.798 88.9115C246.136 88.9115 245.259 90.5332 246.306 93.0671C246.464 93.4518 246.631 93.8471 246.805 94.254C246.866 94.4422 246.929 94.6329 246.995 94.8252C244.24 97.7044 241.244 99.9819 238.264 99.9819Z" fill="#A6766B"/>
<path d="M238.405 93.9541L236.522 90.2711L232.162 92.7105L234.477 86.1368L234.505 86.062L236.083 85.4357C236 85.6634 235.913 85.887 235.82 86.1064L236.7 89.7919L244.3 87.0533C244.35 86.8552 244.4 86.6563 244.447 86.4541L245.733 87.4125L245.91 87.544L238.405 93.9541Z" fill="#882A45"/>
<path d="M237.318 80.0249C237.315 80.0233 237.312 80.0216 237.309 80.02C237.944 75.012 237.494 70.0674 237.427 69.3959C237.495 70.0649 237.949 75.0137 237.318 80.0249Z" fill="#5E1616"/>
<path d="M247.069 94.748C246.892 94.3946 246.792 94.1982 246.786 94.1982C246.783 94.1982 246.79 94.2154 246.804 94.2516C246.804 94.2516 246.804 94.2533 246.805 94.2541C246.631 93.8472 246.464 93.4519 246.306 93.0672C245.259 90.5332 246.135 88.9116 247.798 88.9116C248.58 88.9116 249.535 89.2708 250.545 90.0615C250.63 90.1946 250.698 90.3319 250.75 90.4724C249.594 91.9116 248.358 93.3943 247.069 94.748Z" fill="#A6766B"/>
<path d="M246.995 94.8247C246.929 94.6324 246.866 94.4417 246.805 94.2535C246.805 94.2527 246.805 94.251 246.805 94.251C246.79 94.2148 246.783 94.1976 246.786 94.1976C246.792 94.1976 246.892 94.394 247.069 94.7475C247.045 94.7729 247.02 94.7992 246.995 94.8247Z" fill="#A1705A"/>
<path d="M237.42 69.3188V69.318L245.478 66.3566L237.42 69.3188ZM245.479 66.3608C245.479 66.3599 245.479 66.3599 245.478 66.3599C245.479 66.3599 245.479 66.3599 245.479 66.3608ZM245.478 66.3591V66.3583V66.3591Z" fill="#5E1616"/>
<path d="M236.7 89.792L235.82 86.1065C235.913 85.887 236.001 85.6635 236.084 85.4358C236.697 83.7698 237.083 81.8925 237.318 80.0251C237.949 75.0139 237.495 70.0651 237.428 69.3961C237.423 69.3501 237.42 69.3237 237.42 69.3188L245.478 66.3566C245.478 66.3566 245.478 66.3566 245.478 66.3574V66.3583V66.3591V66.3599C245.479 66.3599 245.479 66.3599 245.479 66.3607C245.498 66.6015 246.398 78.138 244.444 86.4542H244.447C244.4 86.6564 244.35 86.8553 244.3 87.0534L236.7 89.792Z" fill="#B55F43"/>
<path d="M245.707 70.0794C244.984 76.1262 241.337 82.0169 233.568 84.3076C228.47 81.3808 221.494 60.19 229.607 52.8635C237.293 45.9232 247.072 58.6473 245.707 70.0794Z" fill="#FFB882"/>
<path d="M243.516 71.8071C241.023 69.7022 245.065 59.6575 241.855 55.3046C241.855 55.3046 246.938 54.8263 248.713 61.3795C250.488 67.9326 243.516 71.8071 243.516 71.8071Z" fill="#842C2C"/>
<path d="M243.745 74.5425C247.505 73.9491 251.328 70.3885 250.29 67.5915C249.253 64.7937 246.706 64.2003 245.461 66.9134C244.215 69.6258 243.745 74.5425 243.745 74.5425Z" fill="#FFB882"/>
<path d="M245.111 72.6533C247.358 72.2983 249.643 70.1719 249.023 68.5002C248.402 66.8284 246.88 66.475 246.136 68.095C245.392 69.7158 245.111 72.6533 245.111 72.6533Z" fill="#EA7B59"/>
<path d="M245.023 73.0269C246.38 72.8123 247.76 71.5277 247.385 70.5175C247.01 69.5082 246.09 69.2937 245.642 70.2734C245.192 71.2523 245.023 73.0269 245.023 73.0269Z" fill="#FFB882"/>
<path d="M248.928 141.374C248.14 142.378 246.426 143.12 245.923 143.143C245.42 143.167 244.446 142.784 244.294 143.191C244.142 143.599 245.376 144.077 245.904 144.052C246.431 144.028 247.482 144.1 247.601 144.077C247.722 144.052 248.928 141.374 248.928 141.374Z" fill="#FFB882"/>
<path d="M250.324 141.493C250.324 141.493 250.078 146.394 249.813 146.512C249.547 146.629 246.861 146.573 246.465 145.985C246.07 145.396 248.292 142.76 248.515 142.211C248.736 141.662 250.324 141.493 250.324 141.493Z" fill="#FFB882"/>
<path d="M206.835 96.1123C205.642 92.315 202.45 94.5203 200.398 93.2701C199.769 92.8863 199.846 89.1457 200.722 88.9205C201.599 88.6961 202.966 90.3252 204.95 90.437C206.934 90.5488 207.879 94.7644 207.879 94.7644L206.835 96.1123Z" fill="#FFB882"/>
<path d="M204.089 86.0899C202.996 86.0323 203.277 88.2811 203.267 88.8893C203.257 89.4967 203.646 91.4323 204.347 91.8901C205.792 92.8354 207.039 91.9674 206.497 91.5647C205.953 91.1619 204.726 89.4121 204.689 88.8877C204.636 88.111 204.55 86.1137 204.089 86.0899Z" fill="#FFB882"/>
<path d="M200.489 84.8183C199.42 85.0057 199.738 87.6177 199.859 88.2186C199.982 88.8194 200.661 90.1632 201.439 90.4583C203.041 91.0657 202.986 89.8386 202.373 89.5624C201.762 89.2871 201.023 88.2227 200.874 87.7147C200.653 86.9627 200.94 84.7394 200.489 84.8183Z" fill="#FFB882"/>
<path d="M197.669 89.7128C196.61 90.1723 198.123 92.1498 198.579 92.5698C199.035 92.9898 200.733 93.7263 201.737 93.7197C203.804 93.7065 203.083 92.7901 202.271 92.7621C201.458 92.7342 200.051 92.2501 199.551 92.0142C198.694 91.6098 198.117 89.5197 197.669 89.7128Z" fill="#FFB882"/>
<path d="M198.57 87.0785C197.512 87.4533 198.674 89.7374 198.982 90.2445C199.29 90.7533 200.347 91.7757 201.247 91.8851C203.101 92.1086 202.675 91.0327 201.954 90.9095C201.233 90.7853 200.146 89.9873 199.839 89.5672C199.383 88.9442 199.017 86.9198 198.57 87.0785Z" fill="#FFB882"/>
<path d="M240.059 65.3585C240.052 63.9522 239.374 62.7218 238.54 62.601C237.708 62.4834 237.029 63.5191 237.023 64.9287C237.015 66.3465 237.696 67.6015 238.538 67.7207C239.382 67.8407 240.064 66.7813 240.059 65.3585Z" fill="#5B3F39"/>
<path d="M230.757 65.0244C230.646 63.5992 229.927 62.437 229.139 62.4091C228.357 62.3836 227.804 63.5072 227.905 64.9324C228.006 66.365 228.731 67.56 229.525 67.5831C230.321 67.6094 230.868 66.457 230.757 65.0244Z" fill="#5B3F39"/>
<path d="M226.697 64.4272C226.697 64.4272 228.891 62.7382 231.1 63.0711C231.1 63.0711 230.417 62.0798 228.858 62.3519C227.3 62.6264 226.697 64.4272 226.697 64.4272Z" fill="#5B3F39"/>
<path d="M241.119 64.4209C241.119 64.4209 238.554 62.6119 236.345 62.8198C236.345 62.8198 236.867 61.8623 238.515 62.2206C240.164 62.5765 241.119 64.4209 241.119 64.4209Z" fill="#5B3F39"/>
<path d="M226.706 60.3232L226.638 59.9739C228.191 58.4 230.806 58.2068 231.957 58.5052L231.865 59.4068C230.978 59.0386 228.331 59.0978 226.706 60.3232Z" fill="#9B3A3A"/>
<path d="M241.738 61.4717C240.049 59.7818 236.701 59.1933 235.876 59.19L236.037 58.2933C236.961 58.3237 240.061 59.0692 241.987 61.1692L241.738 61.4717Z" fill="#9B3A3A"/>
<path d="M231.297 75.2018L237.33 75.2676C237.33 75.2676 236.72 79.0353 234.813 79.2473C232.797 79.4717 231.297 75.2018 231.297 75.2018Z" fill="#592424"/>
<path d="M231.53 75.3193L237.094 75.3727C237.094 75.3727 236.242 77.1924 234.538 77.3338C232.749 77.4842 231.53 75.3193 231.53 75.3193Z" fill="#FFFBD7"/>
<path d="M233.52 68.3897C231.822 70.3919 231.485 71.3823 231.94 72.0752C232.395 72.7714 234.896 72.4714 234.896 72.4714L233.52 68.3897Z" fill="#EA7B59"/>
<path d="M234.178 68.0946C232.486 70.0935 232.15 71.0814 232.606 71.7735C233.064 72.468 235.56 72.1688 235.56 72.1688L234.178 68.0946Z" fill="#FFB882"/>
<path d="M339.513 208.792L330.466 274.528H331.426L347.235 218.729L339.513 208.792Z" fill="#FFB882"/>
<path d="M339.97 244.37L347.235 218.729L339.513 208.792L335.692 236.55C337.353 237.816 338.828 240.581 339.97 244.37Z" fill="#FF9566"/>
<path d="M388.944 208.792L397.739 274.528H396.807L381.437 218.729L388.944 208.792Z" fill="#FF9566"/>
<path d="M336.035 226.172C336.035 226.172 388.979 260.394 396.616 264.474C396.616 264.474 389.532 171.93 379.471 153.253C370.652 136.88 370.398 110.138 370.398 110.138L356.823 112.253C356.059 148.287 341.89 163.623 336.035 226.172Z" fill="#F2649E"/>
<path d="M362.025 133.448C366.334 132.806 371.024 136.683 375.594 143.918C370.576 128.351 370.398 110.138 370.398 110.138L356.823 112.253C356.059 148.287 341.89 163.623 336.035 226.172C336.035 226.172 339.893 228.667 345.672 232.384C343.215 188.549 351.297 135.048 362.025 133.448Z" fill="#CC4281"/>
<path d="M354.829 66.5695C345.41 56.7697 345.156 52.1884 348.848 45.6977C352.538 39.207 373.232 34.2944 379.265 44.0423C391.864 64.4062 370.356 104.369 379.01 123.332C379.01 123.332 358.52 114.805 354.32 97.8772C350.12 80.9514 354.829 66.5695 354.829 66.5695Z" fill="#823E30"/>
<path d="M379.388 44.2659C354.485 46.0807 364.242 67.4621 351.788 63.2078C352.674 64.2599 353.68 65.3752 354.829 66.5695C354.829 66.5695 350.12 80.9514 354.32 97.8772C358.52 114.805 379.01 123.332 379.01 123.332C370.387 104.436 391.702 64.6955 379.388 44.2659Z" fill="#702F24"/>
<path d="M353.166 91.8771C353.438 93.8267 353.813 95.833 354.32 97.8771C357.834 112.042 372.748 120.32 377.526 122.646C377.794 122.3 378.058 121.942 378.314 121.567C371.622 101.999 379.345 70.3889 368.145 68.0982C361.004 66.6376 354.98 79.7193 353.166 91.8771Z" fill="#56211A"/>
<path d="M369.804 101.992C380.266 112.779 388.146 119.442 389.581 119.401C391.042 119.359 389.717 115.707 389.057 113.616C388.379 111.466 372.434 91.8957 372.434 91.8957L369.804 101.992Z" fill="#FFB882"/>
<path d="M389.057 113.616C388.997 113.423 388.808 113.085 388.524 112.638C388.389 112.973 388.199 113.244 387.932 113.422C386.12 114.632 381.88 111.464 378.464 106.345C375.335 101.658 373.989 96.971 375.175 95.2844C373.54 93.2535 372.434 91.8957 372.434 91.8957L369.804 101.992C380.266 112.779 388.145 119.442 389.581 119.401C391.042 119.359 389.717 115.707 389.057 113.616Z" fill="#FF9566"/>
<path d="M353.646 86.0043C339.921 94.5202 321.017 108.661 320.873 110.369C320.728 112.078 325.22 111.577 327.695 111.407C330.18 111.236 352.511 98.3166 352.511 98.3166L353.646 86.0043Z" fill="#FFB882"/>
<path d="M351.046 87.6448C346.592 103.858 326.867 108.785 325.94 108.85C324.8 108.931 323.233 109.08 321.888 109.052C321.256 109.681 320.892 110.14 320.873 110.369C320.728 112.078 325.22 111.577 327.695 111.407C330.18 111.236 352.511 98.3158 352.511 98.3158L353.646 86.0043C352.797 86.5311 351.929 87.0793 351.046 87.6448Z" fill="#FF9566"/>
<path d="M352.913 86.6123C349.975 98.3658 346.891 116.248 347.782 118.285C348.673 120.32 372.727 120.406 373.745 119.388C374.762 118.369 373.493 93.7556 373.071 92.1504C372.434 89.7323 353.634 83.7282 352.913 86.6123Z" fill="#F2649E"/>
<path d="M373.071 92.1504C373.017 91.9458 372.824 91.7148 372.532 91.4658C373.009 95.208 374.045 115.793 373.151 116.757C372.207 117.775 350.39 117.435 349.563 115.399C348.751 113.394 350.947 97.7724 353.646 86.0041C353.246 86.1274 352.985 86.3239 352.914 86.6124C349.975 98.3658 346.429 116.755 347.32 118.792C348.211 120.828 373.113 120.659 374.131 119.64C375.15 118.623 373.493 93.7556 373.071 92.1504Z" fill="#D64D85"/>
<path d="M369.719 107.847C371.228 107.493 372.774 96.3079 372.877 91.8153C370.964 89.398 355.811 84.5503 353.257 86.1703C353.429 103.86 367.848 108.287 369.719 107.847Z" fill="#FFB882"/>
<path d="M363.253 77.3628L360.101 90.2661L369.658 89.8182L371.122 67.319L363.253 77.3628Z" fill="#FFB882"/>
<path d="M384.366 112.263C384.419 113.791 389.699 120.533 389.699 120.533C394.166 114.029 391.525 81.2902 391.525 81.2902L390.468 80.691C390.468 80.691 384.311 110.734 384.366 112.263Z" fill="#442A2E"/>
<path d="M330.855 110.254L320.873 110.371C323.979 118.845 350.535 139.497 350.535 139.497L351.816 138.986C351.816 138.986 332.334 111.274 330.855 110.254Z" fill="#442A2E"/>
<path d="M369.719 106.447C367.898 106.876 354.191 102.686 353.306 86.1473L353.257 86.1703C353.429 103.86 367.848 108.287 369.719 107.847C371.228 107.493 372.774 96.3079 372.877 91.8153L372.817 91.7495C372.501 96.7986 371.095 106.123 369.719 106.447Z" fill="#FF9566"/>
<path d="M362.291 98.431L361.781 104.031L363.903 105.388L362.291 98.431Z" fill="#FF9566"/>
<path d="M391.525 81.2907L390.468 80.6915C390.468 80.6915 387.562 94.8721 385.761 104.244C386.459 107.366 387.392 109.291 388.423 109.291C390.269 109.291 391.812 103.155 392.219 94.9206C392.02 87.4321 391.525 81.2907 391.525 81.2907Z" fill="#59363D"/>
<path d="M332.464 114.095C330.09 116.357 333.849 124.16 340.862 131.524C340.966 131.634 341.072 131.736 341.177 131.844C345.497 135.515 349.083 138.358 350.181 139.22C350.325 139.307 350.467 139.386 350.609 139.468L351.816 138.986C351.816 138.986 339.257 121.123 333.543 113.556C333.116 113.648 332.75 113.822 332.464 114.095Z" fill="#59363D"/>
<path d="M373.935 93.7471C373.848 93.6386 373.764 93.535 373.683 93.4348C373.495 93.203 373.325 92.9934 373.176 92.8084C373.176 92.8084 373.176 92.8084 373.176 92.8076C373.388 93.0706 373.644 93.3862 373.935 93.7471Z" fill="#3D110D"/>
<path d="M374.759 96.6641C374.797 96.0969 374.933 95.6285 375.175 95.2849C375.141 95.2422 375.107 95.2002 375.073 95.1583C375.273 95.4065 375.482 95.6654 375.697 95.9334C375.39 96.1832 375.078 96.4273 374.759 96.6641ZM374.047 93.886C373.919 93.7282 373.798 93.5778 373.683 93.4356C373.764 93.5359 373.848 93.6394 373.935 93.7479C373.972 93.7931 374.01 93.8391 374.047 93.886Z" fill="#B55F43"/>
<path d="M373.596 97.4727C373.439 95.3866 373.288 93.714 373.176 92.8091C373.325 92.994 373.495 93.2036 373.683 93.4354C373.798 93.5776 373.919 93.728 374.048 93.8858C374.356 94.268 374.7 94.6946 375.073 95.1581C375.107 95.2001 375.141 95.242 375.175 95.2847C374.934 95.6283 374.797 96.0968 374.759 96.6639C374.38 96.945 373.992 97.2154 373.596 97.4727Z" fill="#B54D35"/>
<path d="M372.302 98.2432C372.502 96.7284 372.66 95.2407 372.76 93.9527C372.843 95.0483 372.93 96.3774 373.014 97.8355C372.778 97.9768 372.542 98.1125 372.302 98.2432Z" fill="#AC3351"/>
<path d="M373.014 97.8354C372.93 96.3774 372.843 95.0483 372.76 93.9527C372.823 93.148 372.863 92.4206 372.877 91.8149L372.901 91.8445C372.982 91.9513 373.045 92.0549 373.071 92.1502C373.1 92.2612 373.135 92.4913 373.176 92.8078C373.176 92.8086 373.176 92.8086 373.176 92.8086C373.288 93.7135 373.439 95.3861 373.596 97.4722C373.403 97.5963 373.209 97.7179 373.014 97.8354Z" fill="#982845"/>
<path d="M352.435 88.5635C352.328 88.021 352.254 87.4678 352.213 86.904C352.48 86.7363 352.744 86.5687 353.007 86.4043C352.977 86.4487 352.952 86.4955 352.934 86.5457C352.926 86.5679 352.919 86.59 352.914 86.6122C352.756 87.2443 352.596 87.8969 352.435 88.5635Z" fill="#B54D35"/>
<path d="M354.076 92.772C353.529 91.8785 353.099 90.9342 352.789 89.9479C352.955 89.1366 353.126 88.3336 353.3 87.5446C353.402 89.4457 353.672 91.1857 354.076 92.772ZM352.934 86.5459C352.952 86.4958 352.977 86.449 353.006 86.4046C353.007 86.4037 353.008 86.4037 353.009 86.4029C352.978 86.4473 352.953 86.495 352.934 86.5459ZM353.236 86.1892L353.257 86.1703C353.257 86.172 353.257 86.1736 353.257 86.1753C353.25 86.1794 353.242 86.1843 353.236 86.1892Z" fill="#AC3351"/>
<path d="M352.789 89.9473C352.646 89.4944 352.528 89.0325 352.435 88.5632C352.596 87.8966 352.756 87.244 352.914 86.6119C352.919 86.5897 352.926 86.5675 352.934 86.5454C352.953 86.4944 352.978 86.4467 353.009 86.4023C353.011 86.4007 353.013 86.3999 353.015 86.399L353.021 86.3933L353.097 86.3103L353.2 86.2191L353.236 86.1886C353.242 86.1837 353.25 86.1788 353.257 86.1747C353.262 86.6407 353.276 87.0952 353.3 87.544C353.127 88.333 352.956 89.136 352.789 89.9473Z" fill="#982845"/>
<path d="M372.355 91.3247C371.754 90.862 370.811 90.345 369.658 89.8181V89.8173C370.815 90.345 371.755 90.862 372.355 91.3247Z" fill="#AC3351"/>
<path d="M360.944 86.8188C360.943 86.818 360.944 86.8188 360.943 86.818L363.252 77.3627L360.944 86.8188Z" fill="#3D110D"/>
<path d="M360.943 86.8188V86.818C360.944 86.8188 360.943 86.818 360.944 86.8188H360.943ZM358.607 86.2854C358.528 86.2698 358.45 86.255 358.373 86.2402C358.436 86.2517 358.5 86.264 358.564 86.2764C358.578 86.2797 358.592 86.2821 358.607 86.2854ZM358.005 86.172C357.932 86.1588 357.859 86.1457 357.788 86.1334C357.797 86.135 357.805 86.1367 357.813 86.1375C357.876 86.149 357.94 86.1597 358.005 86.172Z" fill="#AC3351"/>
<path d="M366.029 99.9878C364.879 99.9878 363.704 99.802 362.513 99.3886L362.291 98.4311L362.214 99.2801C361.959 99.1831 361.704 99.0763 361.447 98.9579C358.629 97.6576 356.445 95.9645 354.905 93.9754C354.049 91.7415 353.466 89.1475 353.306 86.1475L353.257 86.1705L353.347 86.1269L353.412 86.0957L353.547 86.0332L353.689 85.993C353.763 85.9724 353.837 85.9502 353.92 85.9338L354.109 85.905C354.192 85.8927 354.275 85.8812 354.366 85.873C354.438 85.8672 354.514 85.8631 354.59 85.8598C354.684 85.8549 354.78 85.8508 354.88 85.85C354.911 85.8491 354.943 85.8491 354.974 85.8491C355.026 85.8491 355.078 85.8491 355.131 85.8508C355.235 85.8524 355.343 85.8557 355.453 85.8606C355.544 85.8647 355.637 85.8697 355.731 85.8762C355.846 85.8845 355.967 85.8943 356.088 85.9058C356.185 85.9149 356.279 85.9231 356.378 85.9338C356.509 85.9478 356.644 85.965 356.781 85.9831C356.878 85.9954 356.975 86.0078 357.076 86.0217C357.227 86.0439 357.385 86.0694 357.542 86.0949C357.624 86.108 357.704 86.1204 357.788 86.1335C357.859 86.1458 357.932 86.159 358.005 86.1721C358.126 86.1935 358.249 86.2165 358.373 86.2404C358.45 86.2552 358.528 86.27 358.607 86.2856C358.7 86.3045 358.796 86.3259 358.891 86.3448C359.046 86.3768 359.201 86.408 359.36 86.4426C359.495 86.473 359.634 86.5058 359.772 86.5371C359.907 86.5683 360.041 86.5979 360.178 86.6308C360.326 86.6661 360.475 86.7031 360.626 86.7409C360.732 86.7672 360.837 86.7919 360.943 86.819L360.101 90.2661L369.658 89.8182C370.811 90.345 371.754 90.862 372.355 91.3248C372.567 91.4883 372.737 91.6453 372.859 91.7933L372.873 91.8105L372.817 91.7497C372.701 93.5974 372.44 96.0163 372.087 98.3579C370.192 99.3557 368.154 99.9886 366.029 99.9878Z" fill="#B55F43"/>
<path d="M360.101 90.2661L360.943 86.819H360.944L363.253 77.3628L371.122 67.319L369.658 89.8173V89.8182L360.101 90.2661Z" fill="#B55F43"/>
<path d="M372.087 98.3579C372.44 96.0163 372.701 93.5974 372.817 91.7497L372.873 91.8105L372.877 91.8154C372.863 92.4212 372.823 93.1486 372.76 93.9532C372.66 95.2412 372.502 96.7289 372.302 98.2437C372.231 98.2823 372.159 98.3209 372.087 98.3579ZM354.905 93.9754C354.604 93.585 354.327 93.1848 354.076 92.7722C353.672 91.1858 353.402 89.4458 353.3 87.5447C353.276 87.096 353.262 86.6415 353.257 86.1754C353.257 86.1738 353.257 86.1721 353.257 86.1705L353.306 86.1475C353.466 89.1475 354.049 91.7415 354.905 93.9754Z" fill="#B54D35"/>
<path d="M362.513 99.3882C362.413 99.3537 362.313 99.3175 362.214 99.2797L362.291 98.4306L362.513 99.3882Z" fill="#B54D35"/>
<path d="M358.757 83.582C354.43 80.6124 349.33 72.9489 350.234 64.5743C351.139 56.1998 350.507 49.6154 357.097 48.2173C363.686 46.8184 372.82 57.4762 372.3 64.8702C371.295 79.1667 358.757 83.582 358.757 83.582Z" fill="#FFB882"/>
<path d="M370.266 70.4316C369.333 67.0371 367.975 53.2075 365.005 50.7475C365.005 50.7475 367.313 45.4346 371.285 53.3776C376.121 63.05 370.266 70.4316 370.266 70.4316Z" fill="#702F24"/>
<path d="M370.921 67.8016C372.997 64.643 375.942 64.74 375.58 68.0901C375.22 71.4411 369.118 75.6674 369.061 74.1707C369.004 72.6731 370.251 68.8208 370.921 67.8016Z" fill="#FFB882"/>
<path d="M371.609 68.8629C372.758 67.1155 374.388 67.1682 374.188 69.0216C373.987 70.8758 370.611 73.2158 370.58 72.3873C370.548 71.5589 371.238 69.4268 371.609 68.8629Z" fill="#EA7B59"/>
<path d="M371.144 70.0828C372.062 68.6871 373.363 68.7299 373.203 70.2093C373.043 71.6904 370.347 73.5586 370.323 72.897C370.298 72.2354 370.849 70.5332 371.144 70.0828Z" fill="#FFB882"/>
<path d="M396.179 276.056H402.763C402.763 276.056 398.872 272.111 397.076 272.111C395.28 272.111 396.179 276.056 396.179 276.056Z" fill="#DDD4B1"/>
<path d="M331.646 276.056H323.585C323.585 276.056 328.349 272.111 330.547 272.111C332.745 272.111 331.646 276.056 331.646 276.056Z" fill="#DDD4B1"/>
<path d="M390.231 260.684C387.206 233.2 375.889 206.912 374.985 212.535C372.835 225.917 371.454 237.747 368.768 247.178C376.858 252.331 384.762 257.324 390.231 260.684Z" fill="#E04F91"/>
<path d="M365.231 63.4172C365.11 61.941 364.102 60.8503 362.971 60.9827C361.844 61.1191 361.026 62.4284 361.145 63.9103C361.261 65.3914 362.274 66.4797 363.4 66.3441C364.526 66.2076 365.348 64.8999 365.231 63.4172Z" fill="#563933"/>
<path d="M355.8 63.2484C355.78 61.7607 354.968 60.6142 353.973 60.6799C352.984 60.7473 352.2 62.0049 352.22 63.4933C352.24 64.9761 353.057 66.1301 354.046 66.061C355.037 65.9944 355.818 64.7336 355.8 63.2484Z" fill="#563933"/>
<path d="M350.714 62.6816C350.714 62.6816 353.989 60.1921 356.286 61.7594C356.286 61.7594 356.025 59.4893 354.146 59.403C352.271 59.3216 350.714 62.6816 350.714 62.6816Z" fill="#563933"/>
<path d="M366.582 63.8853C366.582 63.8853 363.665 60.7348 360.669 61.8765C360.669 61.8765 361.615 59.617 363.719 59.8891C365.822 60.1562 366.582 63.8853 366.582 63.8853Z" fill="#563933"/>
<path d="M350.623 59.6084L350.545 59.2525C352.222 57.4344 355.59 56.8451 357.299 57.0415L357.123 58.2095C355.818 57.8487 352.392 58.1955 350.623 59.6084Z" fill="#702F24"/>
<path d="M367.396 61.0063C365.604 59.1702 361.697 58.4872 360.718 58.4715L361.007 57.5033C362.103 57.5485 365.706 58.4009 367.731 60.6874L367.396 61.0063Z" fill="#702F24"/>
<path d="M355.494 75.5821L355.651 75.2607C355.815 75.3232 359.561 76.7114 363.635 72.9988L364.131 73.5223C360.438 76.8026 357.257 76.2856 355.494 75.5821Z" fill="#EA7B59"/>
<path d="M360.099 77.3306C360.072 77.0939 359.564 77.2328 358.88 77.3289C358.195 77.4243 357.594 77.4399 357.62 77.6758C357.648 77.9125 358.224 78.0259 358.908 77.9306C359.593 77.8353 360.127 77.5665 360.099 77.3306Z" fill="#EA7B59"/>
<path d="M357.696 67.9708C355.321 70.2614 355.575 70.6009 356.424 71.1951C357.272 71.7886 359.054 71.4072 359.054 71.4072L357.696 67.9708Z" fill="#EA7B59"/>
<path d="M358.375 67.6739C355.999 69.9646 356.255 70.304 357.103 70.8974C357.951 71.4917 359.732 71.1095 359.732 71.1095L358.375 67.6739Z" fill="#FFB882"/>
<path d="M349.03 136.969C349.638 138.085 348.42 139.712 349.215 144.393C349.344 145.155 352.549 147.193 353.126 146.741C353.704 146.289 352.664 143.689 353.381 142.176C354.099 140.663 349.753 136.132 349.753 136.132L349.03 136.969Z" fill="#59363D"/>
<path d="M357.218 144.183C356.919 145.061 354.309 143.38 353.678 142.98C353.047 142.58 351.888 141.881 351.643 141.034C351.14 139.291 352.444 138.916 352.682 139.602C352.922 140.288 353.993 141.469 354.523 141.848C355.308 142.409 357.343 143.813 357.218 144.183Z" fill="#59363D"/>
<path d="M356.097 150.11C355.539 150.752 353.636 148.321 353.161 147.722C352.681 147.117 351.776 146.02 351.765 145.096C351.741 143.099 353.151 143.191 353.183 144.016C353.214 144.82 353.903 146.404 354.297 146.97C354.872 147.797 356.338 149.832 356.097 150.11Z" fill="#59363D"/>
<path d="M353.586 149.848C352.901 150.353 351.572 147.568 351.238 146.88C350.901 146.185 350.256 144.918 350.445 144.012C350.855 142.059 352.211 142.454 352.063 143.266C351.92 144.058 352.248 145.754 352.509 146.392C352.891 147.324 353.881 149.628 353.586 149.848Z" fill="#59363D"/>
<path d="M351.838 148.297C351.229 148.756 350.15 146.348 349.879 145.754C349.604 145.153 349.078 144.06 349.267 143.262C349.675 141.54 350.843 141.853 350.693 142.569C350.546 143.266 350.786 144.743 350.996 145.295C351.302 146.102 352.101 148.099 351.838 148.297Z" fill="#59363D"/>
<path d="M391.777 84.9785C391.762 80.4432 396.514 82.5645 398.93 78.5782C399.363 77.8632 398.272 74.5599 397.255 74.4695C396.239 74.3791 394.785 76.7495 392.606 77.2525C390.428 77.7555 390.207 82.7462 390.207 82.7462L391.777 84.9785Z" fill="#59363D"/>
<path d="M392.003 72.9008C393.204 72.6288 393.713 75.5055 393.844 76.1984C393.974 76.8896 394.249 78.1406 393.56 78.7981C392.143 80.1493 390.59 79.3948 391.112 78.8326C391.635 78.2696 391.948 76.8132 391.886 76.2082C391.793 75.3107 391.496 73.0159 392.003 72.9008Z" fill="#59363D"/>
<path d="M395.378 69.9955C396.573 69.7144 397.659 72.5468 397.799 73.2388C397.938 73.9309 397.585 75.7399 396.907 76.4024C395.51 77.766 395.021 76.4394 395.535 75.8722C396.049 75.3059 396.341 73.8454 396.27 73.2396C396.164 72.3429 394.873 70.1131 395.378 69.9955Z" fill="#59363D"/>
<path d="M400.656 74.1509C401.948 74.321 400.954 76.9996 400.598 77.6111C400.24 78.2243 398.646 79.5837 397.56 79.8985C395.324 80.5462 395.806 79.2985 396.674 79.0076C397.543 78.7158 398.837 77.6202 399.197 77.1015C399.728 76.333 400.111 74.0794 400.656 74.1509Z" fill="#59363D"/>
<path d="M398.339 71.7529C399.607 71.6764 399.726 74.5252 399.633 75.2016C399.54 75.8781 398.587 77.5326 397.7 78.0512C395.873 79.1205 395.836 77.7899 396.529 77.3345C397.223 76.88 397.999 75.5452 398.131 74.9616C398.327 74.097 397.804 71.7849 398.339 71.7529Z" fill="#59363D"/>
<path d="M389.006 57.7858C390.003 67.7483 393.58 75.3157 394.259 75.4677C394.937 75.6198 396.963 67.0841 396.04 57.1085L389.006 57.7858Z" fill="#FFF5CC"/>
<path d="M395.028 72.833L393.001 73.0286C394.848 79.4856 395.625 88.6188 394.628 89.9224L396.655 89.7267C395.329 88.6615 394.669 79.4749 395.028 72.833Z" fill="#FFF5CC"/>
<path d="M390.141 60.942C390.851 68.0162 393.566 73.3727 394.088 73.4762C394.611 73.5798 396.224 67.5025 395.571 60.4184L390.141 60.942Z" fill="#F9E48F"/>
<path d="M390.143 61.1264C391.013 61.2365 392.041 61.2538 393.136 61.1477C394.024 61.0622 394.842 60.902 395.569 60.6998C395.56 60.5847 395.555 60.4729 395.543 60.3579L390.114 60.8806C390.122 60.9636 390.133 61.0433 390.143 61.1264Z" fill="#FFEEA9"/>
<path d="M395.612 88.9176L395.497 88.9291L392.848 90.7349L398.557 90.185L395.612 88.9176Z" fill="#E5DCB5"/>
<path d="M392.464 60.6548C392.307 59.8641 392.153 59.0241 392.005 58.143L394.915 57.8627C394.976 58.4931 394.997 59.3973 394.992 60.4115L392.464 60.6548Z" fill="#FFFCE2"/>
<path d="M394.495 68.0894C394.494 68.0894 394.492 68.0885 394.49 68.0877C394.279 67.9874 393.414 65.3228 392.571 61.1918C392.757 61.1803 392.946 61.1655 393.137 61.1474C393.795 61.0841 394.415 60.9798 394.988 60.8474C394.976 61.814 394.942 62.8546 394.895 63.8367C394.89 63.8367 394.883 63.8359 394.877 63.8359C394.869 63.8359 394.862 63.8367 394.854 63.8367C394.726 63.8499 394.632 63.9642 394.646 64.0924C394.656 64.2107 394.756 64.3011 394.872 64.3028C394.765 66.3814 394.607 68.0894 394.495 68.0894ZM394.413 66.5244C394.405 66.5244 394.397 66.5244 394.389 66.5252C394.261 66.5376 394.167 66.651 394.179 66.78C394.191 66.9 394.293 66.9905 394.412 66.9905C394.42 66.9905 394.427 66.9896 394.434 66.9888C394.562 66.9773 394.655 66.8631 394.644 66.7348C394.632 66.614 394.531 66.5244 394.413 66.5244ZM393.888 62.3598C393.88 62.3598 393.873 62.3606 393.866 62.3606C393.737 62.3737 393.644 62.488 393.655 62.6162C393.668 62.7362 393.769 62.8266 393.889 62.8266C393.896 62.8266 393.903 62.8266 393.911 62.8258C394.038 62.8135 394.133 62.7 394.12 62.571C394.109 62.4502 394.007 62.3598 393.888 62.3598Z" fill="#FDF5BE"/>
<path d="M392.571 61.1924C392.535 61.0157 392.499 60.8365 392.463 60.6548L394.992 60.4116C394.991 60.5546 394.99 60.7009 394.987 60.848C394.415 60.9803 393.795 61.0847 393.136 61.148C392.946 61.1661 392.757 61.1809 392.571 61.1924Z" fill="#FFF9CD"/>
<path d="M393.503 69.9546C393.384 69.9546 393.283 69.865 393.271 69.7442C393.259 69.616 393.353 69.5017 393.481 69.4894C393.489 69.4886 393.497 69.4877 393.504 69.4877C393.622 69.4877 393.724 69.5782 393.736 69.699C393.749 69.828 393.654 69.9414 393.526 69.9538C393.519 69.9546 393.51 69.9546 393.503 69.9546Z" fill="#FDF5BE"/>
<path d="M392.005 64.3667C391.887 64.3667 391.786 64.2771 391.775 64.1563C391.762 64.0281 391.856 63.9138 391.984 63.9015C391.991 63.9007 391.999 63.8999 392.006 63.8999C392.125 63.8999 392.227 63.9903 392.239 64.1111C392.25 64.2401 392.157 64.3535 392.028 64.3659C392.02 64.3667 392.013 64.3667 392.005 64.3667Z" fill="#FDF5BE"/>
<path d="M394.471 69.3716C394.351 69.3716 394.249 69.2812 394.239 69.1603C394.226 69.0321 394.319 68.9179 394.448 68.9055C394.455 68.9055 394.462 68.9047 394.47 68.9047C394.589 68.9047 394.691 68.9943 394.702 69.1151C394.715 69.2442 394.621 69.3576 394.493 69.3708C394.485 69.3716 394.478 69.3716 394.471 69.3716Z" fill="#FDF5BE"/>
<path d="M394.054 71.2451C393.935 71.2451 393.833 71.1547 393.822 71.0331C393.81 70.9048 393.903 70.7906 394.032 70.7791C394.04 70.7783 394.047 70.7783 394.054 70.7783C394.173 70.7783 394.274 70.8678 394.286 70.9895C394.299 71.1169 394.204 71.2311 394.076 71.2435C394.068 71.2443 394.061 71.2451 394.054 71.2451Z" fill="#FDF5BE"/>
<path d="M392.525 66.6611C392.406 66.6611 392.306 66.5707 392.293 66.4499C392.282 66.3217 392.375 66.2074 392.504 66.1959C392.512 66.1951 392.519 66.1943 392.527 66.1943C392.645 66.1943 392.746 66.2847 392.758 66.4047C392.77 66.5337 392.676 66.6472 392.548 66.6595C392.54 66.6603 392.532 66.6611 392.525 66.6611Z" fill="#FDF5BE"/>
<path d="M392.733 69.0488C392.616 69.0488 392.514 68.9584 392.502 68.8376C392.49 68.7094 392.584 68.5951 392.712 68.5836C392.72 68.5828 392.727 68.582 392.735 68.582C392.854 68.582 392.955 68.6724 392.967 68.7932C392.979 68.9214 392.885 69.0357 392.757 69.0472C392.749 69.048 392.741 69.0488 392.733 69.0488Z" fill="#FDF5BE"/>
<path d="M391.304 62.7114C391.184 62.7114 391.083 62.621 391.072 62.4994C391.059 62.3711 391.153 62.2577 391.281 62.2454C391.289 62.2446 391.296 62.2446 391.304 62.2446C391.423 62.2446 391.525 62.335 391.535 62.455C391.549 62.5832 391.455 62.6975 391.326 62.7098C391.318 62.7106 391.311 62.7114 391.304 62.7114Z" fill="#FDF5BE"/>
<path d="M394.877 64.3032C394.875 64.3032 394.874 64.3032 394.873 64.3032C394.881 64.1503 394.888 63.9942 394.896 63.8372C395.007 63.8462 395.099 63.9334 395.109 64.0476C395.122 64.1767 395.028 64.2901 394.9 64.3024C394.892 64.3032 394.884 64.3032 394.877 64.3032Z" fill="#FDF5BE"/>
<path d="M394.873 64.3032C394.756 64.3016 394.656 64.2112 394.646 64.0928C394.633 63.9646 394.726 63.8504 394.855 63.8372C394.862 63.8372 394.869 63.8364 394.877 63.8364C394.883 63.8364 394.89 63.8372 394.896 63.8372C394.888 63.9942 394.881 64.1503 394.873 64.3032Z" fill="#FEFCD9"/>
<path d="M394.412 66.9902C394.293 66.9902 394.191 66.8998 394.179 66.7798C394.167 66.6508 394.261 66.5373 394.389 66.525C394.397 66.5242 394.405 66.5242 394.413 66.5242C394.531 66.5242 394.632 66.6138 394.644 66.7346C394.655 66.8628 394.562 66.9771 394.434 66.9886C394.427 66.9894 394.419 66.9902 394.412 66.9902Z" fill="#FEFCD9"/>
<path d="M393.889 62.8271C393.769 62.8271 393.668 62.7367 393.655 62.6167C393.644 62.4885 393.737 62.3743 393.866 62.3611C393.873 62.3611 393.88 62.3603 393.888 62.3603C394.007 62.3603 394.109 62.4507 394.12 62.5715C394.133 62.7006 394.038 62.814 393.911 62.8263C393.903 62.8271 393.896 62.8271 393.889 62.8271Z" fill="#FEFCD9"/>
<path d="M465.359 275.412H115C115 275.412 184.341 287.709 293.018 287.709C401.694 287.709 465.359 275.412 465.359 275.412Z" fill="#FFC248"/>
</g>
<defs>
<clipPath id="clip0">
<rect x="151" width="278" height="278" fill="white"/>
</clipPath>
</defs>
</svg>
