<svg width="278" height="278" viewBox="0 0 278 278" fill="none" xmlns="http://www.w3.org/2000/svg">
<g clip-path="url(#clip0)">
<rect width="278" height="278" fill="white"/>
<path d="M111.169 135.841C112.169 107.793 121.821 78.3847 128.59 70.4373C128.59 70.4373 122.067 63.0581 132.82 53.6067C143.837 43.9232 160.74 50.2159 160.74 50.2159C160.74 50.2159 167.531 28.2779 182.814 30.3524C198.545 32.4862 194.48 59.9093 194.48 59.9093C194.48 59.9093 207.322 45.2519 210.891 62.858C214.462 80.5061 199.597 103.664 199.597 103.664C199.597 103.664 220.518 98.6309 209.74 124.777C199.239 150.249 156.509 198.02 156.509 198.02L111.169 135.841Z" fill="#844535"/>
<path d="M199.597 103.664C199.597 103.664 214.462 80.5061 210.891 62.858C210.644 61.6528 210.355 60.6106 210.029 59.6919C208.821 76.9325 193.804 82.6942 173.617 94.5658C150.548 108.127 127.592 121.149 114.587 108.448C112.784 117.183 111.5 126.58 111.167 135.841L156.509 198.02C156.509 198.02 199.239 150.249 209.74 124.777C220.518 98.6309 199.597 103.664 199.597 103.664Z" fill="#702C1E"/>
<path d="M25.8031 447.124C25.3808 331.625 58.2642 234.126 58.2642 234.126C58.2642 234.126 115.13 209.884 124.031 208.303C132.929 206.723 189.897 230.385 190.551 236.235C193.332 261.003 158.863 270.492 154.771 427.542C98.1639 421.296 67.5945 428.053 25.8031 447.124" fill="#F2EEDD"/>
<path d="M90.3302 220.783L96.6846 229.394L100.325 227.275L109.425 228.732L111.974 232.18L162.963 220.573L154.687 216.668L94.8644 219.318L90.3302 220.783Z" fill="#DDD5B6"/>
<path d="M24.0001 508.206C24.0026 509.863 68.607 413.576 81.2886 403.564C81.2886 403.564 151.343 473.762 179.24 498.426C179.24 498.426 136.969 391.142 173.372 320.078C186.72 294.023 200.978 248.67 192.549 235.71C188.78 229.913 166.516 219.899 166.516 219.899C166.516 219.899 108.875 265.748 84.9165 333.206C84.9165 333.206 75.8331 247.302 84.4349 220.427C84.4349 220.427 42.977 227.315 40.8679 233.638C38.7563 239.965 23.9581 386.467 24.0001 508.206" fill="#5E4E51"/>
<path d="M93.7703 219.39L109.532 174.84L178.198 143.522L156.573 217.918L105.726 225.221L93.7703 219.39" fill="#FFB882"/>
<path d="M179.247 226.238C165.049 260.744 163.244 287.27 170.218 327.77C220.965 329.877 334.514 367.806 334.514 367.806L353.353 328.788C330.605 317.585 225.674 249.806 179.247 226.238" fill="#5E4E51"/>
<path d="M107.847 217.994L111.974 232.049L160.268 219.053L158.934 212.825L107.847 217.994" fill="#F2EEDD"/>
<path d="M97.0499 229.13L106.393 217.861L95.3508 213.885L91.2264 219.318L97.0499 229.13Z" fill="#F2EEDD"/>
<path d="M106.392 218.92C103.844 216.006 98.9885 210.303 98.2624 211.232C97.5338 212.161 88.0676 227.141 89.7692 229.925C91.4659 232.708 106.029 225.684 106.029 225.684L106.392 218.92Z" fill="#5E4E51"/>
<path d="M128.476 216.668C127.034 213.754 105.178 219.187 105.178 219.187L104.936 225.949C104.936 225.949 114.202 238.576 120.954 237.616C127.706 236.655 123.584 227.288 123.744 226.907C123.905 226.522 130.405 220.56 128.476 216.668" fill="#5E4E51"/>
<path d="M83.5756 223.544C83.8398 222.435 84.1263 221.39 84.435 220.427C84.1288 221.383 83.8472 222.438 83.5854 223.539C83.583 223.542 83.5756 223.544 83.5756 223.544ZM162.997 220.588C162.985 220.583 162.975 220.58 162.963 220.573C162.975 220.578 162.985 220.583 162.997 220.588ZM91.7501 220.205L91.2265 219.318L91.7525 220.205H91.7501ZM159.937 219.146L159.932 219.143L160.268 219.054L159.937 219.146" fill="#B58383"/>
<path d="M95.3411 270.917C94.0989 270.917 92.8887 270.865 91.7107 270.759C87.616 270.391 83.9881 269.551 80.8146 268.319C80.4936 250.962 81.0591 234.112 83.5756 223.544C83.5756 223.544 83.5831 223.542 83.5855 223.539C85.7983 222.63 88.0581 221.707 90.3302 220.783L91.7033 222.643C90.1449 225.888 89.1052 228.839 89.7695 229.926C90.0486 230.388 90.6834 230.578 91.5428 230.578C94.0742 230.58 98.5787 228.916 101.893 227.528L106.835 228.318C109.744 231.741 115.461 237.666 120.201 237.668C120.455 237.668 120.704 237.651 120.954 237.616C125.602 236.954 125.098 232.311 124.384 229.355L162.963 220.573C162.975 220.581 162.985 220.583 162.997 220.588C163.587 220.842 164.173 221.097 164.758 221.351C159.236 226.006 141.524 241.627 123.253 265.126C113.219 268.642 103.607 270.917 95.3411 270.917V270.917ZM90.3302 220.783L90.3326 220.781C90.8067 220.59 91.2785 220.398 91.7502 220.208V220.205H91.7526L91.8119 220.306L90.3302 220.783" fill="#AC7B72"/>
<path d="M124.384 229.355C124.332 229.145 124.28 228.943 124.229 228.75L159.932 219.143L159.937 219.145H159.935L162.963 220.573L124.384 229.355V229.355ZM106.835 228.318L101.893 227.527C103.204 226.979 104.328 226.473 105.074 226.132C105.333 226.475 105.956 227.283 106.835 228.318ZM91.7033 222.642L90.3302 220.783L91.812 220.306L92.3825 221.269C92.1479 221.731 91.9207 222.188 91.7033 222.642Z" fill="#9D6E5E"/>
<path d="M179.929 226.586C179.699 226.468 179.474 226.354 179.247 226.238C179.474 226.354 179.702 226.468 179.929 226.586ZM69.4417 223.312C76.7543 221.746 82.9334 220.681 84.1978 220.467C82.9309 220.681 76.7568 221.746 69.4417 223.312ZM84.2003 220.467C84.2201 220.462 84.2399 220.459 84.2571 220.457C84.2399 220.459 84.2201 220.462 84.2003 220.467ZM84.2621 220.454C84.267 220.454 84.2694 220.454 84.2744 220.454C84.2694 220.454 84.267 220.454 84.2621 220.454ZM84.2769 220.454C84.2967 220.449 84.3164 220.447 84.3337 220.444C84.3164 220.447 84.2967 220.449 84.2769 220.454ZM84.3387 220.442C84.3411 220.442 84.3435 220.442 84.346 220.442C84.3435 220.442 84.3411 220.442 84.3387 220.442ZM84.3608 220.439C84.3658 220.439 84.3682 220.437 84.3731 220.437C84.3682 220.437 84.3658 220.439 84.3608 220.439ZM84.3757 220.437C84.3782 220.437 84.3782 220.437 84.3806 220.435C84.3782 220.437 84.3782 220.437 84.3757 220.437ZM84.3856 220.435H84.388H84.3856ZM84.3929 220.435C84.4003 220.432 84.4078 220.432 84.4127 220.43C84.4078 220.432 84.4003 220.432 84.3929 220.435ZM84.4151 220.43C84.4176 220.43 84.4176 220.43 84.4201 220.43C84.4176 220.43 84.4176 220.43 84.4151 220.43ZM84.4201 220.43H84.4226H84.4201ZM84.425 220.427H84.4275H84.425ZM95.6767 214.004L95.3508 213.885L95.6767 214.001L108.353 178.161L95.6767 214.004ZM158.026 212.917L165.314 187.852L158.028 212.917H158.026Z" fill="#B58383"/>
<path d="M165.314 187.852L167.904 178.932L165.314 187.852Z" fill="#501610"/>
<path d="M80.8145 268.318C62.8676 261.337 59.5631 241.728 69.4417 223.311C76.7568 221.746 82.9309 220.681 84.1979 220.466H84.2004C84.2202 220.461 84.2399 220.459 84.2572 220.457C84.2597 220.457 84.2597 220.457 84.2622 220.454C84.2671 220.454 84.2695 220.454 84.2745 220.454C84.2745 220.454 84.2745 220.454 84.277 220.454C84.2967 220.449 84.3165 220.447 84.3338 220.444C84.3363 220.442 84.3363 220.442 84.3387 220.442C84.3412 220.442 84.3436 220.442 84.3461 220.442C84.351 220.439 84.356 220.439 84.3609 220.439C84.3659 220.439 84.3683 220.437 84.3732 220.437H84.3757C84.3782 220.437 84.3782 220.437 84.3807 220.434C84.3807 220.434 84.3832 220.434 84.3856 220.434H84.388C84.3905 220.434 84.393 220.434 84.393 220.434C84.4004 220.432 84.4078 220.432 84.4128 220.429C84.4152 220.429 84.4152 220.429 84.4152 220.429C84.4177 220.429 84.4177 220.429 84.4201 220.429H84.4227C84.4227 220.427 84.4226 220.427 84.4251 220.427H84.4276C84.4301 220.427 84.4301 220.427 84.4325 220.427C84.435 220.427 84.435 220.427 84.435 220.427C84.1263 221.39 83.8398 222.435 83.5755 223.544C81.0589 234.111 80.4935 250.962 80.8145 268.318V268.318ZM123.253 265.125C141.523 241.626 159.236 226.006 164.758 221.351C164.758 221.353 164.758 221.353 164.758 221.353C165.877 220.41 166.516 219.898 166.516 219.898C166.581 219.926 172.826 222.746 179.245 226.243L179.247 226.238C177.106 231.442 175.246 236.467 173.656 241.384C158.695 249.507 140.36 259.124 123.253 265.125" fill="#43282A"/>
<path d="M106.373 218.898C106.237 218.743 106.094 218.577 105.943 218.405L106.393 217.861L105.047 217.377C102.651 214.641 99.4901 211.131 98.4898 211.131C98.3935 211.131 98.317 211.163 98.2627 211.233C98.0774 211.47 97.3266 212.616 96.3363 214.241L95.6769 214.004L108.356 178.162L169.974 158.202C169.974 158.202 171.009 159.77 172.71 162.403L167.904 178.932L165.314 187.852L158.026 212.917L127.409 216.016C126.849 215.873 126.1 215.809 125.221 215.809C121.998 215.809 117 216.651 112.799 217.493L107.847 217.995L108.003 218.523C107.366 218.666 106.815 218.795 106.373 218.898" fill="#B55F43"/>
<path d="M173.656 241.384C175.246 236.467 177.106 231.442 179.247 226.238C179.475 226.354 179.699 226.468 179.929 226.586C183.204 228.258 186.78 230.162 190.563 232.222C185.775 234.743 180.02 237.929 173.656 241.384" fill="#43282A"/>
<path d="M124.228 228.75C123.954 227.727 123.702 227.006 123.744 226.907C123.905 226.522 130.405 220.56 128.476 216.668C128.325 216.367 127.955 216.152 127.409 216.016L158.025 212.917H158.028L158.934 212.825L160.268 219.054L159.932 219.143L124.228 228.75V228.75ZM108.003 218.523L107.847 217.994L112.799 217.493C110.981 217.858 109.312 218.224 108.003 218.523Z" fill="#AC7B72"/>
<path d="M92.3823 221.269L91.8118 220.306L91.7524 220.205L91.2264 219.318L95.3508 213.885L95.6768 214.003L96.3361 214.24C95.1705 216.157 93.6739 218.735 92.3823 221.269V221.269ZM105.943 218.404C105.662 218.083 105.36 217.737 105.047 217.377L106.393 217.861L105.943 218.404Z" fill="#AC7B72"/>
<path d="M91.5427 230.577C90.6833 230.577 90.0486 230.387 89.7695 229.925C89.1052 228.838 90.1449 225.887 91.7032 222.642C91.9206 222.188 92.1478 221.731 92.3824 221.269C93.674 218.735 95.1706 216.157 96.3363 214.24C97.3266 212.615 98.0774 211.469 98.2627 211.232C98.317 211.163 98.3935 211.131 98.4898 211.131C99.4901 211.131 102.651 214.64 105.047 217.377C105.36 217.737 105.662 218.083 105.943 218.404C106.094 218.577 106.237 218.743 106.373 218.898C105.617 219.078 105.178 219.187 105.178 219.187L104.936 225.949C104.936 225.949 104.985 226.013 105.074 226.132C104.328 226.473 103.204 226.979 101.893 227.527C98.5787 228.915 94.0741 230.58 91.5427 230.577" fill="#43282A"/>
<path d="M120.2 237.668C115.461 237.665 109.744 231.741 106.835 228.318C105.955 227.283 105.333 226.476 105.074 226.132C104.985 226.014 104.936 225.949 104.936 225.949L105.178 219.188C105.178 219.188 105.617 219.079 106.373 218.899C106.815 218.795 107.366 218.666 108.003 218.523C109.312 218.224 110.981 217.859 112.799 217.493C117 216.651 121.998 215.809 125.221 215.809C126.1 215.809 126.849 215.873 127.409 216.016C127.955 216.152 128.326 216.367 128.476 216.669C130.405 220.561 123.905 226.522 123.744 226.908C123.702 227.006 123.954 227.728 124.228 228.75C124.28 228.943 124.332 229.145 124.384 229.355C125.098 232.311 125.602 236.954 120.954 237.616C120.704 237.651 120.455 237.668 120.2 237.668" fill="#43282A"/>
<path d="M86.4923 190.685C89.8115 161.81 129.165 54.3231 160.599 72.8332C172.987 80.131 187.271 87.4659 183.535 122.137C179.793 156.809 158.907 200.781 158.907 200.781C158.907 200.781 106.919 204.179 86.4923 190.685" fill="#FFB882"/>
<path d="M161.71 171.814L154.245 167.196C154.245 167.196 172.063 91.0421 183.28 90.516C194.497 89.9875 191.924 131.359 181.282 149.805C170.638 168.251 161.71 171.814 161.71 171.814Z" fill="#702C1E"/>
<path d="M164.514 156.574C171.132 147.799 184.13 142.129 184.945 151.494C185.76 160.859 161.753 176.642 158.307 179.053C154.86 181.458 160.476 161.926 164.514 156.574Z" fill="#FFB882"/>
<path d="M128.422 164.146L110.883 153.297L96.1536 152.462C88.6063 166.028 83.8991 184.358 82.973 192.406C90.7623 197.553 110.48 200.517 122.473 200.228L128.422 164.146" fill="#844535"/>
<path d="M122.317 164.598L98.8084 156.71C92.9627 167.221 87.8975 180.989 87.1788 187.222C93.2122 191.211 106.444 193.327 115.738 193.102L122.317 164.598" fill="#FFB882"/>
<path d="M99.8504 188.413L99.6505 177.694L105.997 180.078L99.8504 188.413Z" fill="#844535"/>
<path d="M100.947 183.505L102.162 194.693L94.8915 192.132L100.947 183.505Z" fill="#844535"/>
<path d="M166.921 157.061C171.078 151.554 179.235 147.992 179.746 153.87C180.26 159.748 165.19 169.661 163.027 171.17C160.863 172.684 164.387 160.422 166.921 157.061" fill="#EA7B59"/>
<path d="M163.899 163.275C166.329 159.106 171.656 155.903 172.463 159.894C173.271 163.885 163.691 172.089 162.32 173.329C160.952 174.566 162.419 165.816 163.899 163.275" fill="#FFB882"/>
<path d="M115.701 113.17C117.407 109.058 120.497 106.623 122.591 107.737C124.678 108.841 124.977 113.086 123.258 117.198C121.544 121.3 118.462 123.74 116.38 122.631C114.278 121.523 113.974 117.287 115.701 113.17" fill="#4F3131"/>
<path d="M133.317 114.114C131.625 111.086 106.252 141.984 104.992 146.649C104.36 148.966 117.533 153.389 117.533 153.389C117.533 153.389 133.635 114.66 133.317 114.114" fill="#FFB882"/>
<path d="M131.637 114.748C125.066 120.89 106.825 142.443 105.805 146.355C105.341 148.123 113.236 151.22 116.75 152.395C116.405 153.198 116.219 153.665 116.219 153.665C116.219 153.665 102.105 149.634 102.762 147.372C104.032 143.006 128.313 114.894 131.637 114.748Z" fill="#EA7B59"/>
<path d="M140.736 121.219C142.465 117.102 145.547 114.676 147.636 115.785C149.743 116.882 150.036 121.125 148.32 125.229C146.609 129.346 143.517 131.784 141.415 130.682C139.323 129.568 139.024 125.328 140.736 121.219" fill="#4F3131"/>
<path d="M139.987 111.55C142.931 117.21 159.885 121.463 161.785 119.43C163.691 117.398 164.901 115.054 161.656 112.503C158.413 109.952 143.457 101.271 140.795 102.486C138.13 103.699 138.634 108.939 139.987 111.55" fill="#7C4431"/>
<path d="M129.235 107.038C125.352 110.273 113.592 103.805 113.211 100.871C112.839 97.9223 112.994 95.1118 115.889 94.8155C118.798 94.5191 131.015 95.8651 132.159 98.5447C133.295 101.219 131.03 105.554 129.235 107.038Z" fill="#7C4431"/>
<path d="M102.041 172.02C102.258 171.293 103.856 171.202 105.612 171.82C107.368 172.434 108.615 173.521 108.4 174.25C108.183 174.976 106.583 175.065 104.829 174.45C103.073 173.835 101.826 172.746 102.041 172.02Z" fill="#EA7B59"/>
<path d="M100.026 164.324C104.987 165.349 114.543 169.323 118.447 172.758C118.338 172.474 118.247 172.168 118.116 171.916C116.291 168.374 103.53 163.134 98.265 162.353C97.9983 162.314 97.7217 162.328 97.4402 162.361L100.026 164.324" fill="#EA7B59"/>
<path d="M129.933 70.502C123.379 69.1091 118.104 53.202 125.745 47.0353C133.391 40.8711 139.943 41.2687 139.943 41.2687C139.943 41.2687 129.388 48.0306 136.12 53.7973C142.855 59.5639 129.933 70.502 129.933 70.502Z" fill="#844535"/>
<path d="M155.232 63.3425C141.644 60.495 145.344 35.3021 160.026 32.6497C160.026 32.6497 150.35 40.2612 158.198 46.1834C166.045 52.1056 155.232 63.3425 155.232 63.3425Z" fill="#844535"/>
<path d="M163.392 55.9211C157.181 53.407 159.621 34.8279 168.408 29.2811C177.193 23.7317 183.604 25.1666 183.604 25.1666C183.604 25.1666 170.337 34.4821 174.249 42.9481C178.158 51.4165 163.392 55.9211 163.392 55.9211" fill="#844535"/>
<path d="M187.464 64.019C181.213 61.6185 176.58 45.2916 184.698 38.9619C195.142 30.8244 205.312 33.4422 205.312 33.4422C205.312 33.4422 187.084 41.2685 198.674 59.4427C203.339 66.7652 187.464 64.019 187.464 64.019" fill="#844535"/>
<path d="M197.031 65.7354C192.346 64.2166 188.753 53.5601 194.762 49.3493C202.487 43.9309 210.101 45.5584 210.101 45.5584C210.101 45.5584 196.562 50.8409 205.361 62.6434C208.903 67.3999 197.031 65.7354 197.031 65.7354" fill="#844535"/>
</g>
<defs>
<clipPath id="clip0">
<rect width="278" height="278" fill="white"/>
</clipPath>
</defs>
</svg>
