<svg width="580" height="278" viewBox="0 0 580 278" fill="none" xmlns="http://www.w3.org/2000/svg">
<rect width="580" height="278" fill="white"/>
<g clip-path="url(#clip0)">
<rect x="151" width="278" height="278" fill="white"/>
<path d="M358.664 190.795H365.634V186.59H358.664V190.795Z" fill="#FFE69E"/>
<path d="M368.291 152.448L362.071 149.233L363.839 146.449L370.06 149.664L368.291 152.448Z" fill="#D5ADE7"/>
<path d="M236.202 195.526L233.955 193.721L239.216 187.706L241.462 189.511L236.202 195.526Z" fill="#DCE9A4"/>
<path d="M253.639 9.96729L253.695 7.90714L261.221 7L261.165 9.06099L253.639 9.96729Z" fill="#FFA8C9"/>
<path d="M406.597 96.2271L404.875 93.3345L408.223 91.1073L409.945 93.9999L406.597 96.2271Z" fill="#DCE9A4"/>
<path d="M424.508 172.235L422.785 169.341L426.133 167.114L427.854 170.007L424.508 172.235Z" fill="#ADD2F1"/>
<path d="M421.707 141.733L418.738 141.158L419.741 138.219L422.712 138.796L421.707 141.733Z" fill="#D5ADE7"/>
<path d="M361.78 27.7217L358.764 25.795L361.361 22.0372L364.152 16.5894L366.452 19.1404L362.442 22.315L361.78 27.7217" fill="#FFB6C8"/>
<path d="M226.106 169.92L227.313 166.283L231.741 167.463L236.656 164.349L236.289 168.159L231.964 168.548L226.106 169.92" fill="#FFB6C8"/>
<path d="M391.894 57.2275C391.923 56.2902 391.933 55.3621 391.922 54.4465L392.86 54.1042L397.062 51.7461L397.827 54.8989L393.572 54.919L391.894 57.2275" fill="#FFF3B7"/>
<path d="M367.116 138.171L363.323 134.015L359.376 134.171L360.804 132.277L364.055 133.377L368.138 134.197L367.116 138.171" fill="#ADD2F1"/>
<path d="M285.153 35.8213L278.433 33.501L279.384 31.5307L286.103 33.8501L285.153 35.8213" fill="#FFE69E"/>
<path d="M263.834 80.2222L262.113 77.3296L265.46 75.1016L267.182 77.9959L263.834 80.2222" fill="#DCE9A4"/>
<path d="M289.404 59.2505L286.434 58.674L287.438 55.7361L290.408 56.3126L289.404 59.2505" fill="#D5ADE7"/>
<path d="M158.735 152.253L152.514 149.038L154.283 146.253L160.504 149.468L158.735 152.253Z" fill="#D5ADE7"/>
<path d="M182.097 79.9282L180.375 77.0348L183.723 74.8085L185.444 77.7011L182.097 79.9282" fill="#DCE9A4"/>
<path d="M219.416 26.5444L217.694 23.6518L221.042 21.4239L222.763 24.3173L219.416 26.5444Z" fill="#ADD2F1"/>
<path d="M213.333 122.232L220.36 134.67C222.206 132.514 225.976 129.831 227.38 129.487L224.125 119.325C224.125 119.325 217.799 122.985 213.333 122.232" fill="#FFB882"/>
<path d="M217.039 123.341C216.085 123.118 214.441 121.763 212.505 120.716C207.895 118.22 202.612 116.848 201.963 117.518C201.021 118.489 201.112 119.746 201.586 120.442C202.06 121.137 209.562 122.681 209.01 126.374C208.724 128.287 204.898 129.392 204.637 130.3C204.069 132.282 210.647 137.806 212.565 139.023C214.483 140.24 219.943 137.544 221.957 132.903C222.696 131.201 217.039 123.341 217.039 123.341" fill="#FFB882"/>
<path d="M207.728 128.041C205.77 129.342 203.172 131.26 202.399 131.413C201.626 131.568 197.135 132.362 196.863 132.915C196.59 133.468 196.182 135.714 197.243 135.904C198.303 136.093 203.239 135.138 204.292 134.527C205.344 133.913 208.87 132.229 209.048 131.813C209.226 131.395 208.822 127.314 207.728 128.041Z" fill="#FFB882"/>
<path d="M208.9 132.241C207.104 133.826 204.737 136.121 203.996 136.384C203.253 136.645 198.934 138.069 198.718 138.666C198.502 139.262 198.308 141.585 199.363 141.63C200.417 141.675 205.158 140.029 206.131 139.263C207.105 138.5 210.399 136.31 210.535 135.865C210.671 135.42 209.903 131.356 208.9 132.241" fill="#FFB882"/>
<path d="M213.595 135.098C211.837 136.738 209.521 139.107 208.786 139.391C208.052 139.674 203.774 141.222 203.57 141.827C203.366 142.432 203.217 144.767 204.268 144.783C205.32 144.798 210.013 143.012 210.968 142.219C211.925 141.426 215.166 139.137 215.294 138.687C215.421 138.237 214.579 134.181 213.595 135.098" fill="#FFB882"/>
<path d="M343.951 274.356H353.763C353.763 274.356 344.693 270.031 344.033 270.392C343.374 270.752 343.951 274.356 343.951 274.356" fill="#847276"/>
<path d="M290.145 274.356H282.026C282.026 274.356 288.382 270.031 288.97 270.392C289.557 270.752 290.145 274.356 290.145 274.356Z" fill="#847276"/>
<path d="M296.041 132.318C296.041 131.348 295.634 130.562 295.133 130.562C294.633 130.562 294.226 131.348 294.226 132.318C294.226 133.288 294.633 134.075 295.133 134.075C295.634 134.075 296.041 133.288 296.041 132.318Z" fill="#DDD5B6"/>
<path d="M296.041 140.652C296.041 139.681 295.634 138.895 295.133 138.895C294.633 138.895 294.226 139.681 294.226 140.652C294.226 141.622 294.633 142.409 295.133 142.409C295.634 142.409 296.041 141.622 296.041 140.652Z" fill="#DDD5B6"/>
<path d="M321.586 76.2622L322.467 73.2311L321.586 76.2622Z" fill="#501610"/>
<path d="M321.105 67.9105C321.931 66.494 323.741 65.4056 324.016 66.7617C324.29 68.1177 321.035 70.9054 320.569 71.3267C320.104 71.7471 320.603 68.774 321.105 67.9105" fill="#FFB882"/>
<path d="M228.114 127.81C227.923 127.119 227.151 126.761 226.387 127.012C225.624 127.263 225.16 128.027 225.35 128.718C225.54 129.408 226.313 129.765 227.077 129.514C227.839 129.263 228.304 128.5 228.114 127.81Z" fill="#B2A887"/>
<path d="M233.062 126.188C232.871 125.497 232.098 125.14 231.335 125.391C230.573 125.642 230.108 126.405 230.298 127.096C230.488 127.788 231.261 128.143 232.024 127.894C232.786 127.643 233.251 126.88 233.062 126.188" fill="#B2A887"/>
<path d="M372.334 131.079C372.512 130.385 372.036 129.63 371.269 129.395C370.502 129.158 369.735 129.53 369.556 130.224C369.377 130.918 369.853 131.673 370.62 131.91C371.387 132.145 372.154 131.774 372.334 131.079Z" fill="#B2A887"/>
<path d="M377.305 132.612C377.484 131.918 377.008 131.163 376.241 130.927C375.473 130.692 374.706 131.063 374.527 131.757C374.349 132.451 374.825 133.206 375.592 133.442C376.359 133.678 377.126 133.306 377.305 132.612" fill="#B2A887"/>
<path d="M198.733 82.2487L235.822 85.3066C235.822 85.3066 238.446 60.7578 230.265 46.5903C221.777 31.8974 205.674 31.889 200.712 35.5738C183.16 48.6068 198.733 82.2487 198.733 82.2487" fill="#AF334B"/>
<path d="M213.851 54.5506C221.136 49.3251 223.029 45.7503 224.262 39.9391C226.551 41.5662 228.617 43.7363 230.265 46.5903C238.447 60.7578 235.822 85.3066 235.822 85.3066L198.733 82.2487C198.733 82.2487 196.49 72.1855 195.68 61.2907C200.888 61.3637 207.543 59.0753 213.851 54.5506" fill="#992541"/>
<path d="M228.533 84.7046L198.933 82.2651C201.277 71.1328 204.157 61.6713 211.352 62.5239C218.301 63.3488 227.375 73.6629 228.533 84.7046Z" fill="#7C1E39"/>
<path d="M198.893 86.5225C191.455 92.1566 181.046 109.87 180.222 111.378C179.397 112.886 181.656 116.653 184.265 116.162C186.874 115.67 198.57 99.4296 201.728 95.4344C205.208 91.0321 203.9 82.7286 198.893 86.5225Z" fill="#F2EDB6"/>
<path d="M180.221 111.378C180.417 111.021 181.157 109.744 182.264 107.939C182.338 108.34 182.486 108.643 182.734 108.808C184.472 109.971 189.973 104.493 195.022 96.5731C197.588 92.5468 199.539 88.6682 200.613 85.6716C204.377 84.8735 205.767 92.2548 202.716 96.1141C199.558 100.109 187.149 116.576 184.539 117.068C181.93 117.56 179.397 112.886 180.221 111.378" fill="#E5DC98"/>
<path d="M216.241 272.68H214.99L215.358 171.175L226.942 166.708L216.241 272.68" fill="#FFB882"/>
<path d="M215.692 243.11C215.489 243.11 215.291 243.165 215.097 243.261L215.358 171.174L226.941 166.707L218.828 247.061C217.885 244.573 216.802 243.11 215.692 243.11Z" fill="#FF9566"/>
<path d="M211.739 272.68H210.489L198.762 168.084L209.812 163.481L211.739 272.68" fill="#FFB882"/>
<path d="M206.695 238.84L198.762 168.084L209.812 163.481L211.313 248.503C209.875 244.222 208.272 240.854 206.695 238.84" fill="#FF9566"/>
<path d="M224.617 227.991L199.456 223.958C199.456 223.958 184.849 169.02 196.859 129.96L216.452 125.675C216.452 125.675 230.699 145.08 231.843 155.413C232.99 165.744 224.617 227.991 224.617 227.991" fill="#634B52"/>
<path d="M223.196 197.372C222.101 168.77 214.179 141.175 204.165 141.175C200.656 141.175 195.607 141.81 193.166 147.947C193.912 141.759 195.098 135.688 196.859 129.96L216.452 125.675C216.452 125.675 230.699 145.08 231.843 155.413C232.989 165.744 224.617 227.991 224.617 227.991L220.979 227.408C222.772 218.935 223.624 208.573 223.196 197.372Z" fill="#513A41"/>
<path d="M219.228 128.531C219.228 128.531 212.15 135.251 204.789 138.947L200.383 132.731L197.998 140.124L193.728 137.436C193.728 137.436 201.683 114.418 193.801 104.506L218.103 100.222C218.103 100.222 210.574 112.571 219.228 128.531" fill="#F2EDB6"/>
<path d="M210.388 135.596C208.587 128.338 205.374 119.981 202.053 120.145C199.005 120.296 195.961 130.323 194.775 138.095L193.728 137.436C193.728 137.436 201.683 114.419 193.801 104.506L218.103 100.223C218.103 100.223 210.574 112.571 219.228 128.531C219.228 128.531 215.368 132.192 210.388 135.596" fill="#E5DC98"/>
<path d="M225.579 85.5904C224.211 92.8986 216.525 107.993 211.644 111.144C206.763 114.293 192.736 112.614 191.538 110.723C190.34 108.833 191.255 91.6307 199.791 85.9605C208.326 80.2903 226.099 82.8178 225.579 85.5904" fill="#F2EDB6"/>
<path d="M205.107 100.412L213.987 100.475L209.865 107.153L201.43 107.278L205.107 100.412" fill="#E5DC98"/>
<path d="M209.362 97.7092L212.684 97.7327L211.143 100.232L207.988 100.278L209.362 97.7092" fill="#E5DC98"/>
<path d="M209.369 97.651L211.535 97.6669L210.53 99.2966L208.472 99.3276L209.369 97.651Z" fill="#FFF9D9"/>
<path d="M204.89 99.6553L213.77 99.7182L209.649 106.396L201.214 106.523L204.89 99.6553Z" fill="#FFF9D9"/>
<path d="M209.568 100.22L212.644 100.241L210.456 103.916L207.535 103.96L209.568 100.22" fill="#E5DEBE"/>
<path d="M205.408 100.455L208.985 100.472L208.672 100.755L205.204 100.784L205.408 100.455" fill="#E5DEBE"/>
<path d="M204.899 101.295L208.476 101.311L208.163 101.594L204.695 101.624L204.899 101.295" fill="#E5DEBE"/>
<path d="M204.475 102.219L208.052 102.235L207.74 102.518L204.272 102.548L204.475 102.219Z" fill="#E5DEBE"/>
<path d="M208.736 109.211C213.617 106.061 222.945 82.9605 225.69 86.1098C224.322 93.4181 217.696 109.169 212.815 112.319C207.933 115.47 192.736 112.614 191.538 110.723C191.448 110.581 191.372 110.342 191.308 110.039C196.392 111.44 205.155 111.522 208.736 109.211Z" fill="#E5DC98"/>
<path d="M226.183 85.8398C222.601 80.3803 217.463 88.1106 219.376 93.5911C221.112 98.5632 227.684 118.838 230.035 120.266C232.386 121.694 235.364 117.085 235.062 115.342C234.76 113.6 231.504 93.9495 226.183 85.8398Z" fill="#F2EDB6"/>
<path d="M219.449 92.5247C222.95 102.528 228.178 110.622 230.817 111.4C233.455 112.178 232.757 104.699 229.256 94.6964C227.972 91.0276 226.489 87.5334 224.997 84.535C225.404 84.8355 225.802 85.2592 226.183 85.8399C231.504 93.9496 235.744 114.679 236.045 116.422C236.348 118.164 232.386 121.694 230.036 120.267C227.684 118.838 220.861 99.2095 219.125 94.2366C218.715 93.0609 218.63 91.7804 218.784 90.5493C218.994 91.1955 219.214 91.8534 219.449 92.5247" fill="#E5DC98"/>
<path d="M225.888 118.519C225.888 118.519 231.301 125.97 236.598 123.404C238.72 122.377 237.918 114.541 235.583 113.113C233.249 111.684 225.907 114.629 225.157 116.869C224.938 117.52 225.888 118.519 225.888 118.519" fill="#C19B81"/>
<path d="M225.506 116.275C226.81 117.88 229.08 118.955 231.634 118.955C234.089 118.955 236.211 117.965 237.421 116.462C238.114 119.245 237.968 122.741 236.598 123.404C231.301 125.97 225.888 118.519 225.888 118.519C225.888 118.519 224.938 117.52 225.157 116.869C225.221 116.675 225.35 116.475 225.506 116.275Z" fill="#A3795D"/>
<path d="M234.658 120.169C234.886 124.37 220.864 145.187 220.864 145.187L219.335 144.89C219.335 144.89 225.311 123.068 227.015 120.524C228.718 117.981 234.26 112.879 234.658 120.169Z" fill="#FFB882"/>
<path d="M231.392 119.625C231.212 118.427 230.905 117.604 230.512 117.063C232.726 115.571 235.096 115.264 235.336 119.673C235.566 123.873 220.864 145.187 220.864 145.187L220.49 145.114C223.111 140.369 231.928 123.196 231.392 119.625Z" fill="#FF9566"/>
<path d="M182.871 105.627C182.871 105.627 184.801 106.321 184.995 107.335C185.591 110.449 186.611 116.641 185.506 117.548C183.461 119.223 175.82 116.247 175.053 113.938C174.286 111.631 182.871 105.627 182.871 105.627" fill="#C19B81"/>
<path d="M175.423 112.926C177.281 114.472 180.844 113.185 183.381 110.05C184.076 109.19 184.616 108.282 185.005 107.383C185.601 110.513 186.606 116.646 185.506 117.548C183.461 119.223 175.82 116.247 175.053 113.938C174.944 113.611 175.038 113.206 175.254 112.757L175.423 112.926" fill="#A3795D"/>
<path d="M176.77 112.305C174.217 109.051 172.226 80.9433 172.226 80.9433L173.387 80.47C173.387 80.47 183.408 104.532 183.56 107.441C183.714 110.349 181.2 117.954 176.77 112.305Z" fill="#FFB882"/>
<path d="M176.261 108.631C179.946 114.355 181.729 106.825 181.525 103.921C181.412 102.323 178.484 94.3296 176.21 87.3587C179.037 94.7677 183.461 105.551 183.56 107.441C183.714 110.349 181.201 117.954 176.77 112.305C175.072 110.141 173.623 96.9872 172.844 88.4169C173.734 96.6482 175.04 106.734 176.261 108.631Z" fill="#FF9566"/>
<path d="M220.007 83.3553C218.121 85.7268 207.989 98.1782 199.689 102.616C199.689 102.616 196.6 92.7934 204.369 83.9075C209.435 82.4188 215.607 82.5472 220.007 83.3553" fill="#FFB882"/>
<path d="M216.712 83.4637C216.697 83.0861 217.021 65.4503 217.021 65.4503L209.218 67.3351L206.742 84.3457L216.712 83.4637" fill="#FFB882"/>
<path d="M214.109 273.604H222.612C222.612 273.604 216.186 268.19 215.349 268.816C214.51 269.442 213.681 270.959 214.109 273.604" fill="#F2EDB6"/>
<path d="M212.275 273.604H199.604C199.604 273.604 209.156 268.358 210.598 268.984C212.04 269.61 212.711 270.959 212.275 273.604Z" fill="#F2EDB6"/>
<path d="M201.932 87.2717C198.126 94.7016 200.273 101.545 200.273 101.545C207.722 97.5623 216.643 87.1282 219.758 83.3167C219.839 83.331 219.927 83.341 220.007 83.3553C218.121 85.7268 207.989 98.1782 199.689 102.616C199.689 102.616 197.327 95.1019 201.932 87.2717" fill="#FF9566"/>
<path d="M202.216 96.7579L201.148 101.545L199.864 102.302L199.535 100.72L202.216 96.7579" fill="#FF9566"/>
<path d="M219.592 143.96C218.923 145.536 217.608 146.901 217.498 147.564C217.296 148.75 218.703 148.537 219.07 148.992C219.237 149.199 219.471 149.348 219.737 149.412C221.007 149.719 222.505 149.742 222.798 149.187C222.798 149.187 220.404 146.288 220.943 144.822C221.484 143.357 220.368 142.133 219.592 143.96" fill="#FFB882"/>
<path d="M172.523 84.1938C172.375 82.6481 171.79 81.6361 171.363 81.5295C170.936 81.4229 169.107 81.6067 168.644 81.2601C168.181 80.9136 169.135 79.2915 170.316 79.0506C171.497 78.8106 171.897 79.1958 172.923 79.0624C173.949 78.9298 173.825 80.9883 173.982 81.9516C174.141 82.915 172.523 84.1938 172.523 84.1938" fill="#FFB882"/>
<path d="M168.865 81.3633C167.618 81.1031 165.324 79.2108 165.225 78.704C165.126 78.198 168.226 80.4109 168.862 80.4369C169.498 80.4637 168.865 81.3633 168.865 81.3633Z" fill="#FFB882"/>
<path d="M169.516 80.3613C168.288 80.0097 166.133 77.9571 166.071 77.4461C166.01 76.935 168.947 79.3652 169.581 79.4391C170.215 79.5129 169.516 80.3613 169.516 80.3613Z" fill="#FFB882"/>
<path d="M170.914 79.875C169.712 79.4302 167.714 77.2233 167.692 76.7105C167.669 76.1978 170.422 78.8412 171.049 78.9637C171.678 79.0862 170.914 79.875 170.914 79.875" fill="#FFB882"/>
<path d="M173.82 81.0493C173.81 79.2283 173.214 77.9881 172.85 77.576C172.486 77.1632 172.08 76.2065 171.762 76.3685C171.444 76.5304 172.112 77.7221 172.225 78.0611C172.339 78.3993 171.786 79.298 171.961 79.5262C172.413 80.1145 173.82 81.0493 173.82 81.0493" fill="#FFB882"/>
<path d="M196.174 88.9556C197.099 88.0165 198.005 87.1967 198.87 86.5388C198.005 87.1967 197.099 88.0174 196.174 88.9556ZM198.871 86.538C198.878 86.5329 198.885 86.527 198.893 86.522C198.885 86.527 198.878 86.5329 198.871 86.538ZM198.893 86.522C198.952 86.4767 199.011 86.4339 199.069 86.3919C199.011 86.4339 198.951 86.4767 198.893 86.522ZM226.269 85.9715C226.267 85.969 226.265 85.9656 226.263 85.9631C226.265 85.9656 226.267 85.969 226.269 85.9715ZM226.258 85.9539C226.233 85.9161 226.208 85.8775 226.183 85.8398C226.208 85.8775 226.233 85.9161 226.258 85.9539Z" fill="#B58383"/>
<path d="M216.721 82.6455C216.769 79.2503 217.003 66.4782 217.02 65.509C217.003 66.4782 216.769 79.2603 216.721 82.6455ZM217.02 65.5048V65.504C217.02 65.5048 217.02 65.5048 217.02 65.5048ZM217.02 65.5006C217.02 65.4931 217.02 65.4855 217.021 65.4788C217.02 65.4855 217.02 65.4931 217.02 65.5006ZM217.021 65.4788C217.021 65.4763 217.021 65.4738 217.021 65.4713C217.021 65.4738 217.021 65.4763 217.021 65.4788ZM217.021 65.4696C217.021 65.4679 217.021 65.4662 217.021 65.4645C217.021 65.4662 217.021 65.4679 217.021 65.4696ZM217.021 65.4629C217.021 65.4587 217.021 65.4562 217.021 65.4545C217.021 65.4562 217.021 65.4587 217.021 65.4629ZM217.021 65.4536C217.021 65.4528 217.021 65.452 217.021 65.452C217.021 65.452 217.021 65.4528 217.021 65.4536Z" fill="#58101D"/>
<path d="M196.311 89.3818C196.264 89.2409 196.217 89.0999 196.174 88.9564C197.099 88.0182 198.005 87.1975 198.87 86.5396C198.87 86.5396 198.871 86.5396 198.871 86.5388C198.878 86.5337 198.885 86.5278 198.893 86.5228C198.951 86.4775 199.011 86.4347 199.069 86.3928C199.34 86.2006 199.599 86.0462 199.847 85.9228C199.828 85.9354 199.809 85.948 199.791 85.9606C198.45 86.8509 197.297 88.0258 196.311 89.3818" fill="#AC7A5E"/>
<path d="M208.119 97.4497C207.693 97.4497 207.277 97.4338 206.869 97.4019C213.015 91.9968 218.649 85.0628 220.007 83.3551C218.992 83.1689 217.884 83.0186 216.717 82.9163C216.718 82.834 216.719 82.7434 216.721 82.6452C216.721 82.6461 216.721 82.6477 216.721 82.6486C219.724 82.8458 222.324 83.3619 223.918 84.024C223.76 83.9913 223.601 83.9753 223.443 83.9753C221.094 83.9753 218.94 87.5333 218.963 91.0939C218.903 90.911 218.843 90.7297 218.784 90.5493C218.655 91.5823 218.694 92.6497 218.951 93.6609C218.767 93.9789 218.583 94.3012 218.397 94.6268C215.047 96.42 211.515 97.4497 208.119 97.4497V97.4497ZM199.379 94.25C198.002 92.9484 196.964 91.297 196.312 89.3812C197.298 88.0251 198.451 86.8503 199.791 85.9599C199.809 85.9473 199.828 85.9347 199.847 85.9221C199.855 85.9188 199.863 85.9146 199.871 85.9104C201.844 84.6198 204.3 83.763 206.903 83.2385L206.893 83.3099C206.032 83.4693 205.186 83.6673 204.369 83.9073C203.396 85.0209 202.592 86.1504 201.931 87.2732C201.931 87.2724 201.931 87.2724 201.932 87.2715C201.513 87.9857 201.151 88.6956 200.84 89.3988C200.84 89.3988 200.84 89.3996 200.839 89.3996C200.835 89.408 200.831 89.4164 200.828 89.4256C200.827 89.4265 200.826 89.429 200.825 89.4307C200.819 89.4449 200.814 89.4575 200.808 89.4718C200.805 89.4777 200.803 89.4835 200.8 89.4886C200.795 89.4987 200.791 89.5104 200.786 89.5205C200.784 89.5255 200.782 89.5305 200.78 89.5356C200.776 89.5448 200.771 89.5557 200.767 89.5658C200.764 89.5725 200.761 89.5784 200.758 89.5851C200.756 89.591 200.753 89.5977 200.751 89.6036C200.746 89.6136 200.741 89.6237 200.737 89.6338C200.735 89.6396 200.733 89.6447 200.731 89.6497C200.726 89.6589 200.723 89.6682 200.719 89.6774C200.716 89.6833 200.714 89.6883 200.711 89.6942C200.708 89.7034 200.704 89.7118 200.7 89.721C200.699 89.7252 200.696 89.7303 200.694 89.7344C200.69 89.7445 200.685 89.7571 200.681 89.768C200.679 89.7722 200.677 89.7764 200.675 89.7806C200.67 89.7932 200.665 89.8049 200.66 89.8175C200.659 89.8192 200.658 89.8217 200.657 89.8242C200.652 89.8377 200.646 89.8511 200.641 89.8645C200.64 89.8654 200.64 89.8662 200.639 89.8679C200.633 89.8813 200.627 89.8956 200.622 89.909C200.621 89.9098 200.621 89.9098 200.621 89.9107C200.616 89.9249 200.61 89.9384 200.604 89.9526C200.604 89.9543 200.603 89.9552 200.602 89.9568C199.995 91.4489 199.609 92.8973 199.379 94.25" fill="#AC7A5E"/>
<path d="M218.396 94.627C218.583 94.3014 218.767 93.9791 218.951 93.6611C219 93.8516 219.057 94.0395 219.12 94.225C218.88 94.3635 218.639 94.4977 218.396 94.627" fill="#A3714E"/>
<path d="M219.895 93.7661C219.743 93.3558 219.595 92.9421 219.449 92.525C219.28 92.0416 219.118 91.565 218.963 91.0942C218.939 87.5337 221.094 83.9756 223.443 83.9756C223.601 83.9756 223.76 83.9916 223.918 84.0243C223.928 84.0285 223.939 84.0327 223.949 84.0377C224.3 84.1158 224.651 84.2777 224.996 84.5353C225.569 85.6842 226.139 86.906 226.697 88.1823C224.647 90.37 222.335 92.2674 219.895 93.7661" fill="#AC7A5E"/>
<path d="M219.121 94.2246C219.057 94.0392 219 93.8512 218.951 93.6607C218.693 92.6495 218.655 91.5821 218.784 90.5491C218.843 90.7295 218.902 90.9108 218.963 91.0937C219.118 91.5645 219.28 92.0411 219.449 92.5245C219.595 92.9415 219.743 93.3552 219.895 93.7656C219.638 93.9234 219.381 94.0761 219.121 94.2246ZM226.697 88.1818C226.139 86.9055 225.569 85.6836 224.996 84.5348C225.091 84.6053 225.186 84.6834 225.28 84.7681L225.33 84.8134C225.41 84.8881 225.492 84.9678 225.573 85.0551L225.698 85.1994L225.873 85.4092C225.978 85.5427 226.081 85.6853 226.183 85.8397C226.208 85.8775 226.232 85.9161 226.258 85.9539C226.259 85.9572 226.261 85.9597 226.263 85.9631C226.265 85.9656 226.267 85.969 226.269 85.9715C226.592 86.4733 226.91 87.0229 227.224 87.6087C227.05 87.8017 226.874 87.993 226.697 88.1818" fill="#A3714E"/>
<path d="M206.274 97.3438C203.682 97.0366 201.49 96.0749 199.775 94.6056C199.994 92.4145 200.597 89.8794 201.931 87.2738C202.592 86.151 203.396 85.0215 204.369 83.9079C205.186 83.6679 206.031 83.4699 206.893 83.3105L206.742 84.346L216.712 83.464C216.711 83.4279 216.712 83.2358 216.716 82.9169C217.884 83.0193 218.992 83.1695 220.007 83.3558C219.927 83.3415 219.839 83.3314 219.758 83.3172C217.456 86.1351 211.981 92.5698 206.274 97.3438ZM199.379 94.2506C199.609 92.8979 199.995 91.4495 200.602 89.9575C199.995 91.4495 199.609 92.8987 199.379 94.2506ZM200.604 89.9533C200.61 89.939 200.616 89.9256 200.621 89.9113C200.616 89.9247 200.61 89.9398 200.604 89.9533ZM200.622 89.9096C200.627 89.8962 200.633 89.8819 200.639 89.8685C200.633 89.8819 200.627 89.8962 200.622 89.9096ZM200.641 89.8651C200.646 89.8517 200.652 89.8383 200.657 89.8249C200.652 89.8383 200.646 89.8517 200.641 89.8651ZM200.66 89.8181C200.665 89.8056 200.67 89.7938 200.675 89.7812C200.67 89.7938 200.665 89.8056 200.66 89.8181ZM200.681 89.7686C200.685 89.7577 200.69 89.7451 200.694 89.7351C200.69 89.746 200.685 89.7569 200.681 89.7686ZM200.7 89.7216C200.704 89.7124 200.708 89.704 200.711 89.6948C200.708 89.704 200.704 89.7133 200.7 89.7216ZM200.719 89.678C200.723 89.6688 200.726 89.6595 200.73 89.6503C200.727 89.6595 200.723 89.6688 200.719 89.678ZM200.737 89.6344C200.741 89.6243 200.746 89.6142 200.751 89.6042C200.746 89.6142 200.741 89.6243 200.737 89.6344ZM200.758 89.5857C200.761 89.579 200.764 89.5731 200.767 89.5664C200.764 89.5731 200.761 89.579 200.758 89.5857ZM200.78 89.5362C200.782 89.5312 200.784 89.5261 200.786 89.5211C200.784 89.5261 200.782 89.5303 200.78 89.5362ZM200.8 89.4892C200.803 89.4842 200.805 89.4783 200.808 89.4724C200.805 89.4783 200.803 89.4833 200.8 89.4892ZM200.825 89.4313C200.826 89.4296 200.827 89.4271 200.828 89.4263C200.827 89.4271 200.826 89.4296 200.825 89.4313ZM200.839 89.4002C200.84 89.4002 200.84 89.3994 200.84 89.3994C200.84 89.3994 200.84 89.4002 200.839 89.4002Z" fill="#B55F43"/>
<path d="M206.742 84.3457L206.893 83.3102L206.903 83.2389C206.903 83.2389 206.903 83.2389 206.904 83.2389L209.218 67.3351L217.021 65.4503V65.4512V65.452C217.021 65.452 217.021 65.4529 217.021 65.4537C217.021 65.4537 217.021 65.4537 217.021 65.4545C217.021 65.4562 217.021 65.4587 217.021 65.4629C217.021 65.4638 217.021 65.4638 217.021 65.4646C217.021 65.4663 217.021 65.468 217.021 65.4696C217.021 65.4705 217.021 65.4705 217.021 65.4713C217.021 65.4738 217.021 65.4764 217.021 65.4789C217.02 65.4856 217.02 65.4931 217.02 65.5007C217.02 65.5023 217.02 65.5032 217.02 65.504V65.5049C217.02 65.5065 217.02 65.5074 217.02 65.5091C217.003 66.4783 216.768 79.2503 216.721 82.6456C216.719 82.7437 216.718 82.8344 216.716 82.9166C216.712 83.2355 216.711 83.4277 216.712 83.4637L206.742 84.3457" fill="#B55F43"/>
<path d="M206.869 97.4019C206.668 97.3859 206.47 97.3666 206.274 97.3431C211.981 92.5691 217.456 86.1344 219.758 83.3165C219.839 83.3308 219.927 83.3409 220.007 83.3551C218.649 85.0628 213.015 91.9968 206.869 97.4019ZM199.775 94.6049C199.64 94.49 199.509 94.3716 199.379 94.25C199.609 92.8981 199.995 91.4489 200.602 89.9568C200.603 89.9551 200.604 89.9543 200.604 89.9526C200.61 89.9392 200.616 89.9241 200.621 89.9107C200.621 89.9098 200.621 89.9098 200.622 89.909C200.627 89.8956 200.633 89.8813 200.639 89.8679C200.64 89.8662 200.64 89.8653 200.641 89.8645C200.646 89.8511 200.652 89.8377 200.657 89.8242C200.657 89.8217 200.659 89.8192 200.66 89.8175C200.665 89.8049 200.67 89.7932 200.675 89.7806C200.677 89.7764 200.678 89.7722 200.681 89.768C200.685 89.7563 200.69 89.7453 200.694 89.7344C200.696 89.7302 200.699 89.7252 200.7 89.721C200.704 89.7126 200.708 89.7034 200.711 89.6942C200.714 89.6883 200.716 89.6833 200.719 89.6774C200.723 89.6681 200.727 89.6589 200.73 89.6497C200.733 89.6446 200.735 89.6396 200.737 89.6337C200.741 89.6237 200.746 89.6136 200.751 89.6035C200.753 89.5977 200.756 89.5909 200.758 89.5851C200.761 89.5784 200.764 89.5725 200.767 89.5658C200.771 89.5557 200.776 89.5448 200.78 89.5356C200.782 89.5297 200.784 89.5255 200.786 89.5205C200.791 89.5104 200.795 89.4986 200.8 89.4886C200.803 89.4827 200.805 89.4777 200.808 89.4718C200.814 89.4575 200.819 89.4449 200.825 89.4307C200.826 89.429 200.827 89.4265 200.828 89.4256C200.831 89.4164 200.835 89.408 200.839 89.3996C200.84 89.3996 200.84 89.3988 200.84 89.3988C201.151 88.6956 201.513 87.9856 201.932 87.2715C201.931 87.2724 201.931 87.2724 201.931 87.2732C200.597 89.8788 199.994 92.4139 199.775 94.6049" fill="#B54D35"/>
<path d="M218.677 62.764C218.328 68.2463 214.365 77.1817 202.748 80.2832C202.748 80.2832 195.431 72.239 195.11 62.7607C194.84 54.8164 198.622 42.4203 203.844 41.3445C209.112 40.2594 219.695 46.7134 218.677 62.764Z" fill="#FFB882"/>
<path d="M215.207 70.0996C222.834 64.9883 227.506 54.9603 221.961 46.4772C216.417 37.9933 208.582 40.7282 206.134 41.3584C205.732 42.2244 215.309 60.4535 215.207 70.0996Z" fill="#992541"/>
<path d="M215.437 66.4733C216.741 63.668 220.099 59.1684 221.733 63.0487C223.363 66.9231 215.896 72.3433 215.161 71.2876C214.425 70.2319 214.896 67.6356 215.437 66.4733" fill="#FFB882"/>
<path d="M216.312 66.9122C217.14 65.1331 219.267 62.2892 220.301 64.7446C221.335 67.1975 216.602 70.6397 216.135 69.9692C215.668 69.2979 215.967 67.6498 216.312 66.9122" fill="#EA7B59"/>
<path d="M215.903 68.2105C216.487 66.9585 217.984 64.9596 218.712 66.6883C219.44 68.4153 216.109 70.838 215.779 70.3647C215.449 69.8914 215.661 68.73 215.903 68.2105Z" fill="#FFB882"/>
<path d="M206.047 36.958C207.36 34.986 213.103 36.2162 217.013 39.1558C220.932 42.1038 223.495 44.7345 222.144 46.7024C220.798 48.6627 214.306 51.1659 210.43 48.2322C206.564 45.3069 204.742 38.9234 206.047 36.958Z" fill="#AF334B"/>
<path d="M206.714 70.3761L200.083 69.8113C200.083 69.8113 201.561 74.9713 203.58 74.9545C205.604 74.9378 206.714 70.3761 206.714 70.3761Z" fill="#562D34"/>
<path d="M206.453 70.531L200.871 70.0551C200.871 70.0551 202.116 74.3995 203.816 74.3852C205.52 74.3701 206.453 70.531 206.453 70.531Z" fill="#FFF7E1"/>
<path d="M202.723 63.4873L202.753 63.7222C202.124 64.438 201.234 65.5264 201.295 65.8806C201.375 66.3396 201.99 67.0948 203.222 67.5001L203.232 67.5757C201.505 67.2753 200.661 66.5099 200.567 65.9695C200.474 65.4274 202.723 63.4873 202.723 63.4873" fill="#EA7B59"/>
<path d="M207.594 59.2931C206.854 59.2344 206.177 59.471 205.683 59.8973C206.041 58.981 206.879 58.3751 207.843 58.4506C209.102 58.5488 210.087 59.7664 210.043 61.1678L210.041 61.1787C209.704 60.1684 208.75 59.3846 207.594 59.2931" fill="#562D34"/>
<path d="M206.944 55.6642C205.488 55.545 204.155 55.9243 203.18 56.6292C203.891 55.0952 205.544 54.095 207.442 54.2485C209.924 54.4491 211.863 56.5344 211.763 58.9017L211.76 58.9185C211.102 57.2015 209.224 55.8513 206.944 55.6642" fill="#AF334B"/>
<path d="M197.274 56.4226C196.393 57.2005 195.85 58.2117 195.68 59.2153C195.258 57.8584 195.65 56.2799 196.795 55.2654C198.293 53.9387 200.497 54.0822 201.714 55.5893L201.722 55.6019C200.429 54.9348 198.652 55.2041 197.274 56.4226" fill="#AF334B"/>
<path d="M198.1 58.5956C197.446 58.9052 196.979 59.4473 196.751 60.0708C196.644 59.0739 197.082 58.1214 197.932 57.7195C199.043 57.1933 200.428 57.8034 201.022 59.0839L201.027 59.0932C200.284 58.3505 199.122 58.1131 198.1 58.5956" fill="#562D34"/>
<path d="M197.207 60.2734C197.242 58.8838 197.979 57.8113 198.855 57.8801C199.732 57.9489 200.412 59.1347 200.374 60.5277C200.337 61.9182 199.597 62.9864 198.724 62.9151C197.85 62.8438 197.171 61.6622 197.207 60.2734Z" fill="#562D34"/>
<path d="M206.011 61.3149C206.053 59.9177 206.804 58.8394 207.69 58.9099C208.577 58.9795 209.261 60.172 209.217 61.5717C209.173 62.9706 208.419 64.0438 207.535 63.9717C206.652 63.8987 205.969 62.7104 206.011 61.3149Z" fill="#562D34"/>
<path d="M231.375 86.905C226.878 92.6272 219.116 116.499 219.116 116.499L224.568 118.224C224.568 118.224 235.06 93.531 239.073 82.2812C240.64 77.8874 234.821 82.517 231.375 86.905" fill="#EAE5D0"/>
<path d="M222.374 115.733C222.374 115.733 234.121 84.7216 239.073 82.2813C235.06 93.5311 224.755 118.723 224.755 118.723L219.116 116.499C219.116 116.499 219.205 116.227 219.361 115.758L222.374 115.733Z" fill="#E2D8AF"/>
<path d="M226.296 116.371C226.798 120.226 222.022 122.671 219.392 120.373C217.088 118.359 217.824 112.65 219.539 111.365C219.639 111.288 225.951 113.732 226.296 116.371Z" fill="#BF5286"/>
<path d="M218.593 116.563C220.716 118.419 224.234 117.182 225.248 114.61C225.812 115.168 226.216 115.764 226.296 116.371C226.798 120.226 222.022 122.671 219.392 120.373C218.278 119.4 217.881 117.564 217.954 115.78C218.135 116.076 218.343 116.344 218.593 116.563" fill="#AA3C76"/>
<path d="M259.436 161.6C259.436 161.6 246.945 271.175 246.519 272.286H244.423L234.641 142.203L259.436 161.6" fill="#FFB882"/>
<path d="M237.376 178.561L234.642 142.203L259.436 161.6C259.436 161.6 257.96 174.54 256.007 191.571L237.376 178.561Z" fill="#FF9566"/>
<path d="M242.749 172.425L246.653 179.752L245.651 273.936L245.438 274.02L242.749 172.425" fill="#FF9566"/>
<path d="M249.983 123.743C250.469 132.775 267.751 130.689 263.25 185.864L233.51 172.58C230.319 129.408 238.854 118.628 238.756 104.695L253.175 102.058C253.175 102.058 249.41 113.122 249.983 123.743" fill="#BF5286"/>
<path d="M248.867 159.715C249.24 142.114 245.141 127.846 239.714 127.846C237.68 127.846 235.749 129.848 234.11 133.277C235.882 120.012 238.814 112.897 238.756 104.695L253.175 102.058C253.175 102.058 249.41 113.122 249.983 123.743C250.469 132.775 267.751 130.689 263.25 185.864L246.596 178.425C247.886 173.17 248.719 166.708 248.867 159.715" fill="#AA3C76"/>
<path d="M256.681 85.2506C258.799 99.1076 251.308 115.246 248.926 117.004C246.543 118.762 227.168 116.611 226.037 114.658C224.906 112.705 235.809 82.3278 237.401 80.9608C238.994 79.5929 255.995 80.7577 256.681 85.2506" fill="#EAE5D0"/>
<path d="M251.623 81.889L243.961 88.4336L242.037 84.6733L237.586 87.164L239.978 80.376L241.59 79.7365L250.129 80.7763L251.623 81.889Z" fill="#BF5286"/>
<path d="M244.933 115.065C247.296 113.211 253.035 81.9291 255.684 85.1608C257.801 99.017 251.308 115.245 248.926 117.004C246.544 118.762 227.168 116.611 226.037 114.658L226.007 114.541C233.964 115.726 243.238 116.395 244.933 115.065" fill="#E2D8AF"/>
<path d="M256.899 69.8784C265.963 68.8739 269.299 58.4281 268.351 50.9956C267.028 40.6236 254.078 41.6541 254.078 41.6541L256.899 69.8784Z" fill="#9B3A3A"/>
<path d="M256.821 50.2949C261.38 51.7953 265.944 50.5181 267.016 47.4409C267.05 47.3428 267.07 47.2421 267.096 47.1422C267.711 48.2105 268.158 49.4776 268.351 50.9956C269.299 58.4281 265.964 68.8739 256.899 69.8784L254.858 49.4524C255.468 49.7772 256.121 50.0633 256.821 50.2949Z" fill="#842C2C"/>
<path d="M233.483 54.6458C229.266 46.813 232.862 38.9728 242.281 36.9177C248.812 35.4944 260.13 37.5563 261.921 51.9705C262.978 60.4695 259.949 77.6455 246.907 75.5627C233.866 73.4807 233.483 54.6458 233.483 54.6458" fill="#9B3A3A"/>
<path d="M240.244 49.3146C249.888 49.3146 257.383 44.5028 255.17 39.3152C258.461 41.6228 261.128 45.582 261.921 51.9705C262.978 60.4695 259.949 77.6455 246.907 75.5627C233.866 73.4807 233.483 54.6458 233.483 54.6458C232.249 52.3515 231.701 50.0598 231.757 47.9107C234.165 48.796 237.085 49.3146 240.244 49.3146" fill="#842C2C"/>
<path d="M252.027 87.5279C256.548 98.4798 267.531 118.825 267.531 118.825L272.368 114.665C272.368 114.665 262.429 90.9399 257.579 85.6079C253.862 81.5195 250.261 83.2498 252.027 87.5279" fill="#EAE5D0"/>
<path d="M267.07 109.396C268.04 108.952 268.137 106.777 267.518 103.698C270.263 109.64 272.368 114.665 272.368 114.665L267.531 118.825C267.531 118.825 256.229 100.081 252.536 88.7371C252.263 88.0775 254.873 93.5824 258.05 99.0881C261.284 104.693 265.106 110.298 267.07 109.396Z" fill="#E2D8AF"/>
<path d="M219.288 118.395C217.352 116.418 213.162 99.5102 211.15 87.3348L212.07 87.1376C212.07 87.1376 223.135 111.326 223.739 115.831C224.411 120.83 220.664 119.8 219.288 118.395" fill="#FFB882"/>
<path d="M220.874 114.259C220.508 110.379 212.07 87.1376 212.07 87.1376C212.07 87.1376 223.135 111.326 223.739 115.831C224.411 120.83 220.664 119.8 219.288 118.395L219.137 118.212C220.234 118.076 221.138 117.054 220.874 114.259Z" fill="#FF9566"/>
<path d="M238.121 101.18H247.062L245.301 108.212H236.36L238.121 101.18Z" fill="#E2D8AF"/>
<path d="M242.015 98.6648H245.54L244.846 101.437H241.321L242.015 98.6648Z" fill="#E2D8AF"/>
<path d="M242.205 98.4311H244.831L244.232 100.9H241.605L242.205 98.4311" fill="#F2EEDD"/>
<path d="M238.081 100.788H247.021L245.07 107.577H236.129L238.081 100.788Z" fill="#F2EEDD"/>
<path d="M252.19 141.555C251.765 141.063 251.652 139.057 252.026 138.654C252.401 138.251 253.037 141.109 253.037 141.109C253.037 141.109 252.481 141.892 252.19 141.555Z" fill="#FFB882"/>
<path d="M271.919 116.014C271.919 116.014 261.473 131.436 254.446 139.145L253.701 138.7C253.701 138.7 264.263 117.809 265.597 114.386C266.931 110.965 271.919 116.014 271.919 116.014" fill="#FFB882"/>
<path d="M267.186 118.867C267.186 118.867 267.359 116.705 264.916 116.45C265.404 115.407 265.412 114.861 265.597 114.387C266.931 110.966 271.919 116.015 271.919 116.015C271.919 116.015 261.856 131.581 254.829 139.289L255.18 138.588C261.466 130.272 267.186 118.867 267.186 118.867" fill="#FF9566"/>
<path d="M242.955 63.2809L251.182 60.2566C251.182 60.2566 252.19 72.7752 249.979 81.3875L242.22 84.1836L241.321 80.4208C244.099 73.83 242.955 63.2809 242.955 63.2809Z" fill="#FFB882"/>
<path d="M234.995 274.356H245.547C245.547 274.356 245.311 271.245 244.79 270.735C244.268 270.227 234.995 274.356 234.995 274.356Z" fill="#EDE6C5"/>
<path d="M243.496 274.356H248.772C248.772 274.356 247.405 271.104 246.75 270.735C245.672 270.133 243.496 274.356 243.496 274.356Z" fill="#EDE6C5"/>
<path d="M264.603 116.346C264.603 116.346 264.078 114.676 264.519 113.677C265.708 110.987 270.677 109.193 272.335 112.271C273.789 114.966 271.757 118.651 269.715 119.276C269.715 119.276 268.575 115.403 264.603 116.346" fill="#BF5286"/>
<path d="M265.732 115.484C268.401 115.588 270.669 113.947 270.796 111.82C270.817 111.488 270.766 111.168 270.685 110.857C271.358 111.091 271.942 111.54 272.335 112.271C273.789 114.966 271.757 118.651 269.714 119.276C269.714 119.276 268.575 115.403 264.603 116.346C264.603 116.346 264.455 115.859 264.383 115.258C264.811 115.377 265.257 115.466 265.732 115.484" fill="#AA3C76"/>
<path d="M251.443 81.7544H251.442L250.128 80.7759L251.443 81.7544ZM237.395 80.9656H237.396H237.395ZM237.398 80.9639C237.398 80.9631 237.4 80.9614 237.401 80.9606C237.4 80.9614 237.398 80.9631 237.398 80.9639ZM237.401 80.9606C237.416 80.948 237.431 80.9354 237.449 80.9236C237.431 80.9354 237.416 80.948 237.401 80.9606ZM237.45 80.9228C237.45 80.9219 237.451 80.9219 237.452 80.9211C237.451 80.9219 237.45 80.9219 237.45 80.9228ZM239.978 80.3756L241.573 79.7429C242.203 78.0386 242.6 76.1177 242.841 74.207C242.845 74.2086 242.847 74.2103 242.85 74.212C242.61 76.1186 242.216 78.0352 241.591 79.7362H241.59L239.978 80.3756" fill="#B58383"/>
<path d="M234.812 86.4829C234.519 85.6429 234.28 84.7685 234.093 83.8757C235.177 82.804 236.265 81.8692 237.166 81.2608C236.685 82.0127 235.836 83.9277 234.812 86.4829ZM238.368 80.6155C238.543 80.5542 238.699 80.5207 238.832 80.5207C238.873 80.5207 238.911 80.5232 238.948 80.5299C238.737 80.5542 238.543 80.5828 238.368 80.6155Z" fill="#A6766B"/>
<path d="M243.816 94.5874C243.382 94.5874 242.948 94.5396 242.514 94.4397C238.7 93.5611 236.176 90.3933 234.812 86.4828C235.836 83.9275 236.685 82.0126 237.166 81.2607C237.168 81.259 237.171 81.2573 237.173 81.2557C237.258 81.1264 237.335 81.0198 237.395 80.9653H237.396C237.396 80.9645 237.397 80.9645 237.397 80.9636C237.398 80.9628 237.4 80.9611 237.401 80.9603C237.416 80.9477 237.431 80.9351 237.449 80.9233L237.45 80.9225C237.45 80.9217 237.451 80.9217 237.452 80.9208C237.628 80.7983 237.94 80.6993 238.35 80.6213C238.356 80.6196 238.362 80.6179 238.368 80.6154C238.543 80.5827 238.737 80.5541 238.947 80.5298C238.95 80.5306 238.953 80.5306 238.957 80.5315C239.256 80.4962 239.589 80.4702 239.95 80.4517L237.586 87.1634L242.037 84.6727L243.961 88.433L251.623 81.8884L251.442 81.7541H251.443C253.758 82.4028 255.627 83.3007 256.355 84.4587C255.324 83.6515 254.348 83.2848 253.55 83.2848C251.853 83.2848 250.958 84.9404 252.027 87.5276C252.189 87.9203 252.359 88.3239 252.537 88.7393C252.599 88.9315 252.663 89.1261 252.731 89.3225C249.918 92.2621 246.859 94.5874 243.816 94.5874" fill="#A6766B"/>
<path d="M243.961 88.4336L242.037 84.6733L237.586 87.164L239.95 80.4523L239.978 80.376L241.59 79.7365C241.505 79.969 241.416 80.1972 241.321 80.4213L242.219 84.1841L249.979 81.388C250.03 81.1858 250.081 80.9827 250.129 80.7763L251.442 81.7547L251.623 81.889L243.961 88.4336" fill="#882A45"/>
<path d="M242.851 74.2119C242.847 74.2102 242.845 74.2086 242.841 74.2069C243.489 69.0939 243.03 64.0455 242.962 63.3599C243.031 64.043 243.495 69.0956 242.851 74.2119Z" fill="#5E1616"/>
<path d="M252.806 89.2441C252.625 88.8833 252.524 88.6827 252.517 88.6827C252.514 88.6827 252.521 88.7004 252.536 88.7373C252.536 88.7373 252.536 88.739 252.537 88.7398C252.359 88.3244 252.189 87.9208 252.027 87.5281C250.959 84.9409 251.853 83.2853 253.551 83.2853C254.349 83.2853 255.324 83.652 256.355 84.4592C256.442 84.5952 256.511 84.7353 256.564 84.8788C255.384 86.3482 254.122 87.862 252.806 89.2441Z" fill="#A6766B"/>
<path d="M252.731 89.3228C252.663 89.1264 252.599 88.9317 252.537 88.7395C252.536 88.7387 252.536 88.737 252.536 88.737C252.521 88.7001 252.514 88.6825 252.517 88.6825C252.523 88.6825 252.625 88.883 252.806 89.2439C252.781 89.2699 252.756 89.2967 252.731 89.3228Z" fill="#A1705A"/>
<path d="M242.955 63.2812V63.2804L251.182 60.2569L242.955 63.2812V63.2812ZM251.183 60.2611C251.183 60.2603 251.183 60.2603 251.182 60.2603C251.183 60.2603 251.183 60.2603 251.183 60.2611ZM251.182 60.2594V60.2586V60.2594Z" fill="#5E1616"/>
<path d="M242.22 84.1836L241.321 80.4208C241.416 80.1967 241.505 79.9685 241.591 79.736C242.216 78.0351 242.611 76.1184 242.851 74.2118C243.495 69.0955 243.031 64.0429 242.962 63.3598C242.958 63.3128 242.955 63.286 242.955 63.2809L251.182 60.2566C251.182 60.2566 251.182 60.2566 251.182 60.2574V60.2583V60.2591V60.26C251.183 60.26 251.183 60.26 251.183 60.2608C251.202 60.5067 252.121 72.2851 250.126 80.7758H250.129C250.081 80.9822 250.03 81.1853 249.979 81.3875L242.22 84.1836" fill="#B55F43"/>
<path d="M251.415 64.0582C250.677 70.2319 246.954 76.2462 239.021 78.585C233.817 75.5967 226.694 53.9615 234.977 46.4812C242.824 39.3953 252.809 52.3864 251.415 64.0582" fill="#FFB882"/>
<path d="M249.179 65.8223C246.633 63.6732 250.76 53.4178 247.483 48.9736C247.483 48.9736 252.672 48.4852 254.485 55.1758C256.297 61.8665 249.179 65.8223 249.179 65.8223" fill="#842C2C"/>
<path d="M249.413 68.6147C253.251 68.0089 257.154 64.3736 256.095 61.518C255.036 58.6615 252.435 58.0556 251.164 60.8257C249.892 63.5949 249.413 68.6147 249.413 68.6147Z" fill="#FFB882"/>
<path d="M250.807 66.686C253.101 66.3235 255.434 64.1526 254.801 62.4458C254.167 60.7389 252.613 60.3781 251.854 62.0321C251.094 63.6869 250.807 66.686 250.807 66.686Z" fill="#EA7B59"/>
<path d="M250.717 67.0674C252.102 66.8484 253.511 65.5368 253.129 64.5054C252.746 63.4749 251.807 63.2559 251.349 64.2562C250.89 65.2556 250.717 67.0674 250.717 67.0674Z" fill="#FFB882"/>
<path d="M254.703 136.848C253.9 137.873 252.149 138.631 251.635 138.654C251.122 138.679 250.128 138.288 249.973 138.703C249.818 139.119 251.077 139.608 251.616 139.582C252.154 139.558 253.227 139.631 253.349 139.608C253.472 139.582 254.703 136.848 254.703 136.848" fill="#FFB882"/>
<path d="M256.129 136.969C256.129 136.969 255.879 141.973 255.607 142.093C255.336 142.213 252.594 142.156 252.19 141.555C251.786 140.955 254.055 138.262 254.282 137.702C254.508 137.141 256.129 136.969 256.129 136.969" fill="#FFB882"/>
<path d="M211.728 90.6367C210.51 86.7598 207.251 89.0113 205.156 87.7349C204.513 87.343 204.592 83.524 205.487 83.2941C206.382 83.065 207.778 84.7282 209.803 84.8423C211.829 84.9565 212.794 89.2605 212.794 89.2605L211.728 90.6367" fill="#FFB882"/>
<path d="M208.924 80.4041C207.809 80.3453 208.096 82.6413 208.085 83.2623C208.075 83.8824 208.472 85.8586 209.187 86.326C210.664 87.2911 211.936 86.4049 211.383 85.9937C210.828 85.5826 209.574 83.796 209.537 83.2606C209.483 82.4676 209.395 80.4284 208.924 80.4041Z" fill="#FFB882"/>
<path d="M205.249 79.1062C204.158 79.2975 204.482 81.9643 204.606 82.5777C204.732 83.1912 205.424 84.5632 206.219 84.8645C207.854 85.4846 207.798 84.2317 207.173 83.9498C206.548 83.6687 205.794 82.582 205.642 82.0634C205.416 81.2955 205.709 79.0256 205.249 79.1062" fill="#FFB882"/>
<path d="M202.37 84.1034C201.288 84.5725 202.833 86.5915 203.299 87.0203C203.765 87.4491 205.498 88.201 206.523 88.1943C208.634 88.1809 207.898 87.2452 207.068 87.2167C206.238 87.1881 204.802 86.6939 204.291 86.453C203.416 86.0402 202.827 83.9062 202.37 84.1034" fill="#FFB882"/>
<path d="M203.29 81.4135C202.209 81.7962 203.396 84.1282 203.71 84.646C204.024 85.1654 205.104 86.2093 206.023 86.3209C207.915 86.5492 207.481 85.4507 206.745 85.3249C206.009 85.1982 204.898 84.3833 204.585 83.9545C204.119 83.3184 203.745 81.2516 203.29 81.4135" fill="#FFB882"/>
<path d="M245.649 59.2385C245.641 57.8027 244.949 56.5464 244.098 56.4231C243.249 56.3031 242.555 57.3604 242.549 58.7996C242.541 60.2471 243.236 61.5285 244.097 61.6502C244.958 61.7727 245.654 60.691 245.649 59.2385Z" fill="#5B3F39"/>
<path d="M236.152 58.897C236.038 57.4419 235.305 56.2553 234.5 56.2268C233.702 56.2008 233.137 57.3479 233.24 58.803C233.343 60.2657 234.083 61.4858 234.894 61.5093C235.707 61.5362 236.266 60.3597 236.152 58.897" fill="#5B3F39"/>
<path d="M232.006 58.2871C232.006 58.2871 234.247 56.5626 236.502 56.9025C236.502 56.9025 235.804 55.8905 234.213 56.1682C232.622 56.4485 232.006 58.2871 232.006 58.2871Z" fill="#5B3F39"/>
<path d="M246.731 58.2803C246.731 58.2803 244.112 56.4333 241.857 56.6456C241.857 56.6456 242.39 55.668 244.073 56.0338C245.756 56.3972 246.731 58.2803 246.731 58.2803Z" fill="#5B3F39"/>
<path d="M232.016 54.0972L231.946 53.7405C233.531 52.1335 236.202 51.9363 237.376 52.241L237.282 53.1615C236.377 52.7856 233.675 52.846 232.016 54.0972Z" fill="#9B3A3A"/>
<path d="M247.363 55.27C245.638 53.5447 242.22 52.9439 241.379 52.9405L241.542 52.025C242.486 52.056 245.651 52.8172 247.618 54.9612L247.363 55.27" fill="#9B3A3A"/>
<path d="M236.703 69.2877L242.863 69.3548C242.863 69.3548 242.241 73.2015 240.293 73.418C238.234 73.6471 236.703 69.2877 236.703 69.2877" fill="#592424"/>
<path d="M236.941 69.4082L242.622 69.4628C242.622 69.4628 241.752 71.3207 240.012 71.465C238.185 71.6186 236.941 69.4082 236.941 69.4082" fill="#FFFBD7"/>
<path d="M238.973 62.333C237.239 64.3772 236.895 65.3884 237.36 66.0958C237.825 66.8066 240.377 66.5003 240.377 66.5003L238.973 62.333" fill="#EA7B59"/>
<path d="M239.645 62.0317C237.917 64.0725 237.575 65.0812 238.04 65.7878C238.507 66.4969 241.056 66.1914 241.056 66.1914L239.645 62.0317" fill="#FFB882"/>
<path d="M347.189 205.681L337.952 272.796H338.933L355.073 215.826L347.189 205.681Z" fill="#FFB882"/>
<path d="M347.656 242.004L355.073 215.826L347.189 205.68L343.288 234.021C344.984 235.313 346.49 238.136 347.656 242.004" fill="#FF9566"/>
<path d="M397.657 205.681L406.637 272.796H405.685L389.992 215.826L397.657 205.681Z" fill="#FF9566"/>
<path d="M343.639 223.426C343.639 223.426 397.693 258.365 405.49 262.531C405.49 262.531 398.257 168.046 387.986 148.977C378.982 132.26 378.722 104.957 378.722 104.957L364.862 107.117C364.082 143.907 349.616 159.564 343.639 223.426" fill="#F2649E"/>
<path d="M370.174 128.757C374.573 128.101 379.361 132.06 384.027 139.446C378.904 123.552 378.722 104.957 378.722 104.957L364.862 107.117C364.082 143.907 349.616 159.564 343.639 223.426C343.639 223.426 347.577 225.973 353.477 229.768C350.969 185.013 359.22 130.39 370.174 128.757" fill="#CC4281"/>
<path d="M362.826 60.474C353.21 50.4687 352.951 45.7912 356.72 39.1643C360.487 32.5375 381.616 27.5218 387.775 37.4743C400.639 58.2653 378.679 99.0661 387.515 118.427C387.515 118.427 366.595 109.721 362.307 92.4384C358.019 75.1576 362.826 60.474 362.826 60.474" fill="#823E30"/>
<path d="M387.9 37.7025C362.475 39.5554 372.437 61.3853 359.722 57.0418C360.626 58.116 361.654 59.2547 362.826 60.474C362.826 60.474 358.018 75.1576 362.307 92.4384C366.595 109.721 387.515 118.427 387.515 118.427C378.71 99.1349 400.472 58.5607 387.9 37.7025Z" fill="#702F24"/>
<path d="M361.128 86.3127C361.406 88.3032 361.789 90.3516 362.307 92.4386C365.895 106.901 381.121 115.352 385.999 117.728C386.273 117.374 386.542 117.008 386.804 116.626C379.972 96.647 387.857 64.3737 376.422 62.035C369.131 60.5438 362.98 73.8999 361.128 86.3127Z" fill="#56211A"/>
<path d="M378.115 96.6401C388.797 107.653 396.842 114.456 398.307 114.414C399.799 114.372 398.447 110.642 397.773 108.507C397.08 106.313 380.801 86.3319 380.801 86.3319L378.115 96.6401Z" fill="#FFB882"/>
<path d="M397.773 108.507C397.711 108.311 397.519 107.965 397.228 107.51C397.091 107.851 396.896 108.128 396.624 108.309C394.774 109.545 390.445 106.311 386.957 101.084C383.763 96.2994 382.388 91.5137 383.599 89.7917C381.93 87.7182 380.801 86.3319 380.801 86.3319L378.115 96.6401C388.797 107.653 396.841 114.456 398.307 114.414C399.799 114.372 398.447 110.642 397.773 108.507" fill="#FF9566"/>
<path d="M361.618 80.3173C347.606 89.0118 328.305 103.45 328.158 105.193C328.01 106.938 332.596 106.427 335.124 106.253C337.66 106.079 360.46 92.8879 360.46 92.8879L361.618 80.3173" fill="#FFB882"/>
<path d="M358.964 81.9922C354.417 98.5455 334.278 103.575 333.332 103.642C332.167 103.725 330.568 103.877 329.195 103.848C328.55 104.491 328.178 104.959 328.158 105.193C328.01 106.938 332.596 106.427 335.124 106.253C337.66 106.079 360.46 92.8871 360.46 92.8871L361.618 80.3173C360.752 80.8552 359.865 81.4149 358.964 81.9922" fill="#FF9566"/>
<path d="M360.871 80.9383C357.871 92.9383 354.722 111.196 355.632 113.275C356.541 115.353 381.1 115.44 382.139 114.401C383.178 113.361 381.882 88.2314 381.451 86.5925C380.801 84.1237 361.607 77.9937 360.871 80.9383Z" fill="#F2649E"/>
<path d="M381.451 86.592C381.396 86.3831 381.199 86.1473 380.901 85.893C381.387 89.7137 382.446 110.731 381.533 111.715C380.569 112.754 358.295 112.407 357.45 110.329C356.62 108.281 358.863 92.3319 361.618 80.3168C361.211 80.4427 360.944 80.6432 360.871 80.9378C357.871 92.9378 354.251 111.713 355.16 113.793C356.069 115.871 381.494 115.698 382.534 114.659C383.573 113.62 381.882 88.2309 381.451 86.592" fill="#D64D85"/>
<path d="M378.029 102.617C379.57 102.256 381.148 90.8362 381.253 86.2494C379.3 83.7814 363.829 78.832 361.222 80.486C361.397 98.5464 376.118 103.067 378.029 102.617Z" fill="#FFB882"/>
<path d="M371.427 71.494L368.209 84.668L377.966 84.2106L379.462 61.2395L371.427 71.494Z" fill="#FFB882"/>
<path d="M392.983 107.126C393.038 108.687 398.428 115.57 398.428 115.57C402.989 108.93 400.292 75.5041 400.292 75.5041L399.213 74.8924C399.213 74.8924 392.927 105.565 392.983 107.126" fill="#442A2E"/>
<path d="M378.029 101.188C376.17 101.626 362.175 97.3481 361.271 80.4625L361.222 80.486C361.397 98.5464 376.118 103.067 378.029 102.617C379.57 102.256 381.148 90.8362 381.253 86.2494L381.192 86.1823C380.869 91.3372 379.434 100.857 378.029 101.188" fill="#FF9566"/>
<path d="M370.445 93.0043L369.925 98.7215L372.09 100.107L370.445 93.0043" fill="#FF9566"/>
<path d="M400.292 75.5041L399.213 74.8924C399.213 74.8924 396.246 89.3704 394.407 98.9394C395.12 102.126 396.073 104.092 397.125 104.092C399.01 104.092 400.585 97.8266 401 89.4199C400.797 81.7743 400.292 75.5041 400.292 75.5041" fill="#59363D"/>
<path d="M382.333 88.2227C382.244 88.1119 382.159 88.0062 382.076 87.9038C381.884 87.6671 381.711 87.4532 381.558 87.2643C381.558 87.2643 381.558 87.2643 381.558 87.2635C381.775 87.532 382.036 87.8543 382.333 88.2227" fill="#3D110D"/>
<path d="M383.175 91.1997C383.213 90.6207 383.353 90.1424 383.599 89.7916C383.564 89.748 383.53 89.7052 383.495 89.6624C383.699 89.9158 383.912 90.1801 384.132 90.4537C383.819 90.7088 383.5 90.958 383.175 91.1997V91.1997ZM382.448 88.3634C382.317 88.2022 382.193 88.0487 382.076 87.9035C382.159 88.0059 382.244 88.1116 382.333 88.2224C382.371 88.2685 382.41 88.3155 382.448 88.3634Z" fill="#B55F43"/>
<path d="M381.987 92.0259C381.826 89.8961 381.673 88.1884 381.558 87.2645C381.711 87.4533 381.884 87.6673 382.076 87.9039C382.193 88.0491 382.317 88.2027 382.448 88.3638C382.763 88.754 383.115 89.1895 383.496 89.6628C383.53 89.7056 383.564 89.7484 383.6 89.792C383.353 90.1428 383.214 90.6211 383.175 91.2001C382.787 91.4871 382.391 91.7632 381.987 92.0259" fill="#B54D35"/>
<path d="M380.666 92.8125C380.871 91.2659 381.032 89.747 381.134 88.4321C381.218 89.5507 381.307 90.9076 381.392 92.3963C381.152 92.5406 380.911 92.6791 380.666 92.8125Z" fill="#AC3351"/>
<path d="M381.393 92.3965C381.307 90.9078 381.218 89.5509 381.134 88.4323C381.198 87.6108 381.239 86.8681 381.253 86.2496L381.278 86.2799C381.36 86.3889 381.424 86.4947 381.451 86.592C381.481 86.7053 381.517 86.9403 381.558 87.2633C381.558 87.2642 381.558 87.2642 381.558 87.2642C381.673 88.1881 381.826 89.8958 381.987 92.0256C381.79 92.1523 381.592 92.2765 381.393 92.3965Z" fill="#982845"/>
<path d="M360.382 82.9302C360.272 82.3763 360.197 81.8116 360.156 81.2359C360.428 81.0647 360.698 80.8935 360.966 80.7257C360.935 80.771 360.91 80.8188 360.892 80.87C360.883 80.8927 360.877 80.9154 360.871 80.938C360.71 81.5833 360.546 82.2496 360.382 82.9302" fill="#B54D35"/>
<path d="M362.057 87.2261C361.499 86.3139 361.06 85.3497 360.743 84.3427C360.914 83.5145 361.088 82.6946 361.265 81.889C361.369 83.83 361.645 85.6065 362.057 87.2261ZM360.892 80.8694C360.91 80.8182 360.935 80.7704 360.966 80.7251C360.966 80.7243 360.967 80.7243 360.968 80.7234C360.936 80.7687 360.911 80.8174 360.892 80.8694ZM361.2 80.5052L361.221 80.4859C361.221 80.4876 361.221 80.4893 361.221 80.491C361.214 80.4952 361.206 80.5002 361.2 80.5052Z" fill="#AC3351"/>
<path d="M360.743 84.3433C360.597 83.8809 360.477 83.4093 360.382 82.9301C360.546 82.2496 360.71 81.5833 360.871 80.938C360.877 80.9153 360.883 80.8926 360.892 80.87C360.911 80.818 360.936 80.7693 360.968 80.724C360.971 80.7223 360.972 80.7215 360.974 80.7206L360.98 80.7147L361.058 80.63L361.163 80.5368L361.2 80.5058C361.206 80.5007 361.214 80.4957 361.221 80.4915C361.227 80.9673 361.241 81.4314 361.265 81.8896C361.088 82.6952 360.914 83.515 360.743 84.3433" fill="#982845"/>
<path d="M380.72 85.749C380.107 85.2766 379.143 84.7488 377.966 84.2109V84.21C379.148 84.7488 380.108 85.2766 380.72 85.749Z" fill="#AC3351"/>
<path d="M369.069 81.1484C369.069 81.1476 369.069 81.1484 369.069 81.1476L371.427 71.4939L369.069 81.1484Z" fill="#3D110D"/>
<path d="M369.069 81.1484V81.1476C369.069 81.1484 369.069 81.1476 369.069 81.1484H369.069ZM366.684 80.6038C366.603 80.5879 366.523 80.5728 366.445 80.5577C366.509 80.5694 366.575 80.582 366.64 80.5946C366.654 80.5979 366.669 80.6005 366.684 80.6038ZM366.069 80.488C365.995 80.4746 365.92 80.4612 365.848 80.4486C365.856 80.4502 365.865 80.4519 365.873 80.4528C365.938 80.4645 366.003 80.4754 366.069 80.488" fill="#AC3351"/>
<path d="M374.261 94.5937C373.087 94.5937 371.887 94.4041 370.671 93.982L370.445 93.0044L370.366 93.8712C370.106 93.7722 369.846 93.6631 369.584 93.5423C366.706 92.2147 364.476 90.486 362.904 88.4553C362.03 86.1744 361.435 83.526 361.271 80.4631L361.222 80.4866L361.314 80.4421L361.38 80.4103L361.518 80.3465L361.662 80.3054C361.739 80.2844 361.813 80.2617 361.899 80.2449L362.092 80.2156C362.177 80.203 362.261 80.1912 362.354 80.1828C362.428 80.177 362.505 80.1728 362.583 80.1694C362.678 80.1644 362.777 80.1602 362.879 80.1593C362.91 80.1585 362.943 80.1585 362.975 80.1585C363.028 80.1585 363.081 80.1585 363.135 80.1602C363.242 80.1619 363.351 80.1652 363.464 80.1702C363.557 80.1744 363.651 80.1795 363.748 80.1862C363.865 80.1946 363.988 80.2047 364.112 80.2164C364.211 80.2256 364.307 80.234 364.408 80.2449C364.541 80.2592 364.68 80.2768 364.819 80.2953C364.919 80.3079 365.017 80.3205 365.12 80.3347C365.275 80.3574 365.436 80.3834 365.596 80.4094C365.68 80.4228 365.762 80.4354 365.848 80.4489C365.92 80.4614 365.995 80.4749 366.069 80.4883C366.193 80.5101 366.318 80.5336 366.445 80.5579C366.524 80.5731 366.603 80.5882 366.684 80.6041C366.779 80.6234 366.877 80.6452 366.973 80.6645C367.132 80.6973 367.29 80.7291 367.452 80.7644C367.591 80.7954 367.733 80.829 367.873 80.8609C368.011 80.8928 368.148 80.923 368.287 80.9566C368.439 80.9926 368.591 81.0304 368.745 81.069C368.853 81.0958 368.96 81.121 369.069 81.1487L368.209 84.6682L377.966 84.2108C379.144 84.7487 380.107 85.2765 380.72 85.749C380.937 85.916 381.111 86.0763 381.235 86.2273L381.249 86.2449L381.192 86.1828C381.074 88.0693 380.807 90.5389 380.447 92.9297C378.512 93.9484 376.431 94.5946 374.261 94.5937Z" fill="#B55F43"/>
<path d="M368.209 84.668L369.069 81.1485H369.069L371.427 71.494L379.462 61.2395L377.966 84.2098V84.2106L368.209 84.668Z" fill="#B55F43"/>
<path d="M380.447 92.9292C380.807 90.5384 381.074 88.0688 381.192 86.1824L381.249 86.2445L381.253 86.2495C381.239 86.8679 381.198 87.6106 381.134 88.4321C381.032 89.7471 380.871 91.266 380.666 92.8126C380.594 92.852 380.52 92.8914 380.447 92.9292V92.9292ZM362.904 88.4548C362.597 88.0562 362.314 87.6475 362.057 87.2263C361.645 85.6067 361.369 83.8302 361.265 81.8892C361.241 81.431 361.227 80.967 361.222 80.4912C361.222 80.4895 361.222 80.4878 361.222 80.4861L361.271 80.4626C361.435 83.5256 362.03 86.174 362.904 88.4548Z" fill="#B54D35"/>
<path d="M370.671 93.9814C370.57 93.9462 370.467 93.9093 370.366 93.8707L370.445 93.0038L370.671 93.9814" fill="#B54D35"/>
<path d="M366.837 77.8438C362.419 74.8119 357.212 66.9875 358.135 58.4373C359.059 49.8871 358.414 43.1646 365.142 41.7372C371.87 40.3089 381.195 51.1903 380.664 58.7394C379.638 73.3358 366.837 77.8438 366.837 77.8438Z" fill="#FFB882"/>
<path d="M378.588 64.417C377.635 60.9513 376.248 46.8315 373.217 44.3199C373.217 44.3199 375.573 38.8956 379.628 47.0053C384.565 56.8805 378.588 64.417 378.588 64.417" fill="#702F24"/>
<path d="M379.256 61.7318C381.376 58.5069 384.382 58.6059 384.013 62.0264C383.645 65.4476 377.415 69.7626 377.357 68.2345C377.299 66.7055 378.572 62.7724 379.256 61.7318" fill="#FFB882"/>
<path d="M379.958 62.8162C381.132 61.0321 382.796 61.0858 382.592 62.9781C382.387 64.8713 378.94 67.2604 378.908 66.4145C378.876 65.5686 379.58 63.3918 379.958 62.8162" fill="#EA7B59"/>
<path d="M379.484 64.0614C380.421 62.6365 381.749 62.6801 381.586 64.1906C381.423 65.7028 378.67 67.6102 378.645 66.9347C378.62 66.2591 379.182 64.5212 379.484 64.0614Z" fill="#FFB882"/>
<path d="M405.043 274.356H411.766C411.766 274.356 407.793 270.328 405.96 270.328C404.126 270.328 405.043 274.356 405.043 274.356Z" fill="#DDD4B1"/>
<path d="M339.157 274.356H330.927C330.927 274.356 335.791 270.328 338.035 270.328C340.279 270.328 339.157 274.356 339.157 274.356Z" fill="#DDD4B1"/>
<path d="M398.971 258.661C395.883 230.6 384.328 203.76 383.405 209.502C381.21 223.164 379.8 235.243 377.058 244.872C385.318 250.132 393.387 255.23 398.971 258.661Z" fill="#E04F91"/>
<path d="M373.446 57.2555C373.323 55.7483 372.294 54.6348 371.14 54.7699C369.988 54.9092 369.153 56.2459 369.275 57.759C369.393 59.2711 370.428 60.3822 371.577 60.2437C372.727 60.1044 373.566 58.7693 373.446 57.2555Z" fill="#563933"/>
<path d="M363.818 57.0839C363.798 55.565 362.968 54.3944 361.952 54.4615C360.943 54.5303 360.142 55.8142 360.162 57.334C360.183 58.8478 361.018 60.026 362.027 59.9555C363.039 59.8875 363.836 58.6002 363.818 57.0839" fill="#563933"/>
<path d="M358.625 56.5049C358.625 56.5049 361.968 53.9631 364.314 55.5633C364.314 55.5633 364.047 53.2456 362.129 53.1575C360.215 53.0744 358.625 56.5049 358.625 56.5049Z" fill="#563933"/>
<path d="M374.826 57.7344C374.826 57.7344 371.848 54.5179 368.789 55.6835C368.789 55.6835 369.755 53.3766 371.903 53.6544C374.05 53.9271 374.826 57.7344 374.826 57.7344Z" fill="#563933"/>
<path d="M358.532 53.3672L358.452 53.0038C360.165 51.1476 363.604 50.5459 365.349 50.7465L365.168 51.9389C363.836 51.5705 360.338 51.9247 358.532 53.3672" fill="#702F24"/>
<path d="M375.657 54.7944C373.827 52.9197 369.839 52.2224 368.839 52.2065L369.134 51.2179C370.253 51.2641 373.931 52.1343 375.999 54.4688L375.657 54.7944" fill="#702F24"/>
<path d="M363.505 69.6761L363.665 69.3479C363.833 69.4117 367.657 70.8291 371.817 67.0386L372.324 67.5731C368.552 70.9222 365.305 70.3944 363.505 69.6761Z" fill="#EA7B59"/>
<path d="M368.208 71.4613C368.18 71.2197 367.661 71.3615 366.962 71.4597C366.263 71.557 365.65 71.573 365.677 71.8138C365.704 72.0555 366.293 72.1713 366.992 72.0739C367.691 71.9766 368.236 71.7022 368.208 71.4613" fill="#EA7B59"/>
<path d="M365.754 61.9044C363.329 64.2432 363.588 64.5897 364.455 65.1965C365.321 65.8023 367.14 65.413 367.14 65.413L365.754 61.9044Z" fill="#EA7B59"/>
<path d="M366.447 61.6017C364.021 63.9404 364.282 64.287 365.148 64.8929C366.014 65.4996 367.833 65.1094 367.833 65.1094L366.447 61.6017" fill="#FFB882"/>
<path d="M400.549 79.2695C400.534 74.639 405.386 76.8049 407.852 72.735C408.294 72.0049 407.18 68.6323 406.142 68.54C405.105 68.4477 403.621 70.8679 401.395 71.3814C399.171 71.895 398.946 76.9904 398.946 76.9904L400.549 79.2695" fill="#59363D"/>
<path d="M400.78 66.9385C402.006 66.6607 402.526 69.5977 402.659 70.3052C402.792 71.0109 403.073 72.2881 402.37 72.9594C400.923 74.339 399.337 73.5687 399.871 72.9947C400.404 72.4198 400.724 70.9329 400.66 70.3152C400.566 69.3989 400.263 67.0559 400.78 66.9385" fill="#59363D"/>
<path d="M404.226 63.9726C405.446 63.6857 406.555 66.5774 406.698 67.284C406.84 67.9905 406.479 69.8376 405.787 70.5139C404.361 71.9061 403.862 70.5517 404.386 69.9726C404.911 69.3945 405.209 67.9033 405.136 67.2848C405.028 66.3693 403.711 64.0926 404.226 63.9726" fill="#59363D"/>
<path d="M409.615 68.2154C410.934 68.3891 409.919 71.1239 409.556 71.7483C409.191 72.3743 407.563 73.7622 406.454 74.0836C404.171 74.7449 404.663 73.4711 405.549 73.174C406.436 72.8761 407.757 71.7575 408.125 71.228C408.668 70.4434 409.059 68.1424 409.615 68.2154" fill="#59363D"/>
<path d="M407.249 65.7665C408.543 65.6885 408.665 68.597 408.57 69.2876C408.475 69.9783 407.503 71.6675 406.597 72.197C404.732 73.2888 404.693 71.9302 405.402 71.4653C406.11 71.0012 406.902 69.6384 407.037 69.0426C407.237 68.1598 406.703 65.7993 407.249 65.7665" fill="#59363D"/>
<path d="M397.721 51.5066C398.739 61.6781 402.391 69.4042 403.084 69.5595C403.776 69.7147 405.845 61 404.901 50.8151L397.721 51.5066Z" fill="#FFF5CC"/>
<path d="M403.869 66.8695L401.799 67.0693C403.685 73.6617 404.478 82.9865 403.46 84.3174L405.53 84.1177C404.176 83.0301 403.502 73.6508 403.869 66.8695" fill="#FFF5CC"/>
<path d="M398.879 54.7293C399.604 61.952 402.376 67.4208 402.909 67.5265C403.443 67.6322 405.089 61.4275 404.423 54.1947L398.879 54.7293" fill="#F9E48F"/>
<path d="M398.881 54.9174C399.77 55.0298 400.819 55.0475 401.937 54.9392C402.844 54.8519 403.679 54.6883 404.421 54.4819C404.411 54.3644 404.406 54.2502 404.395 54.1328L398.851 54.6665C398.859 54.7512 398.871 54.8326 398.881 54.9174" fill="#FFEEA9"/>
<path d="M404.465 83.2916L404.348 83.3033L401.643 85.147L407.472 84.5856L404.465 83.2916" fill="#E5DCB5"/>
<path d="M401.25 54.4355C401.091 53.6283 400.933 52.7706 400.782 51.8711L403.754 51.5849C403.816 52.2286 403.838 53.1516 403.832 54.1872L401.25 54.4355" fill="#FFFCE2"/>
<path d="M403.325 62.0264C403.323 62.0264 403.322 62.0255 403.32 62.0247C403.104 61.9223 402.22 59.2018 401.36 54.9841C401.55 54.9724 401.743 54.9573 401.938 54.9388C402.61 54.8742 403.243 54.7676 403.828 54.6325C403.816 55.6194 403.781 56.6818 403.734 57.6846C403.728 57.6846 403.721 57.6837 403.714 57.6837C403.707 57.6837 403.699 57.6846 403.692 57.6846C403.561 57.698 403.465 57.8146 403.478 57.9455C403.489 58.0664 403.591 58.1587 403.71 58.1603C403.6 60.2826 403.439 62.0264 403.325 62.0264V62.0264ZM403.241 60.4286C403.233 60.4286 403.225 60.4286 403.217 60.4294C403.086 60.442 402.99 60.5578 403.002 60.6896C403.014 60.8121 403.118 60.9044 403.24 60.9044C403.248 60.9044 403.255 60.9036 403.263 60.9027C403.393 60.891 403.489 60.7743 403.477 60.6434C403.465 60.5201 403.362 60.4286 403.241 60.4286ZM402.705 56.1766C402.697 56.1766 402.69 56.1774 402.682 56.1774C402.551 56.1908 402.455 56.3075 402.467 56.4384C402.48 56.5609 402.584 56.6532 402.706 56.6532C402.713 56.6532 402.721 56.6532 402.728 56.6524C402.858 56.6398 402.955 56.524 402.942 56.3923C402.93 56.2689 402.826 56.1766 402.705 56.1766Z" fill="#FDF5BE"/>
<path d="M401.36 54.9844C401.323 54.804 401.286 54.621 401.25 54.4356L403.831 54.1872C403.831 54.3332 403.83 54.4826 403.827 54.6328C403.242 54.7679 402.61 54.8744 401.937 54.9391C401.743 54.9575 401.55 54.9726 401.36 54.9844" fill="#FFF9CD"/>
<path d="M402.312 63.9302C402.19 63.9302 402.087 63.8387 402.075 63.7154C402.063 63.5845 402.158 63.4678 402.289 63.4552C402.298 63.4544 402.305 63.4535 402.313 63.4535C402.434 63.4535 402.538 63.5459 402.549 63.6692C402.563 63.801 402.466 63.9167 402.335 63.9293C402.328 63.9302 402.319 63.9302 402.312 63.9302" fill="#FDF5BE"/>
<path d="M400.782 58.2251C400.662 58.2251 400.559 58.1336 400.547 58.0103C400.535 57.8794 400.63 57.7627 400.761 57.7501C400.769 57.7493 400.776 57.7485 400.784 57.7485C400.905 57.7485 401.009 57.8408 401.021 57.9641C401.033 58.0959 400.937 58.2117 400.807 58.2243C400.798 58.2251 400.791 58.2251 400.782 58.2251" fill="#FDF5BE"/>
<path d="M403.299 63.335C403.178 63.335 403.074 63.2426 403.063 63.1193C403.049 62.9884 403.145 62.8717 403.276 62.8591C403.283 62.8591 403.291 62.8583 403.299 62.8583C403.42 62.8583 403.524 62.9498 403.536 63.0731C403.549 63.2049 403.453 63.3207 403.322 63.3341C403.315 63.335 403.307 63.335 403.299 63.335" fill="#FDF5BE"/>
<path d="M402.875 65.248C402.753 65.248 402.648 65.1557 402.638 65.0315C402.625 64.9006 402.721 64.784 402.852 64.7722C402.86 64.7714 402.867 64.7714 402.875 64.7714C402.996 64.7714 403.099 64.8629 403.112 64.9871C403.124 65.1171 403.028 65.2338 402.897 65.2464C402.889 65.2472 402.882 65.248 402.875 65.248Z" fill="#FDF5BE"/>
<path d="M401.313 60.5684C401.192 60.5684 401.089 60.476 401.077 60.3527C401.065 60.2218 401.161 60.1051 401.292 60.0934C401.3 60.0925 401.307 60.0917 401.315 60.0917C401.436 60.0917 401.539 60.184 401.552 60.3065C401.563 60.4383 401.468 60.5541 401.337 60.5667C401.328 60.5675 401.321 60.5684 401.313 60.5684" fill="#FDF5BE"/>
<path d="M401.526 63.0059C401.406 63.0059 401.301 62.9136 401.29 62.7902C401.277 62.6593 401.374 62.5427 401.504 62.5309C401.512 62.5301 401.52 62.5292 401.528 62.5292C401.649 62.5292 401.752 62.6215 401.765 62.7449C401.776 62.8758 401.681 62.9924 401.55 63.0042C401.541 63.005 401.534 63.0059 401.526 63.0059Z" fill="#FDF5BE"/>
<path d="M400.066 56.5361C399.945 56.5361 399.841 56.4438 399.83 56.3196C399.816 56.1887 399.913 56.0729 400.044 56.0603C400.051 56.0595 400.059 56.0595 400.066 56.0595C400.188 56.0595 400.292 56.1518 400.303 56.2743C400.316 56.4052 400.221 56.5219 400.089 56.5345C400.081 56.5353 400.074 56.5361 400.066 56.5361" fill="#FDF5BE"/>
<path d="M403.714 58.1602C403.712 58.1602 403.712 58.1602 403.71 58.1602C403.718 58.0041 403.726 57.8446 403.733 57.6844C403.847 57.6936 403.941 57.7825 403.952 57.8992C403.965 58.0309 403.869 58.1467 403.738 58.1593C403.73 58.1602 403.722 58.1602 403.714 58.1602" fill="#FDF5BE"/>
<path d="M403.71 58.1602C403.591 58.1585 403.489 58.0662 403.479 57.9453C403.465 57.8144 403.561 57.6978 403.692 57.6844C403.699 57.6844 403.707 57.6835 403.714 57.6835C403.721 57.6835 403.728 57.6844 403.734 57.6844C403.726 57.8446 403.719 58.0041 403.71 58.1602Z" fill="#FEFCD9"/>
<path d="M403.24 60.9048C403.118 60.9048 403.014 60.8125 403.002 60.69C402.99 60.5582 403.086 60.4424 403.216 60.4298C403.225 60.429 403.232 60.429 403.241 60.429C403.362 60.429 403.465 60.5204 403.477 60.6438C403.488 60.7747 403.393 60.8914 403.263 60.9031C403.255 60.9039 403.248 60.9048 403.24 60.9048Z" fill="#FEFCD9"/>
<path d="M402.706 56.6533C402.584 56.6533 402.48 56.561 402.467 56.4385C402.456 56.3076 402.551 56.1909 402.682 56.1775C402.69 56.1775 402.697 56.1767 402.705 56.1767C402.826 56.1767 402.931 56.269 402.942 56.3924C402.955 56.5241 402.858 56.6399 402.728 56.6525C402.721 56.6533 402.713 56.6533 402.706 56.6533Z" fill="#FEFCD9"/>
<path d="M475.675 273.698H117.967C117.967 273.698 188.762 286.253 299.719 286.253C410.674 286.253 475.675 273.698 475.675 273.698Z" fill="#FFC248"/>
<path d="M259.716 136.916C260.943 121.605 260.27 94.4385 246.98 84.4651C243.291 81.6959 237.194 103.62 237.954 122.677C238.715 141.734 259.716 136.916 259.716 136.916Z" fill="#F2EEDD"/>
<path d="M248.314 134.205C255.388 134.12 261.17 113.585 251.539 89.1626C260.409 101.3 261.641 127.992 259.952 137.389C259.952 137.389 238.659 143.246 237.899 124.188C237.833 122.535 237.84 120.85 237.901 119.153C238.394 125.645 245.19 134.243 248.314 134.205" fill="#E0D4B8"/>
<path d="M242.516 89.7256C243.784 86.3077 245.135 84.2266 246.317 84.2266C246.338 84.2266 246.36 84.2274 246.382 84.2291C246.389 84.235 246.396 84.2408 246.401 84.2467C246.599 84.2643 246.794 84.3248 246.98 84.4649C247.564 84.9029 248.114 85.3838 248.65 85.8847C246.686 86.927 244.668 88.3007 242.516 89.7256" fill="#AC7B72"/>
<path d="M342.992 83.3364C342.979 83.297 342.965 83.2575 342.952 83.2189C343.251 82.958 343.554 82.6995 343.87 82.4444C343.872 82.4519 343.875 82.4595 343.878 82.467C343.748 82.5728 343.619 82.6785 343.492 82.7843C343.617 82.869 343.742 82.9521 343.867 83.0352C343.608 83.0889 343.345 83.1753 343.078 83.2961C343.049 83.3096 343.021 83.323 342.992 83.3364Z" fill="#F35983"/>
<path d="M343.078 83.2966C351.502 79.4818 356.091 109.973 355.054 114.949C353.774 121.093 343.493 134.204 342.249 136.9C341.004 139.596 327.526 147.683 325.659 142.291C323.793 136.9 332.088 88.2736 343.078 83.2966Z" fill="#F2EEDD"/>
<path d="M352.871 96.8334C351.81 111.865 335.389 142.055 326.359 129.216C325.42 135.735 325.13 140.759 325.66 142.291C327.526 147.682 341.901 140.555 343.146 137.86C344.389 135.164 354.583 122.341 355.863 116.198C356.359 113.816 354.755 104.346 352.871 96.8334" fill="#E0D4B8"/>
<path d="M352.985 77.4751L352.882 77.4382L352.985 77.4751ZM353.093 74.1487L352.975 74.131L353.091 74.1478C352.862 71.4718 352.575 68.8435 352.23 66.3848C352.232 66.3873 352.233 66.3898 352.234 66.3923C352.579 68.8494 352.865 71.4751 353.093 74.1487" fill="#B58383"/>
<path d="M352.277 77.0444C352.251 77.0201 352.227 76.9958 352.202 76.9723C352.227 76.9958 352.252 77.0201 352.277 77.0444Z" fill="#B58383"/>
<path d="M343.867 83.0352C343.741 82.9521 343.616 82.869 343.492 82.7842C343.619 82.6785 343.748 82.5728 343.878 82.467C343.937 82.6433 343.997 82.8212 344.057 83.0016C343.994 83.0108 343.931 83.0217 343.867 83.0352Z" fill="#AD2E43"/>
<path d="M348.384 85.5498C346.798 84.8122 345.286 83.9697 343.867 83.0357C343.931 83.0223 343.994 83.0113 344.057 83.0021C344.213 82.9786 344.367 82.9677 344.519 82.9677C345.936 82.9677 347.227 83.9403 348.384 85.5498" fill="#AC7B72"/>
<path d="M353.196 146.576C345.327 153.097 334.041 154.949 322.934 156.861L320.505 140.463C320.505 140.463 334.561 123.316 339.773 123.689C344.987 124.064 357.862 142.708 353.196 146.576" fill="#E2D7AA"/>
<path d="M358.799 137.635C360.229 117.071 353.012 85.9696 337.261 77.1785L331.188 114.311C331.188 114.311 338.164 146.22 342.415 148.721C346.416 151.073 358.234 145.757 358.799 137.635" fill="#EDE6C5"/>
<path d="M352.159 139.887C343.221 139.887 340.082 104.302 334.62 91.6863L331.188 114.312C331.188 114.312 337.11 147.778 341.362 150.279C345.364 152.632 358.234 145.758 358.799 137.635C358.889 136.342 358.945 135.01 358.966 133.643C357.254 137.581 354.927 139.887 352.159 139.887Z" fill="#E2D7AA"/>
<path d="M238.25 148.416C246.358 154.113 257.707 155.216 268.881 156.385L270.699 140.794C270.699 140.794 258.529 125.293 253.332 125.941C248.135 126.591 233.442 145.037 238.25 148.416Z" fill="#E2D7AA"/>
<path d="M232.317 140.309C230.124 121.013 236.184 91.2949 251.601 82.1128L259.05 116.759C259.05 116.759 254.373 148.634 250.215 151.232C246.304 153.676 233.183 147.932 232.317 140.309" fill="#EDE6C5"/>
<path d="M251.601 82.1129C251.245 82.3252 250.899 82.5602 250.554 82.7926C251.221 93.3602 255.189 141.835 240.297 141.835C237.147 141.835 234.094 141.192 231.984 136.136C232.056 137.569 232.165 138.966 232.317 140.31C233.183 147.932 246.475 154.371 250.387 151.926C254.544 149.327 260.001 118.493 260.001 118.493L251.601 82.1129Z" fill="#E2D7AA"/>
<path d="M327.216 167.949L299.672 161.712L268.751 171.326L283.389 263.485H284.688L294.371 193.282L308.072 190.73L332.76 263.485H333.778L327.216 167.949" fill="#4C3E42"/>
<path d="M311.537 186.918L291.096 188.304L284.099 263.485H284.688L295.167 193.675L307.813 191.596L332.76 263.485H333.076L311.537 186.918" fill="#3A2D32"/>
<path d="M327.603 173.582L327.216 167.949L299.672 161.712L268.751 171.327L270.045 179.471C289.636 172.93 304.676 171.843 327.603 173.582Z" fill="#3A2D32"/>
<path d="M263.035 130.559L266.153 170.336L269.051 173.212C269.051 173.212 293.523 159.77 327.822 170.336L330.421 168.057C330.421 168.057 326.783 144.647 329.035 132.424C331.287 120.2 263.035 130.559 263.035 130.559" fill="#EDE6C5"/>
<path d="M300.277 163.501C286.213 163.501 270.59 167.765 269.789 159.15C268.576 146.097 284.438 140.194 298.502 140.194C312.566 140.194 327.475 141.955 326.435 158.736C325.9 167.379 314.341 163.501 300.277 163.501ZM329.035 132.424C331.287 120.2 263.035 130.559 263.035 130.559L266.153 170.336L269.051 173.212C269.051 173.212 293.523 159.77 327.822 170.336L330.421 168.057C330.421 168.057 326.783 144.647 329.035 132.424" fill="#D8C9A3"/>
<path d="M250.554 82.7928C250.049 101.702 259.528 134.833 259.528 134.833L296.481 133.425L298.351 131.989L301.501 134.031L334.951 132.245C334.951 132.245 338.071 81.5483 338.071 77.5254C338.071 77.5254 311.564 62.9534 294.745 64.5746C269.422 67.0149 250.554 82.7928 250.554 82.7928" fill="#EDE6C5"/>
<path d="M332.517 130.471L307.312 131.804L298.45 112.384L291.6 131.676L260.296 132.851C260.296 132.851 253.233 110.072 250.613 91.2614C251.118 111.022 259.512 135.541 259.512 135.541L296.64 134.669L298.861 133.537L300.872 134.978L334.951 132.938C334.951 132.938 337.441 112.67 337.099 96.434C335.295 113.171 332.517 130.471 332.517 130.471Z" fill="#D8C9A3"/>
<path d="M277.455 68.6883L280.577 55.0821L310.743 61.6729L311.488 67.3322L296.772 74.1445L277.455 68.6883" fill="#FFB882"/>
<path d="M268.095 103.324L268.303 106.774L270.756 106.442L270.624 102.564L268.095 103.324Z" fill="#EFE8C7"/>
<path d="M301.881 169.118H296.165V171.846H301.881V169.118Z" fill="#6D565A"/>
<path d="M332.671 265.738H343.931C343.931 265.738 334.23 261.234 333.018 261.754C331.804 262.274 332.671 265.738 332.671 265.738" fill="#EDE6C5"/>
<path d="M286.556 265.738H279.143C279.143 265.738 283.38 260.367 284.178 260.887C284.976 261.408 286.556 265.738 286.556 265.738" fill="#EDE6C5"/>
<path d="M294.171 78.7798L297.261 73.3857L277.454 67.3244L276.155 68.5596L294.171 78.7798" fill="#EDE6C5"/>
<path d="M301.165 78.3032L297.26 73.3858L311.624 66.0263L312.533 66.6758L301.165 78.3032Z" fill="#EDE6C5"/>
<path d="M290.23 172.714L293.088 184.061L295.6 183.8L294.734 171.934L290.23 172.714" fill="#3A2D32"/>
<path d="M261.084 181.885C261.084 181.221 260.764 180.682 260.369 180.682C259.975 180.682 259.655 181.221 259.655 181.885C259.655 182.549 259.975 183.086 260.369 183.086C260.764 183.086 261.084 182.549 261.084 181.885Z" fill="#EDE6C5"/>
<path d="M276.965 172.388L275.663 172.594L276 175.98L277.302 175.773L276.965 172.388Z" fill="#3A2D32"/>
<path d="M264.952 73.6533C264.939 73.6307 264.926 73.6072 264.913 73.5845C267.863 72.1051 271.194 70.6147 274.842 69.2712L274.852 69.2754C271.217 70.6323 267.895 72.1445 264.952 73.6533V73.6533ZM274.842 69.2712L274.847 69.2695C275.176 69.1479 275.509 69.0295 275.844 68.9112C275.567 69.0111 275.294 69.111 275.02 69.2125L274.842 69.2712" fill="#B58383"/>
<path d="M295.535 88.5093C281.73 88.1375 269.107 80.8586 264.952 73.6536C267.895 72.1448 271.217 70.6326 274.851 69.2757L294.084 79.0184L295.708 77.6539L295.535 88.5093V88.5093ZM275.02 69.2128C275.294 69.1112 275.567 69.0114 275.844 68.9115C276.036 68.8444 276.228 68.7773 276.42 68.7101L276.466 68.7361L275.02 69.2128" fill="#A97666"/>
<path d="M295.931 88.5186C295.799 88.516 295.667 88.5127 295.535 88.5093L295.708 77.6539L294.084 79.0184L274.852 69.2758L274.842 69.2716L275.02 69.2128L276.466 68.7362L294.171 78.7801L295.749 76.0243L296.258 76.5479L295.931 88.5186Z" fill="#9A6854"/>
<path d="M324.545 71.1777C323.217 70.6331 321.827 70.086 320.395 69.5523C321.828 70.0843 323.217 70.6298 324.545 71.1727C324.545 71.1744 324.545 71.1761 324.545 71.1777ZM312.752 67.0054C312.749 67.0038 312.746 67.0029 312.742 67.0021L312.352 66.8611L312.752 67.0054Z" fill="#B58383"/>
<path d="M299.608 88.4141L298.566 77.1995L299.281 76.7447L301.1 78.5632L314.352 67.5853L312.742 67.002C312.745 67.0029 312.749 67.0037 312.752 67.0054L312.827 67.0323C315.415 67.785 317.967 68.6502 320.395 69.5523C321.827 70.086 323.216 70.6331 324.545 71.1777C323.978 78.7637 313.883 87.3517 299.608 88.4141" fill="#A97666"/>
<path d="M299.08 88.4502L298.141 76.6289L298.986 75.559L301.165 78.3031L312.352 66.8611L312.742 67.0021L314.351 67.5853L301.1 78.5632L299.281 76.7447L298.566 77.1996L299.607 88.4141C299.432 88.4275 299.256 88.4393 299.08 88.4502" fill="#9A6854"/>
<path d="M277.748 67.415V67.4142L280.443 55.6643L277.748 67.415V67.415ZM311.337 66.1731L310.743 61.6727L311.337 66.1731ZM310.743 61.6727L281.876 55.3664L281.877 55.3655L310.743 61.6727" fill="#B58383"/>
<path d="M297.259 73.3857L277.748 67.4151L280.443 55.6644C280.914 55.5586 281.391 55.4596 281.876 55.3664L310.743 61.6727L311.337 66.1732L297.261 73.3849L297.259 73.3857Z" fill="#B55F43"/>
<path d="M294.171 78.7798L276.466 68.7359L276.42 68.7099L276.155 68.5596L277.454 67.3244L277.748 67.415L297.259 73.3857H297.261L295.749 76.024L294.171 78.7798Z" fill="#A97666"/>
<path d="M301.165 78.3032L298.986 75.5592L297.26 73.3858L297.261 73.3849L311.337 66.1732L311.624 66.0263L312.533 66.6758L312.352 66.8613L301.165 78.3032" fill="#A97666"/>
<path d="M276.405 41.7318C275.782 34.8364 281.448 31.1038 286.672 29.0831C292.149 26.9634 304.224 27.7287 306.697 30.466C310.624 34.8112 309.752 40.6811 309.201 46.0518C308.65 51.4224 277.439 53.1796 276.405 41.7318" fill="#7F4A4C"/>
<path d="M297.223 46.3059C288.708 43.3386 283.384 36.1688 284.78 29.8902C280.176 32.0485 275.857 35.6653 276.405 41.7316C277.359 52.3033 304.03 51.611 308.544 47.2138C305.138 47.9229 301.168 47.6813 297.223 46.3059Z" fill="#6B393D"/>
<path d="M282.448 36.2554C279.677 42.0289 279.423 64.7433 280.787 66.3939C282.15 68.0445 293.507 72.9654 299.76 71.6932C306.015 70.4219 313.116 63.5323 313.54 62.1536C313.964 60.7765 309.83 48.9041 310.042 45.5122C310.254 42.1203 307.71 33.8529 304.318 32.0504C300.927 30.2487 284.992 30.9561 282.448 36.2554" fill="#FFB882"/>
<path d="M284.06 65.93C282.664 64.1795 282.483 40.0881 285.144 33.9656C285.191 33.8573 285.252 33.7533 285.309 33.6484C283.971 34.3507 282.948 35.2134 282.448 36.2556C279.677 42.0291 279.423 64.7434 280.787 66.3941C282.142 68.0338 293.356 72.8959 299.634 71.711C293.348 71.2377 285.222 67.3885 284.06 65.93" fill="#FF9566"/>
<path d="M282.781 57.062C284.477 48.4757 284.897 34.4525 283.626 33.2861C282.354 32.1196 272.413 34.7009 279.409 55.3703L282.781 57.062Z" fill="#6B393D"/>
<path d="M289.549 46.8198H312.586L312.869 48.4453H288.985L289.549 46.8198Z" fill="#4F3032"/>
<path d="M276.688 50.9893L289.549 46.8195L288.996 48.4937L277.19 51.6816L276.688 50.9893" fill="#4F3032"/>
<path d="M312.712 47.5416C313.487 51.766 312.958 54.3951 310.779 55.0471C308.481 55.7369 302.983 55.0169 302.736 47.9503L312.712 47.5416Z" fill="#4F3032"/>
<path d="M301.774 57.9672C303.903 57.5888 306.014 56.4299 306.279 55.9004C306.544 55.37 302.834 49.8056 302.834 49.8056C302.834 49.8056 299.389 58.391 301.774 57.9672" fill="#EA7B59"/>
<path d="M280.505 53.1793C279.728 51.0722 275.84 48.303 275.134 50.7063C274.427 53.1088 278.255 59.0736 280.151 58.1253C280.857 57.7729 280.999 54.522 280.505 53.1793Z" fill="#FF9566"/>
<path d="M300.679 57.7899C302.808 57.4123 304.919 56.2534 305.184 55.7231C305.449 55.1927 301.739 49.6283 301.739 49.6283C301.739 49.6283 298.294 58.2145 300.679 57.7899" fill="#FFB882"/>
<path d="M289.549 46.8197C287.571 51.4829 290.3 54.9511 292.3 55.4177C296.293 56.3466 302.676 54.2571 303.895 47.95L289.549 46.8197" fill="#4F3032"/>
<path d="M279.511 53.6136C279.052 52.3716 276.76 50.7386 276.343 52.1551C275.926 53.5725 278.184 57.0911 279.302 56.5322C279.719 56.3232 279.803 54.4066 279.511 53.6136" fill="#DB6449"/>
<path d="M279.796 55.1149C279.487 54.2749 277.937 53.1705 277.656 54.128C277.374 55.0855 278.9 57.4628 279.656 57.0852C279.937 56.9451 279.994 55.6486 279.796 55.1149" fill="#FF9566"/>
<path d="M304.283 60.9586L296.618 61.5435V60.6665L304.283 60.5037V60.9586Z" fill="#EA7B59"/>
<path d="M303.244 63.2647C303.244 63.0675 302.558 62.2905 301.653 62.2905C300.746 62.2905 299.963 63.0675 299.963 63.2647C299.963 63.4628 300.746 63.0054 301.653 63.0054C302.558 63.0054 303.244 63.4628 303.244 63.2647Z" fill="#EA7B59"/>
<path d="M306.246 48.2041C307.324 51.4348 310.273 51.9903 311.961 51.6908C312.114 50.7115 312.055 49.4771 311.78 47.9775L306.246 48.2041Z" fill="#774F53"/>
<path d="M305.325 48.1558L304.525 48.1935C305.076 50.1337 306.469 50.9275 307.726 51.1499C306.713 50.5541 305.833 49.6109 305.325 48.1558" fill="#774F53"/>
<path d="M300.549 51.7921C301.324 50.7985 301.898 49.5733 302.122 48.0838L293.471 47.7616C293.651 50.1968 297.073 52.8385 300.549 51.7921" fill="#774F53"/>
</g>
<defs>
<clipPath id="clip0">
<rect x="151" width="278" height="278" fill="white"/>
</clipPath>
</defs>
</svg>
